<svg width="30" height="40" viewBox="0 0 30 40" fill="none" xmlns="http://www.w3.org/2000/svg">
<path d="M28.7683 36.2777H4.24665C4.0968 36.2777 3.95309 36.2175 3.84713 36.1103C3.74117 36.0032 3.68164 35.8578 3.68164 35.7063V0.571429C3.68164 0.419876 3.74117 0.274531 3.84713 0.167368C3.95309 0.0602039 4.0968 0 4.24665 0H21.105C21.2549 3.23642e-05 21.3985 0.0602575 21.5045 0.167429L29.1678 7.91771C29.2738 8.02485 29.3333 8.17017 29.3333 8.32171V35.7063C29.3333 35.8578 29.2738 36.0032 29.1678 36.1103C29.0619 36.2175 28.9182 36.2777 28.7683 36.2777ZM4.81167 35.1349H28.2033V8.55829L20.8711 1.14286H4.81054L4.81167 35.1349Z" fill="#1EAD5E"/>
<path d="M0.565015 18.6C0.415164 18.6 0.27145 18.5398 0.165489 18.4326C0.0595283 18.3255 0 18.1801 0 18.0286V3.67429C0 3.52273 0.0595283 3.37739 0.165489 3.27022C0.27145 3.16306 0.415164 3.10286 0.565015 3.10286H4.24326C4.39312 3.10286 4.53683 3.16306 4.64279 3.27022C4.74875 3.37739 4.80828 3.52273 4.80828 3.67429C4.80828 3.82584 4.74875 3.97118 4.64279 4.07835C4.53683 4.18551 4.39312 4.24571 4.24326 4.24571H1.13003V18.0286C1.13003 18.1801 1.0705 18.3255 0.964541 18.4326C0.85858 18.5398 0.714867 18.6 0.565015 18.6Z" fill="#1EAD5E"/>
<path d="M0.565015 29.9714C0.415164 29.9714 0.27145 29.9112 0.165489 29.8041C0.0595283 29.6969 0 29.5516 0 29.4V27.1429C0 26.9913 0.0595283 26.846 0.165489 26.7388C0.27145 26.6316 0.415164 26.5714 0.565015 26.5714C0.714867 26.5714 0.85858 26.6316 0.964541 26.7388C1.0705 26.846 1.13003 26.9913 1.13003 27.1429V29.4C1.13003 29.5516 1.0705 29.6969 0.964541 29.8041C0.85858 29.9112 0.714867 29.9714 0.565015 29.9714Z" fill="#1EAD5E"/>
<path d="M25.7025 40H0.565015C0.415164 40 0.27145 39.9398 0.165489 39.8326C0.0595283 39.7255 0 39.5801 0 39.4286V32.8286C0 32.677 0.0595283 32.5317 0.165489 32.4245C0.27145 32.3173 0.415164 32.2571 0.565015 32.2571C0.714867 32.2571 0.85858 32.3173 0.964541 32.4245C1.0705 32.5317 1.13003 32.677 1.13003 32.8286V38.8571H25.1375V35.7086C25.1375 35.557 25.1971 35.4117 25.303 35.3045C25.409 35.1973 25.5527 35.1371 25.7025 35.1371C25.8524 35.1371 25.9961 35.1973 26.1021 35.3045C26.208 35.4117 26.2676 35.557 26.2676 35.7086V39.4286C26.2676 39.5801 26.208 39.7255 26.1021 39.8326C25.9961 39.9398 25.8524 40 25.7025 40Z" fill="#1EAD5E"/>
<path d="M0.565015 24.2857C0.415164 24.2857 0.27145 24.2255 0.165489 24.1183C0.0595283 24.0112 0 23.8658 0 23.7143V21.4571C0 21.3056 0.0595283 21.1602 0.165489 21.0531C0.27145 20.9459 0.415164 20.8857 0.565015 20.8857C0.714867 20.8857 0.85858 20.9459 0.964541 21.0531C1.0705 21.1602 1.13003 21.3056 1.13003 21.4571V23.7143C1.13003 23.8658 1.0705 24.0112 0.964541 24.1183C0.85858 24.2255 0.714867 24.2857 0.565015 24.2857Z" fill="#1EAD5E"/>
<path d="M28.7683 8.89314H21.105C20.9552 8.89314 20.8115 8.83294 20.7055 8.72578C20.5995 8.61861 20.54 8.47327 20.54 8.32171V0.571429C20.54 0.419876 20.5995 0.274531 20.7055 0.167368C20.8115 0.0602039 20.9552 0 21.105 0C21.2549 3.23642e-05 21.3985 0.0602575 21.5045 0.167429C21.6104 0.274592 21.67 0.419876 21.67 0.571429V7.75029H28.7683C28.9182 7.75029 29.0618 7.81055 29.1678 7.91771C29.2738 8.02485 29.3333 8.17017 29.3333 8.32171C29.3333 8.47327 29.2738 8.61861 29.1678 8.72578C29.0619 8.83294 28.9182 8.89314 28.7683 8.89314Z" fill="#1EAD5E"/>
<path d="M24.1165 13.7143H8.89786C8.74801 13.7143 8.60429 13.6541 8.49833 13.5469C8.39237 13.4398 8.33285 13.2944 8.33285 13.1429C8.33285 12.9913 8.39237 12.846 8.49833 12.7388C8.60429 12.6316 8.74801 12.5714 8.89786 12.5714H24.1165C24.2664 12.5714 24.4101 12.6316 24.5161 12.7388C24.622 12.846 24.6816 12.9913 24.6816 13.1429C24.6816 13.2944 24.622 13.4398 24.5161 13.5469C24.4101 13.6541 24.2664 13.7143 24.1165 13.7143Z" fill="#1EAD5E"/>
<path d="M24.1165 18.9714H8.89786C8.74801 18.9714 8.60429 18.9112 8.49833 18.8041C8.39237 18.6969 8.33285 18.5516 8.33285 18.4C8.33285 18.2484 8.39237 18.1031 8.49833 17.9959C8.60429 17.8888 8.74801 17.8286 8.89786 17.8286H24.1165C24.2664 17.8286 24.4101 17.8888 24.5161 17.9959C24.622 18.1031 24.6816 18.2484 24.6816 18.4C24.6816 18.5516 24.622 18.6969 24.5161 18.8041C24.4101 18.9112 24.2664 18.9714 24.1165 18.9714Z" fill="#1EAD5E"/>
<path d="M24.1165 24.2286H8.89786C8.74801 24.2286 8.60429 24.1684 8.49833 24.0612C8.39237 23.954 8.33285 23.8087 8.33285 23.6571C8.33285 23.5056 8.39237 23.3602 8.49833 23.2531C8.60429 23.1459 8.74801 23.0857 8.89786 23.0857H24.1165C24.2664 23.0857 24.4101 23.1459 24.5161 23.2531C24.622 23.3602 24.6816 23.5056 24.6816 23.6571C24.6816 23.8087 24.622 23.954 24.5161 24.0612C24.4101 24.1684 24.2664 24.2286 24.1165 24.2286Z" fill="#1EAD5E"/>
<path d="M24.1165 29.4857H8.89786C8.74801 29.4857 8.60429 29.4255 8.49833 29.3183C8.39237 29.2112 8.33285 29.0658 8.33285 28.9143C8.33285 28.7627 8.39237 28.6174 8.49833 28.5102C8.60429 28.4031 8.74801 28.3429 8.89786 28.3429H24.1165C24.2664 28.3429 24.4101 28.4031 24.5161 28.5102C24.622 28.6174 24.6816 28.7627 24.6816 28.9143C24.6816 29.0658 24.622 29.2112 24.5161 29.3183C24.4101 29.4255 24.2664 29.4857 24.1165 29.4857Z" fill="#1EAD5E"/>
</svg>
