<svg width="320" height="193" viewBox="0 0 320 193" fill="none" xmlns="http://www.w3.org/2000/svg">
<g clip-path="url(#clip0)">
<path d="M193.373 21.258C194.956 32.2468 187.327 42.4679 176.339 44.0514C165.351 45.635 155.13 38.0532 153.499 27.0643C151.916 16.0755 159.545 5.8545 170.533 4.27096C181.569 2.68742 191.79 10.2692 193.373 21.258Z" fill="#F5F5F5"/>
<path d="M188.623 21.9301C189.823 30.2796 184.017 38.0534 175.62 39.301C167.223 40.5007 159.449 34.7423 158.25 26.3448C157.05 17.9952 162.856 10.2215 171.253 8.97382C179.65 7.77417 187.424 13.5805 188.623 21.9301Z" fill="#EBEBEB"/>
<path d="M188.575 21.4499C188.479 21.4499 188.335 20.8261 187.903 19.6744C187.472 18.5707 186.8 16.9392 185.456 15.2597C184.785 14.4439 184.017 13.5802 183.057 12.8124C182.097 12.0446 180.994 11.3248 179.698 10.749C179.075 10.4611 178.403 10.2212 177.683 10.0292C176.963 9.83728 176.244 9.64533 175.524 9.54936C174.756 9.45339 173.988 9.4054 173.221 9.4054C172.453 9.4054 171.637 9.50137 170.869 9.64533C170.102 9.78929 169.334 9.98123 168.566 10.2212C167.846 10.4611 167.127 10.797 166.455 11.1329C165.783 11.4688 165.159 11.9007 164.584 12.3326C164.008 12.7644 163.48 13.2443 162.952 13.7241C161.945 14.6839 161.177 15.7875 160.505 16.8432C159.881 17.8989 159.401 19.0026 159.114 20.0103C158.442 22.0257 158.346 23.8012 158.346 25.0009C158.346 26.2005 158.442 26.8723 158.346 26.8723C158.298 26.8723 158.058 26.2485 157.914 25.0009C157.77 23.8012 157.77 21.9298 158.346 19.7704C158.634 18.7147 159.066 17.515 159.689 16.3634C160.313 15.2117 161.177 14.06 162.184 12.9564C162.712 12.4285 163.288 11.9007 163.912 11.4208C164.536 10.941 165.207 10.5091 165.927 10.1252C166.647 9.7413 167.415 9.4054 168.182 9.11748C168.998 8.82957 169.814 8.63762 170.677 8.44568C171.541 8.30172 172.357 8.20575 173.221 8.20575C174.084 8.20575 174.9 8.25374 175.716 8.34971C176.531 8.44568 177.299 8.63762 178.067 8.87755C178.835 9.11748 179.506 9.4054 180.178 9.69332C181.522 10.3171 182.721 11.1329 183.681 11.9966C184.689 12.8604 185.504 13.8201 186.128 14.7319C187.424 16.5553 188.047 18.2828 188.335 19.4825C188.623 20.7781 188.623 21.4499 188.575 21.4499Z" fill="#E0E0E0"/>
<path d="M71.5915 167.28C72.5991 174.237 67.7528 180.668 60.7952 181.675C53.8377 182.683 47.3599 177.884 46.3523 170.926C45.3447 163.968 50.191 157.538 57.1485 156.531C64.1061 155.523 70.5838 160.322 71.5915 167.28Z" fill="#F5F5F5"/>
<path d="M68.5687 167.712C69.3364 172.99 65.6417 177.933 60.3635 178.7C55.0374 179.468 50.1431 175.821 49.3754 170.495C48.6077 165.216 52.3024 160.274 57.5805 159.506C62.9067 158.738 67.8009 162.433 68.5687 167.712Z" fill="#EBEBEB"/>
<path d="M68.5694 167.423C68.5214 167.423 68.4254 167.039 68.1375 166.32C67.8496 165.6 67.4178 164.592 66.6021 163.536C66.1702 163.009 65.6904 162.481 65.0666 161.953C64.4428 161.473 63.7711 160.993 62.9554 160.657C62.5715 160.465 62.1396 160.321 61.7078 160.177C61.2759 160.033 60.7961 159.938 60.3163 159.89C59.8364 159.842 59.3566 159.794 58.8768 159.794C58.3969 159.794 57.8691 159.842 57.3893 159.938C56.9095 160.033 56.3817 160.177 55.9498 160.321C55.47 160.465 55.0381 160.657 54.6063 160.897C54.1744 161.137 53.7906 161.377 53.4067 161.665C53.0228 161.953 52.6869 162.241 52.399 162.529C51.7753 163.153 51.2475 163.824 50.8636 164.496C50.4797 165.168 50.1918 165.84 49.9519 166.464C49.5201 167.759 49.4721 168.863 49.4721 169.583C49.4721 170.351 49.5201 170.782 49.4721 170.782C49.4241 170.782 49.2801 170.398 49.1842 169.583C49.0882 168.815 49.0882 167.663 49.4721 166.272C49.664 165.6 49.9519 164.88 50.3358 164.112C50.7196 163.393 51.2475 162.625 51.9192 161.953C52.2551 161.617 52.591 161.281 53.0228 160.993C53.4067 160.705 53.8385 160.417 54.3184 160.177C54.7502 159.938 55.2301 159.698 55.7579 159.554C56.2377 159.362 56.7655 159.218 57.3413 159.122C57.8691 159.026 58.397 158.978 58.9728 158.978C59.5006 158.978 60.0284 159.026 60.5562 159.074C61.084 159.122 61.5638 159.266 62.0437 159.41C62.5235 159.554 62.9554 159.746 63.3872 159.938C64.2509 160.321 64.9706 160.849 65.5944 161.377C66.2182 161.905 66.746 162.529 67.1299 163.105C67.9456 164.256 68.3295 165.36 68.5214 166.128C68.5694 166.991 68.5694 167.423 68.5694 167.423Z" fill="#E0E0E0"/>
<g clip-path="url(#clip1)">
<path d="M105.91 115.998C97.921 87.168 83.8294 64.9177 66.7109 51.0803C84.4992 39.3274 104.719 30.4122 126.749 25.038C137.69 52.8131 142.305 87.0675 138.187 125.189C127.816 120.619 117.024 117.63 105.91 115.998Z" fill="#A7C05D"/>
<path d="M107.473 114.441C100.129 86.4395 87.1292 64.365 71.0527 49.8998C86.8563 40.181 104.421 32.6219 123.425 27.7751C134.168 53.9179 139.254 86.0628 136.475 122C127.072 118.283 117.372 115.822 107.473 114.441Z" fill="#4E7735"/>
<path d="M128.884 102.889C128.636 99.4987 129.703 96.6358 131.786 94.7774C130.472 77.9516 127.296 62.3312 122.607 48.2678C118.563 47.1126 115.313 45.1286 114.097 42.3662C112.882 39.5786 111.592 36.8664 110.252 34.2546C101.395 37.1427 92.8855 40.6083 84.748 44.6515C86.3855 46.6605 87.9981 48.7449 89.5362 50.9047C91.0248 53.0142 90.355 55.7766 88.271 58.288C95.416 68.4337 101.494 80.488 106.109 94.1496C108.788 95.7317 110.798 98.2932 111.517 101.156C112.485 104.948 113.328 108.841 114.073 112.834C119.233 113.663 124.369 114.818 129.43 116.299C129.38 111.729 129.182 107.284 128.884 102.889Z" fill="#A7C05D"/>
<path d="M116.603 83.9285C107.696 84.2298 98.715 81.0405 95.9364 76.1936C93.2074 71.3719 98.8143 64.742 109.433 62.2307C120.051 59.7194 130.347 64.2649 131.339 71.2715C132.381 78.3031 125.459 83.602 116.603 83.9285Z" fill="#4E7735"/>
<path d="M104.966 55.9021C100.774 57.0573 96.4071 56.329 95.0178 54.1693C93.6532 52.0095 95.9605 48.8704 100.401 47.2632C104.842 45.6559 109.531 46.5851 110.648 49.1969C111.764 51.8086 109.134 54.7469 104.966 55.9021Z" fill="#4E7735"/>
<path d="M119.257 102.06C116.28 101.734 113.303 99.1722 112.509 96.2842C111.74 93.3961 113.7 90.935 117.025 90.9099C120.349 90.8597 123.5 93.5468 123.922 96.8115C124.393 100.051 122.235 102.387 119.257 102.06Z" fill="#4E7735"/>
</g>
<g clip-path="url(#clip2)">
<path d="M126.756 115.998C118.768 87.168 104.676 64.9177 87.5576 51.0803C105.346 39.3274 125.565 30.4122 147.596 25.038C158.537 52.8131 163.152 87.0675 159.033 125.189C148.663 120.619 137.871 117.63 126.756 115.998Z" fill="#A7C05D"/>
<path d="M128.319 114.441C120.976 86.4395 107.976 64.365 91.8994 49.8998C107.703 40.181 125.268 32.6219 144.272 27.7751C155.014 53.9179 160.1 86.0628 157.322 122C147.919 118.283 138.218 115.822 128.319 114.441Z" fill="#4E7735"/>
<path d="M149.731 102.889C149.482 99.4987 150.549 96.6358 152.633 94.7774C151.318 77.9516 148.143 62.3312 143.454 48.2678C139.41 47.1126 136.16 45.1286 134.944 42.3662C133.728 39.5786 132.438 36.8664 131.099 34.2546C122.242 37.1427 113.732 40.6083 105.595 44.6515C107.232 46.6605 108.845 48.7449 110.383 50.9047C111.871 53.0142 111.202 55.7766 109.118 58.288C116.263 68.4337 122.341 80.488 126.956 94.1496C129.635 95.7317 131.645 98.2932 132.364 101.156C133.332 104.948 134.175 108.841 134.919 112.834C140.08 113.663 145.215 114.818 150.276 116.299C150.227 111.729 150.028 107.284 149.731 102.889Z" fill="#A7C05D"/>
<path d="M137.449 83.9285C128.543 84.2298 119.562 81.0405 116.783 76.1936C114.054 71.3719 119.661 64.742 130.279 62.2307C140.898 59.7194 151.194 64.2649 152.186 71.2715C153.228 78.3031 146.306 83.602 137.449 83.9285Z" fill="#4E7735"/>
<path d="M125.813 55.9021C121.62 57.0573 117.254 56.329 115.864 54.1693C114.5 52.0095 116.807 48.8704 121.248 47.2632C125.689 45.6559 130.378 46.5851 131.494 49.1969C132.611 51.8086 129.981 54.7469 125.813 55.9021Z" fill="#4E7735"/>
<path d="M140.104 102.06C137.127 101.734 134.15 99.1722 133.356 96.2842C132.587 93.3961 134.547 90.935 137.871 90.9099C141.196 90.8597 144.347 93.5468 144.768 96.8115C145.24 100.051 143.081 102.387 140.104 102.06Z" fill="#4E7735"/>
</g>
<g clip-path="url(#clip3)">
<path d="M178.414 27.3678C177.983 27.476 177.553 27.6137 177.103 27.6528C176.091 27.7317 175.635 27.2688 175.441 26.4024C175.31 25.8005 175.316 25.1766 175.347 24.5609C175.358 24.2913 175.44 24.0915 175.722 24.016C176.088 23.9178 176.497 24.0377 176.641 24.2658C176.945 24.7545 176.942 24.7407 177.51 24.6104C178.767 24.3178 179.949 23.8305 181.105 23.2759C181.339 23.1615 181.376 23.0478 181.225 22.8512C180.449 21.8373 179.469 21.1075 178.208 20.7643C177.997 20.7097 177.787 20.6846 177.561 20.7155C177.191 20.7703 176.993 20.5938 176.966 20.2381C176.931 19.6846 176.894 19.1242 176.859 18.5706C176.819 17.9442 177.297 17.4753 177.938 17.5034C178.198 17.5153 178.432 17.6006 178.664 17.7086C180.33 18.5211 181.656 19.6692 182.508 21.3296C183.141 22.5672 183.148 23.8615 182.883 25.1842C182.84 25.3884 182.69 25.5028 182.523 25.6141C181.718 26.1559 180.833 26.5414 179.932 26.8942C179.438 27.0784 178.936 27.2577 178.414 27.3678Z" fill="#E0E0E0"/>
<path d="M168.865 25.929C169.108 27.0046 169.239 28.0877 169.059 29.188C169.027 29.352 168.996 29.516 168.939 29.6718C168.855 29.8943 168.688 30.0282 168.446 30.0264C168.19 30.0283 168.012 29.8983 167.931 29.6533C167.511 28.4772 167.097 27.2993 166.677 26.1232C166.132 24.6249 165.567 23.1322 165.043 21.6282C164.652 20.5036 164.241 19.3916 163.828 18.2727C163.768 18.1038 163.794 17.9485 163.84 17.7808C164.038 17.0833 164.241 16.377 164.43 15.6745C164.505 15.4175 164.638 15.2409 164.921 15.2244C165.182 15.2137 165.297 15.3902 165.37 15.6076C165.659 16.4632 165.956 17.317 166.252 18.1708C166.703 19.487 167.153 20.8031 167.604 22.1193C168.024 23.4066 168.445 24.6712 168.865 25.929Z" fill="#E0E0E0"/>
<path d="M169.916 32.3584C170.173 32.1931 170.366 32.0673 170.562 31.9554C170.744 31.8473 170.938 31.7806 171.137 31.905C171.329 32.0312 171.372 32.2197 171.332 32.4377C171.331 32.4603 171.315 32.4867 171.321 32.5075C171.323 33.3067 171.043 33.893 170.221 34.2319C169.624 34.4809 169.189 34.968 168.949 35.5952C168.813 35.9577 168.554 36.0345 168.078 35.9178C167.74 35.8381 167.619 35.6113 167.687 35.304C167.798 34.8152 167.774 34.4439 167.249 34.1475C166.876 33.9365 166.833 33.4665 166.895 33.0499C167.033 32.1834 167.438 31.445 168.075 30.8372C168.37 30.5582 168.743 30.4286 169.136 30.4341C169.756 30.4383 170.209 31.0577 170.088 31.7344C170.062 31.9192 169.988 32.0945 169.916 32.3584ZM169.57 32.5326C169.213 32.3542 168.905 32.2739 168.575 32.4512C168.523 32.4801 168.465 32.5178 168.474 32.5819C168.479 32.6548 168.544 32.6743 168.601 32.6887C168.927 32.7791 169.226 32.7136 169.57 32.5326Z" fill="#E0E0E0"/>
<path d="M172.205 24.4035C172.662 24.2218 173.144 24.1889 173.629 24.4514C173.973 24.6404 174.132 24.9237 174.223 25.2919C174.563 26.6747 173.764 27.5779 172.803 28.3542C172.09 28.9306 171.131 28.5878 170.778 27.7491C170.563 27.229 170.398 26.6956 170.331 26.1358C170.246 25.3956 170.45 25.0594 171.158 24.7438C171.489 24.6029 171.813 24.4866 172.205 24.4035Z" fill="#E0E0E0"/>
</g>
<g clip-path="url(#clip4)">
<path d="M158.027 115.998C150.038 87.168 135.947 64.9177 118.828 51.0803C136.616 39.3274 156.836 30.4122 178.867 25.038C189.808 52.8131 194.422 87.0675 190.304 125.189C179.933 120.619 169.141 117.63 158.027 115.998Z" fill="#A7C05D"/>
<path d="M159.59 114.441C152.246 86.4395 139.246 64.365 123.17 49.8998C138.973 40.181 156.538 32.6219 175.542 27.7751C186.285 53.9179 191.371 86.0628 188.592 122C179.189 118.283 169.489 115.822 159.59 114.441Z" fill="#4E7735"/>
<path d="M181.001 102.889C180.753 99.4987 181.82 96.6358 183.904 94.7774C182.589 77.9516 179.413 62.3312 174.724 48.2678C170.68 47.1126 167.43 45.1286 166.215 42.3662C164.999 39.5786 163.709 36.8664 162.369 34.2546C153.512 37.1427 145.003 40.6083 136.865 44.6515C138.503 46.6605 140.115 48.7449 141.653 50.9047C143.142 53.0142 142.472 55.7766 140.388 58.288C147.533 68.4337 153.612 80.488 158.226 94.1496C160.905 95.7317 162.915 98.2932 163.634 101.156C164.602 104.948 165.446 108.841 166.19 112.834C171.35 113.663 176.486 114.818 181.547 116.299C181.497 111.729 181.299 107.284 181.001 102.889Z" fill="#A7C05D"/>
<path d="M168.72 83.9285C159.813 84.2298 150.832 81.0405 148.054 76.1936C145.325 71.3719 150.931 64.742 161.55 62.2307C172.168 59.7194 182.464 64.2649 183.456 71.2715C184.498 78.3031 177.577 83.602 168.72 83.9285Z" fill="#4E7735"/>
<path d="M157.083 55.9021C152.891 57.0573 148.524 56.329 147.135 54.1693C145.77 52.0095 148.078 48.8704 152.519 47.2632C156.959 45.6559 161.648 46.5851 162.765 49.1969C163.881 51.8086 161.251 54.7469 157.083 55.9021Z" fill="#4E7735"/>
<path d="M171.375 102.06C168.398 101.734 165.42 99.1722 164.627 96.2842C163.857 93.3961 165.817 90.935 169.142 90.9099C172.466 90.8597 175.617 93.5468 176.039 96.8115C176.51 100.051 174.352 102.387 171.375 102.06Z" fill="#4E7735"/>
</g>
<path d="M227.826 99.7161V184.172C227.826 188.778 224.083 192.521 219.477 192.521H96.7836C92.1773 192.521 88.4346 188.778 88.4346 184.172V99.7161C88.4346 95.1094 92.1773 91.3665 96.7836 91.3665H219.477C224.083 91.3665 227.826 95.1094 227.826 99.7161Z" fill="#1EAD5E"/>
<path d="M227.825 99.7152C227.825 99.7152 227.825 99.6193 227.825 99.4273C227.825 99.2354 227.825 98.9475 227.729 98.5156C227.633 97.7478 227.345 96.5482 226.482 95.2525C226.05 94.6287 225.522 93.9089 224.754 93.3331C224.034 92.7093 223.123 92.1814 222.019 91.8455C221.731 91.7495 221.491 91.7016 221.203 91.6056C220.915 91.5576 220.628 91.5096 220.34 91.4616C220.052 91.4616 219.716 91.4136 219.428 91.4136C219.092 91.4136 218.804 91.4136 218.468 91.4136C217.173 91.4136 215.781 91.4136 214.294 91.4136C202.49 91.4136 185.36 91.4136 164.247 91.4616C153.691 91.4616 142.127 91.4616 129.699 91.4616C123.51 91.4616 117.08 91.4616 110.458 91.4616C107.147 91.4616 103.788 91.4616 100.382 91.4616C99.518 91.4616 98.6543 91.4616 97.8386 91.4616C96.9749 91.4616 96.1112 91.4136 95.2955 91.6056C94.4797 91.7495 93.664 92.0375 92.8963 92.4693C92.1286 92.9012 91.4568 93.4291 90.881 94.0049C90.2572 94.6287 89.7774 95.3485 89.3935 96.1163C89.0097 96.8841 88.7697 97.7478 88.6258 98.6116C88.5298 99.4753 88.5298 100.339 88.5298 101.251C88.5298 102.163 88.5298 103.026 88.5298 103.938C88.5298 107.537 88.5298 111.136 88.5298 114.783C88.5298 122.077 88.5298 129.563 88.5298 137.144C88.5298 152.356 88.5298 168.095 88.5298 184.171C88.5298 186.138 89.2496 188.106 90.5931 189.593C91.8886 191.081 93.712 192.088 95.6793 192.328C96.639 192.472 97.6466 192.424 98.6543 192.424C99.6619 192.424 100.622 192.424 101.629 192.424C103.597 192.424 105.564 192.424 107.531 192.424C115.4 192.424 123.126 192.424 130.707 192.424C145.918 192.424 160.553 192.424 174.516 192.424C188.479 192.424 201.77 192.424 214.15 192.424C215.685 192.424 217.221 192.424 218.756 192.424C219.524 192.424 220.292 192.424 221.011 192.28C221.731 192.136 222.451 191.897 223.123 191.561C223.459 191.417 223.746 191.177 224.082 191.033C224.37 190.793 224.706 190.601 224.946 190.361C225.522 189.881 225.954 189.305 226.386 188.729C227.153 187.53 227.633 186.09 227.729 184.699C227.777 178.94 227.729 173.422 227.777 168.143C227.777 147.03 227.825 129.946 227.825 118.094C227.825 112.192 227.825 107.585 227.825 104.514C227.825 102.978 227.825 101.779 227.825 100.963C227.825 100.147 227.825 99.7152 227.825 99.7152C227.825 99.7152 227.825 100.147 227.825 100.915C227.825 101.731 227.825 102.882 227.825 104.466C227.825 107.585 227.825 112.144 227.825 118.046C227.825 129.851 227.825 146.934 227.873 168.095C227.873 173.374 227.921 178.892 227.873 184.699C227.825 186.138 227.297 187.578 226.53 188.825C226.098 189.449 225.618 190.025 225.042 190.505C224.754 190.793 224.466 190.985 224.178 191.225C223.842 191.417 223.555 191.657 223.171 191.801C222.499 192.136 221.779 192.376 221.011 192.52C220.244 192.664 219.476 192.664 218.708 192.664C217.173 192.664 215.637 192.664 214.102 192.664C201.674 192.664 188.431 192.664 174.468 192.664C160.505 192.664 145.822 192.664 130.659 192.664C123.078 192.664 115.304 192.664 107.483 192.664C105.516 192.664 103.549 192.664 101.581 192.664C100.574 192.664 99.6139 192.664 98.6063 192.664C97.5986 192.664 96.639 192.712 95.6313 192.568C93.616 192.328 91.7447 191.273 90.4012 189.737C89.0576 188.202 88.2899 186.186 88.2899 184.123C88.2899 167.999 88.2899 152.26 88.2899 137.096C88.2899 129.515 88.2899 122.029 88.2899 114.735C88.2899 111.088 88.2899 107.441 88.2899 103.89C88.2899 102.978 88.2899 102.115 88.2899 101.203C88.2899 100.339 88.2419 99.4273 88.3859 98.5156C88.4818 97.6039 88.7697 96.7401 89.1536 95.9723C89.5375 95.1566 90.0653 94.4368 90.6891 93.813C91.3128 93.1891 92.0326 92.6613 92.8003 92.2294C93.5681 91.7975 94.4318 91.5096 95.2955 91.3657L95.9192 91.2697L96.591 91.2217C97.0229 91.1737 97.4547 91.2217 97.8865 91.2217C98.7502 91.2217 99.6139 91.2217 100.43 91.2217C103.836 91.2217 107.195 91.2217 110.506 91.2217C117.128 91.2217 123.558 91.2217 129.747 91.2217C142.175 91.2217 153.739 91.2217 164.295 91.2217C185.408 91.2217 202.49 91.2697 214.342 91.2697C215.829 91.2697 217.221 91.2697 218.516 91.2697C218.852 91.2697 219.188 91.2697 219.476 91.2697C219.812 91.2697 220.1 91.3177 220.436 91.3177C220.724 91.3657 221.059 91.4136 221.347 91.4616C221.635 91.5576 221.923 91.6056 222.211 91.7016C223.315 92.0375 224.226 92.6133 224.946 93.2371C225.666 93.8609 226.242 94.5327 226.673 95.2045C227.489 96.5482 227.777 97.6998 227.873 98.5156C227.969 98.8995 227.921 99.2354 227.969 99.4273C227.825 99.6193 227.825 99.7152 227.825 99.7152Z" fill="#263238"/>
<path d="M222.979 97.6037C222.979 97.5557 223.602 97.4597 224.418 97.4597C225.234 97.4597 225.858 97.5077 225.858 97.6037C225.858 97.6996 225.234 97.7476 224.418 97.7476C223.602 97.6996 222.979 97.6517 222.979 97.6037Z" fill="#263238"/>
<path d="M211.223 97.6037C211.223 97.5557 212.518 97.4597 214.15 97.4597C215.781 97.4597 217.077 97.5077 217.077 97.6037C217.077 97.6996 215.781 97.7476 214.15 97.7476C212.518 97.6996 211.223 97.6517 211.223 97.6037Z" fill="#263238"/>
<path d="M199.467 97.6037C199.467 97.5557 200.762 97.4597 202.394 97.4597C204.025 97.4597 205.321 97.5077 205.321 97.6037C205.321 97.6996 204.025 97.7476 202.394 97.7476C200.762 97.6996 199.467 97.6517 199.467 97.6037Z" fill="#263238"/>
<path d="M187.711 97.6037C187.711 97.5557 189.006 97.4597 190.638 97.4597C192.269 97.4597 193.565 97.5077 193.565 97.6037C193.565 97.6996 192.269 97.7476 190.638 97.7476C189.054 97.6996 187.711 97.6517 187.711 97.6037Z" fill="#263238"/>
<path d="M176.003 97.6037C176.003 97.5557 177.298 97.4597 178.93 97.4597C180.561 97.4597 181.857 97.5077 181.857 97.6037C181.857 97.6996 180.561 97.7476 178.93 97.7476C177.298 97.6996 176.003 97.6517 176.003 97.6037Z" fill="#263238"/>
<path d="M164.247 97.6037C164.247 97.5557 165.543 97.4597 167.174 97.4597C168.805 97.4597 170.101 97.5077 170.101 97.6037C170.101 97.6996 168.805 97.7476 167.174 97.7476C165.543 97.6996 164.247 97.6517 164.247 97.6037Z" fill="#263238"/>
<path d="M152.491 97.6037C152.491 97.5557 153.787 97.4597 155.418 97.4597C157.05 97.4597 158.345 97.5077 158.345 97.6037C158.345 97.6996 157.05 97.7476 155.418 97.7476C153.787 97.6996 152.491 97.6517 152.491 97.6037Z" fill="#263238"/>
<path d="M140.735 97.6037C140.735 97.5557 142.031 97.4597 143.662 97.4597C145.294 97.4597 146.589 97.5077 146.589 97.6037C146.589 97.6996 145.294 97.7476 143.662 97.7476C142.079 97.6996 140.735 97.6517 140.735 97.6037Z" fill="#263238"/>
<path d="M129.027 97.6037C129.027 97.5557 130.323 97.4597 131.954 97.4597C133.586 97.4597 134.881 97.5077 134.881 97.6037C134.881 97.6996 133.586 97.7476 131.954 97.7476C130.323 97.6996 129.027 97.6517 129.027 97.6037Z" fill="#263238"/>
<path d="M117.271 97.6037C117.271 97.5557 118.567 97.4597 120.198 97.4597C121.83 97.4597 123.125 97.5077 123.125 97.6037C123.125 97.6996 121.83 97.7476 120.198 97.7476C118.567 97.6996 117.271 97.6517 117.271 97.6037Z" fill="#263238"/>
<path d="M105.516 97.6037C105.516 97.5557 106.811 97.4597 108.443 97.4597C110.074 97.4597 111.37 97.5077 111.37 97.6037C111.37 97.6996 110.074 97.7476 108.443 97.7476C106.811 97.6996 105.516 97.6517 105.516 97.6037Z" fill="#263238"/>
<path d="M96.7826 100.483C96.7346 100.483 96.6387 99.1872 96.6387 97.6037C96.8786 97.3637 96.6867 97.5557 96.7826 97.4597H96.8306H96.9266H97.0705C97.1665 97.4597 97.2625 97.4597 97.3584 97.4597C97.5504 97.4597 97.7423 97.4597 97.8862 97.4597C98.2221 97.4597 98.51 97.4597 98.7979 97.5077C99.3257 97.5077 99.6616 97.5557 99.6616 97.6037C99.6616 97.6517 99.3257 97.6517 98.7979 97.6996C98.51 97.6996 98.1741 97.6996 97.8862 97.7476C97.6943 97.7476 97.5504 97.7476 97.3584 97.7476C97.2625 97.7476 97.1665 97.7476 97.0705 97.7476H96.9266H96.8306H96.7826C96.8306 97.6996 96.6387 97.8916 96.9266 97.6037C96.8786 99.1872 96.8306 100.483 96.7826 100.483Z" fill="#263238"/>
<path d="M96.7826 111.232C96.7346 111.232 96.6387 110.032 96.6387 108.545C96.6387 107.057 96.6867 105.857 96.7826 105.857C96.8306 105.857 96.9266 107.057 96.9266 108.545C96.8786 110.032 96.8306 111.232 96.7826 111.232Z" fill="#263238"/>
<path d="M96.7826 121.98C96.7346 121.98 96.6387 120.781 96.6387 119.293C96.6387 117.806 96.6867 116.606 96.7826 116.606C96.8306 116.606 96.9266 117.806 96.9266 119.293C96.8786 120.781 96.8306 121.98 96.7826 121.98Z" fill="#263238"/>
<path d="M96.7826 132.777C96.7346 132.777 96.6387 131.578 96.6387 130.09C96.6387 128.602 96.6867 127.403 96.7826 127.403C96.8306 127.403 96.9266 128.602 96.9266 130.09C96.8786 131.53 96.8306 132.777 96.7826 132.777Z" fill="#263238"/>
<path d="M96.7826 143.527C96.7346 143.527 96.6387 142.327 96.6387 140.839C96.6387 139.352 96.6867 138.152 96.7826 138.152C96.8306 138.152 96.9266 139.352 96.9266 140.839C96.8786 142.327 96.8306 143.527 96.7826 143.527Z" fill="#263238"/>
<path d="M96.7826 154.275C96.7346 154.275 96.6387 153.075 96.6387 151.588C96.6387 150.1 96.6867 148.901 96.7826 148.901C96.8306 148.901 96.9266 150.1 96.9266 151.588C96.8786 153.075 96.8306 154.275 96.7826 154.275Z" fill="#263238"/>
<path d="M96.7826 165.024C96.7346 165.024 96.6387 163.825 96.6387 162.337C96.6387 160.849 96.6867 159.65 96.7826 159.65C96.8306 159.65 96.9266 160.849 96.9266 162.337C96.8786 163.825 96.8306 165.024 96.7826 165.024Z" fill="#263238"/>
<path d="M96.7826 175.821C96.7346 175.821 96.6387 174.621 96.6387 173.134C96.6387 171.646 96.6867 170.447 96.7826 170.447C96.8306 170.447 96.9266 171.646 96.9266 173.134C96.8786 174.621 96.8306 175.821 96.7826 175.821Z" fill="#263238"/>
<path d="M99.6616 184.075C99.6616 184.123 98.3661 184.219 96.7826 184.219C96.5427 183.979 96.7346 184.171 96.6387 184.075V184.027V183.931V183.787C96.6387 183.691 96.6387 183.595 96.6387 183.499C96.6387 183.307 96.6387 183.115 96.6387 182.971C96.6387 182.635 96.6387 182.347 96.6867 182.059C96.6867 181.531 96.7346 181.195 96.7826 181.195C96.8306 181.195 96.8306 181.531 96.8786 182.059C96.8786 182.347 96.8786 182.683 96.9266 182.971C96.9266 183.163 96.9266 183.307 96.9266 183.499C96.9266 183.595 96.9266 183.691 96.9266 183.787V183.931V184.027V184.075C96.8786 184.027 97.0705 184.219 96.7826 183.931C98.3661 183.931 99.6616 183.979 99.6616 184.075Z" fill="#263238"/>
<path d="M111.226 184.075C111.226 184.123 109.93 184.219 108.347 184.219C106.763 184.219 105.468 184.171 105.468 184.075C105.468 183.979 106.763 183.931 108.347 183.931C109.93 183.931 111.226 183.979 111.226 184.075Z" fill="#263238"/>
<path d="M122.789 184.075C122.789 184.123 121.494 184.219 119.91 184.219C118.327 184.219 117.031 184.171 117.031 184.075C117.031 183.979 118.327 183.931 119.91 183.931C121.494 183.931 122.789 183.979 122.789 184.075Z" fill="#263238"/>
<path d="M134.354 184.075C134.354 184.123 133.058 184.219 131.475 184.219C129.891 184.219 128.596 184.171 128.596 184.075C128.596 183.979 129.891 183.931 131.475 183.931C133.058 183.931 134.354 183.979 134.354 184.075Z" fill="#263238"/>
<path d="M145.965 184.075C145.965 184.123 144.669 184.219 143.086 184.219C141.503 184.219 140.207 184.171 140.207 184.075C140.207 183.979 141.503 183.931 143.086 183.931C144.669 183.931 145.965 183.979 145.965 184.075Z" fill="#263238"/>
<path d="M157.529 184.075C157.529 184.123 156.234 184.219 154.65 184.219C153.067 184.219 151.771 184.171 151.771 184.075C151.771 183.979 153.067 183.931 154.65 183.931C156.234 183.931 157.529 183.979 157.529 184.075Z" fill="#263238"/>
<path d="M169.093 184.075C169.093 184.123 167.797 184.219 166.214 184.219C164.63 184.219 163.335 184.171 163.335 184.075C163.335 183.979 164.63 183.931 166.214 183.931C167.797 183.931 169.093 183.979 169.093 184.075Z" fill="#263238"/>
<path d="M180.657 184.075C180.657 184.123 179.362 184.219 177.778 184.219C176.195 184.219 174.899 184.171 174.899 184.075C174.899 183.979 176.195 183.931 177.778 183.931C179.362 183.931 180.657 183.979 180.657 184.075Z" fill="#263238"/>
<path d="M192.222 184.075C192.222 184.123 190.926 184.219 189.343 184.219C187.759 184.219 186.464 184.171 186.464 184.075C186.464 183.979 187.759 183.931 189.343 183.931C190.926 183.931 192.222 183.979 192.222 184.075Z" fill="#263238"/>
<path d="M203.833 184.075C203.833 184.123 202.538 184.219 200.954 184.219C199.371 184.219 198.075 184.171 198.075 184.075C198.075 183.979 199.371 183.931 200.954 183.931C202.538 183.931 203.833 183.979 203.833 184.075Z" fill="#263238"/>
<path d="M215.398 184.075C215.398 184.123 214.102 184.219 212.519 184.219C210.935 184.219 209.64 184.171 209.64 184.075C209.64 183.979 210.935 183.931 212.519 183.931C214.102 183.931 215.398 183.979 215.398 184.075Z" fill="#263238"/>
<path d="M224.034 184.075C224.034 184.123 223.41 184.219 222.595 184.219C221.779 184.219 221.155 184.171 221.155 184.075C221.155 183.979 221.779 183.931 222.595 183.931C223.41 183.931 224.034 183.979 224.034 184.075Z" fill="#263238"/>
<g opacity="0.3">
<path opacity="0.3" d="M136.512 147.461C136.512 147.461 136.56 152.26 135.072 155.139C133.633 158.018 133.153 159.17 130.082 160.274C127.011 161.377 88.3848 165.648 88.3848 165.648V152.596L136.512 147.461Z" fill="black"/>
</g>
<g opacity="0.3">
<path opacity="0.3" d="M135.841 129.371C135.841 129.371 136.273 124.476 123.989 122.652C109.93 120.589 88.4336 117.998 88.4336 117.998V127.259L135.841 129.371Z" fill="black"/>
</g>
<path d="M89.6819 156.579H129.652C133.443 156.579 136.514 153.508 136.514 149.717V131.818C136.514 128.027 133.443 124.956 129.652 124.956H89.6819C85.8912 124.956 82.8203 128.027 82.8203 131.818V149.717C82.8203 153.508 85.8912 156.579 89.6819 156.579Z" fill="#1EAD5E"/>
<path d="M89.6809 156.579C89.6809 156.579 89.537 156.579 89.2491 156.579C88.9612 156.579 88.5773 156.531 88.0495 156.435C87.5217 156.339 86.8979 156.099 86.2261 155.715C85.5544 155.331 84.8346 154.755 84.2108 153.988C83.5871 153.172 83.0592 152.164 82.8673 150.964C82.7234 150.341 82.7713 149.717 82.7713 149.045C82.7713 148.373 82.7713 147.701 82.7713 146.982C82.7713 144.102 82.7713 140.887 82.7713 137.288C82.7713 135.513 82.7713 133.593 82.7713 131.626C82.8193 129.659 83.779 127.595 85.5064 126.3C86.3701 125.676 87.3777 125.196 88.4814 125.004C89.0092 124.908 89.585 124.86 90.1608 124.908C90.7366 124.908 91.2644 124.908 91.8402 124.908C94.0954 124.908 96.3986 124.908 98.7977 124.908C108.298 124.908 118.759 124.908 129.699 124.908C130.419 124.908 131.09 125.004 131.762 125.196C132.434 125.388 133.058 125.724 133.634 126.108C134.209 126.492 134.689 126.971 135.169 127.499C135.601 128.027 135.937 128.651 136.225 129.275C136.465 129.899 136.609 130.57 136.705 131.242C136.752 131.914 136.752 132.586 136.752 133.258C136.752 134.553 136.752 135.897 136.752 137.192C136.752 139.784 136.752 142.327 136.752 144.822C136.752 146.07 136.752 147.317 136.752 148.517C136.752 149.141 136.752 149.717 136.752 150.341C136.752 150.629 136.657 150.964 136.657 151.252C136.561 151.54 136.513 151.828 136.417 152.116C135.649 154.419 133.634 156.147 131.426 156.675C131.138 156.771 130.851 156.771 130.563 156.819C130.275 156.819 129.987 156.867 129.699 156.867C129.123 156.867 128.595 156.867 128.068 156.867C126.964 156.867 125.908 156.867 124.853 156.867C120.63 156.867 116.695 156.867 113.097 156.867C105.899 156.867 100.093 156.819 96.0627 156.819C94.0474 156.819 92.5119 156.819 91.4563 156.819C90.9285 156.819 90.5446 156.819 90.2567 156.819C89.8249 156.579 89.6809 156.579 89.6809 156.579C89.6809 156.579 89.8249 156.579 90.1128 156.579C90.4007 156.579 90.7846 156.579 91.3124 156.579C92.368 156.579 93.9514 156.579 95.9188 156.579C99.9493 156.579 105.755 156.579 112.953 156.531C116.552 156.531 120.486 156.531 124.709 156.531C125.764 156.531 126.82 156.531 127.924 156.531C129.027 156.483 130.131 156.627 131.186 156.339C133.346 155.859 135.265 154.179 136.033 151.924C136.465 150.82 136.369 149.621 136.369 148.373C136.369 147.174 136.369 145.926 136.369 144.678C136.369 142.183 136.369 139.64 136.369 137.048C136.369 135.753 136.369 134.457 136.369 133.114C136.369 132.442 136.369 131.77 136.321 131.146C136.225 130.522 136.081 129.851 135.841 129.275C135.601 128.651 135.265 128.075 134.833 127.595C134.401 127.067 133.921 126.635 133.394 126.252C132.818 125.868 132.242 125.58 131.618 125.388C130.994 125.196 130.323 125.1 129.651 125.1C118.663 125.1 108.25 125.1 98.7498 125.1C96.3506 125.1 94.0474 125.1 91.7922 125.1C91.2164 125.1 90.6886 125.1 90.1128 125.1C89.537 125.1 89.0092 125.1 88.4814 125.196C87.4257 125.388 86.4181 125.82 85.6024 126.444C83.9229 127.691 82.9633 129.707 82.9153 131.626C82.8673 133.593 82.9153 135.465 82.9153 137.24C82.9153 140.839 82.9153 144.102 82.9153 146.934C82.9153 147.653 82.9153 148.325 82.9153 148.997C82.9153 149.669 82.9153 150.293 83.0113 150.916C83.2032 152.116 83.731 153.124 84.3548 153.94C84.9786 154.755 85.6503 155.283 86.3221 155.667C86.9939 156.051 87.6177 156.291 88.1455 156.387C88.6733 156.531 89.0572 156.579 89.3451 156.579C89.537 156.579 89.6809 156.579 89.6809 156.579Z" fill="#263238"/>
<path d="M120.342 153.46C126.702 153.46 131.858 148.304 131.858 141.943C131.858 135.583 126.702 130.426 120.342 130.426C113.982 130.426 108.826 135.583 108.826 141.943C108.826 148.304 113.982 153.46 120.342 153.46Z" fill="#263238"/>
<path d="M300.328 68.2365C301.384 79.8972 292.747 90.2142 281.039 91.2219C269.379 92.2776 259.063 83.6881 258.007 72.0275C256.952 60.3668 265.589 50.0978 277.297 49.0421C288.956 47.9864 299.273 56.6239 300.328 68.2365Z" fill="#1EAD5E"/>
<g opacity="0.3">
<path opacity="0.3" d="M295.243 68.1885C295.147 68.1885 295.003 67.5167 294.667 66.2691C294.283 65.0694 293.659 63.3419 292.364 61.4705C291.74 60.5587 290.924 59.599 289.965 58.7353C289.005 57.8715 287.853 57.0078 286.558 56.336C285.886 56.0001 285.214 55.7121 284.494 55.4242C283.775 55.1843 283.007 54.9444 282.239 54.8004C281.472 54.6564 280.656 54.5605 279.84 54.5125C279.024 54.4645 278.161 54.5125 277.345 54.6085C276.529 54.7044 275.666 54.8964 274.898 55.0883C274.082 55.3282 273.362 55.6162 272.643 55.9521C271.923 56.288 271.251 56.6719 270.579 57.1037C269.956 57.5356 269.332 57.9675 268.804 58.4473C267.7 59.4071 266.789 60.5107 266.069 61.5664C265.349 62.6701 264.821 63.7738 264.39 64.7815C263.574 66.8929 263.382 68.7164 263.286 69.964C263.238 71.2117 263.238 71.9314 263.142 71.9314C263.094 71.9314 262.854 71.2596 262.806 69.964C262.758 68.6684 262.806 66.7489 263.574 64.4936C263.958 63.3899 264.485 62.1903 265.205 60.9906C265.925 59.791 266.885 58.6393 268.036 57.5836C268.612 57.0557 269.236 56.5279 269.956 56.096C270.627 55.6162 271.347 55.1843 272.163 54.8484C272.931 54.4645 273.746 54.1766 274.61 53.9367C275.474 53.6967 276.337 53.5048 277.249 53.4088C278.161 53.3128 279.072 53.2648 279.936 53.3128C280.8 53.3608 281.711 53.4568 282.527 53.6487C283.391 53.7927 284.159 54.0326 284.974 54.3205C285.742 54.6085 286.462 54.9444 287.182 55.3282C288.573 56.096 289.773 57.0078 290.78 57.9675C291.788 58.9272 292.556 59.9829 293.179 60.9906C294.427 63.006 294.955 64.8775 295.195 66.1251C295.339 67.4687 295.291 68.1885 295.243 68.1885Z" fill="black"/>
</g>
<g opacity="0.3">
<g opacity="0.3">
<g opacity="0.3">
<g opacity="0.3">
<g opacity="0.3">
<path opacity="0.3" d="M281.726 79.4304L282.014 82.2136L279.519 82.4535L279.231 79.7183C276.736 79.8143 274.289 79.2864 272.801 78.3747L273.857 75.1596C275.2 75.9754 277.072 76.4552 278.895 76.4552L278.463 72.2804C275.632 71.8966 272.417 71.2727 272.033 67.7218C271.746 65.0825 273.425 62.5873 277.36 61.7235L277.072 58.9403L279.567 58.7004L279.855 61.4356C281.726 61.3876 283.645 61.7235 285.085 62.4433L284.173 65.6584C282.83 65.0825 281.486 64.7946 280.191 64.7466L280.622 69.0174C283.453 69.4013 286.62 69.9771 287.004 73.5281C287.292 76.0713 285.613 78.5186 281.726 79.4304ZM278.079 68.6335L277.695 65.0825C276.4 65.5144 275.968 66.2822 276.016 67.1459C276.112 67.9617 276.928 68.3936 278.079 68.6335ZM283.022 74.1999C282.926 73.3361 282.158 72.9043 281.054 72.6643L281.39 76.1193C282.59 75.7354 283.07 75.0157 283.022 74.1999Z" fill="black"/>
</g>
</g>
</g>
</g>
</g>
<path d="M263.045 71.6434C263.045 71.6434 263.045 71.6914 263.093 71.7874C263.093 71.8834 263.141 72.0273 263.141 72.1713C263.189 72.3632 263.189 72.5552 263.237 72.7951C263.285 73.035 263.333 73.3229 263.381 73.6108C263.669 74.8585 264.245 76.634 265.444 78.6014C266.02 79.5611 266.836 80.5688 267.748 81.5285C267.987 81.7685 268.227 81.9604 268.515 82.2003C268.659 82.2963 268.755 82.4403 268.899 82.5362C269.043 82.6322 269.187 82.7282 269.331 82.8721C269.619 83.0641 269.907 83.304 270.195 83.496C270.531 83.6879 270.818 83.8799 271.154 84.0718C272.498 84.7916 273.937 85.4154 275.569 85.7993C277.152 86.1352 278.88 86.2792 280.607 86.1352C282.334 85.9433 284.014 85.5114 285.501 84.8876C287.037 84.2637 288.332 83.352 289.532 82.3923C289.82 82.1524 290.108 81.9124 290.348 81.6245C290.636 81.3846 290.827 81.0967 291.115 80.8567C291.259 80.7128 291.355 80.6168 291.499 80.4728C291.595 80.3289 291.691 80.1849 291.835 80.041C292.027 79.7531 292.267 79.5131 292.459 79.2252C293.179 78.1215 293.802 77.0179 294.186 75.9142C295.002 73.8028 295.242 71.9313 295.29 70.6357C295.338 70.2998 295.29 70.0119 295.29 69.772C295.29 69.532 295.29 69.3401 295.29 69.1481C295.29 69.0042 295.29 68.8602 295.29 68.7643C295.29 68.6683 295.29 68.6203 295.29 68.6203C295.29 68.6203 295.29 68.6683 295.29 68.7643C295.29 68.8602 295.29 69.0042 295.338 69.1481C295.338 69.3401 295.338 69.532 295.386 69.772C295.386 70.0119 295.434 70.2998 295.386 70.6357C295.386 71.9313 295.146 73.8028 294.33 75.9622C293.946 77.0658 293.323 78.1695 292.603 79.3212C292.411 79.6091 292.171 79.849 291.979 80.1369C291.883 80.2809 291.787 80.4249 291.643 80.5688C291.499 80.7128 291.403 80.8567 291.259 80.9527C291.019 81.1926 290.78 81.4806 290.492 81.7685C290.204 82.0084 289.916 82.2483 289.628 82.5362C288.428 83.496 287.085 84.4077 285.549 85.0795C284.014 85.7033 282.334 86.1832 280.559 86.3751C278.784 86.5191 277.056 86.3751 275.425 86.0392C273.793 85.7033 272.306 85.0315 270.962 84.3117C270.627 84.1198 270.339 83.9278 270.003 83.7359C269.667 83.544 269.427 83.304 269.139 83.0641C268.995 82.9681 268.851 82.8242 268.707 82.7282C268.563 82.6322 268.419 82.4883 268.323 82.3923C268.083 82.1524 267.796 81.9124 267.556 81.6725C266.644 80.6648 265.828 79.7051 265.252 78.6974C264.053 76.7299 263.477 74.9065 263.237 73.6588C263.141 73.3709 263.141 73.083 263.093 72.7951C263.045 72.5552 263.045 72.3632 262.997 72.1713C262.997 72.0273 262.949 71.8834 262.949 71.7874C263.045 71.6914 263.045 71.6434 263.045 71.6434Z" fill="#263238"/>
<path d="M270.386 130.906C267.411 137.049 260.069 139.592 253.928 136.617C247.786 133.642 245.195 126.3 248.17 120.157C251.145 114.015 258.486 111.472 264.628 114.447C270.77 117.374 273.361 124.764 270.386 130.906Z" fill="#1EAD5E"/>
<g opacity="0.3">
<path opacity="0.3" d="M267.891 129.323C267.843 129.323 267.987 128.891 268.179 128.219C268.371 127.499 268.562 126.444 268.467 125.148C268.419 124.524 268.323 123.804 268.083 123.085C267.843 122.365 267.555 121.597 267.075 120.877C266.835 120.493 266.595 120.157 266.307 119.821C266.019 119.486 265.731 119.15 265.348 118.862C265.012 118.574 264.628 118.286 264.244 117.998C263.86 117.758 263.428 117.518 262.948 117.326C262.517 117.134 262.037 116.99 261.557 116.846C261.077 116.702 260.645 116.654 260.165 116.606C259.686 116.558 259.254 116.558 258.822 116.558C258.39 116.558 257.958 116.606 257.526 116.702C256.711 116.846 255.895 117.134 255.223 117.422C254.551 117.758 253.928 118.142 253.448 118.526C252.44 119.342 251.768 120.205 251.336 120.781C250.905 121.405 250.713 121.741 250.665 121.741C250.617 121.741 250.713 121.309 251.097 120.637C251.432 119.965 252.056 119.054 253.112 118.142C253.64 117.71 254.263 117.278 254.983 116.894C255.703 116.51 256.519 116.222 257.43 116.031C257.862 115.935 258.342 115.887 258.822 115.839C259.302 115.791 259.782 115.839 260.309 115.887C260.789 115.935 261.317 116.031 261.797 116.175C262.277 116.318 262.804 116.462 263.284 116.702C263.764 116.942 264.244 117.182 264.676 117.47C265.108 117.758 265.492 118.046 265.875 118.382C266.259 118.718 266.595 119.054 266.883 119.438C267.171 119.821 267.459 120.205 267.699 120.589C268.179 121.357 268.467 122.173 268.706 122.989C268.898 123.756 268.994 124.524 269.042 125.196C269.09 126.587 268.802 127.643 268.514 128.363C268.131 128.987 267.891 129.371 267.891 129.323Z" fill="black"/>
</g>
<g opacity="0.3">
<g opacity="0.3">
<g opacity="0.3">
<g opacity="0.3">
<g opacity="0.3">
<path opacity="0.3" d="M257.814 131.05L257.142 132.538L255.799 131.914L256.471 130.474C255.175 129.802 254.119 128.795 253.64 127.883L255.127 126.587C255.559 127.403 256.375 128.171 257.286 128.747L258.294 126.539C256.998 125.484 255.559 124.236 256.471 122.365C257.142 120.973 258.726 120.205 260.933 120.973L261.605 119.485L262.948 120.109L262.277 121.549C263.236 122.077 264.1 122.796 264.58 123.612L263.14 124.956C262.661 124.236 262.037 123.708 261.413 123.324L260.357 125.58C261.653 126.587 263.044 127.835 262.181 129.706C261.557 131.05 260.021 131.77 257.814 131.05ZM259.206 124.572L260.069 122.7C259.302 122.557 258.822 122.796 258.63 123.228C258.438 123.66 258.678 124.092 259.206 124.572ZM259.973 128.843C260.165 128.363 259.925 127.931 259.446 127.499L258.582 129.323C259.35 129.467 259.782 129.227 259.973 128.843Z" fill="black"/>
</g>
</g>
</g>
</g>
</g>
<path d="M250.809 121.453C250.809 121.453 250.665 121.837 250.425 122.557C250.185 123.276 249.945 124.332 249.993 125.628C249.993 126.3 250.089 127.019 250.281 127.787C250.473 128.555 250.761 129.323 251.193 130.09C251.624 130.858 252.152 131.578 252.872 132.25C253.544 132.874 254.359 133.45 255.271 133.929C256.183 134.361 257.142 134.649 258.054 134.745C259.014 134.889 259.925 134.841 260.789 134.697C261.653 134.553 262.421 134.313 263.14 133.977C263.86 133.641 264.484 133.258 264.964 132.874C266.019 132.058 266.691 131.194 267.075 130.57C267.459 129.947 267.651 129.563 267.699 129.611C267.699 129.611 267.651 129.707 267.555 129.899C267.459 130.09 267.363 130.33 267.123 130.666C266.739 131.29 266.067 132.202 265.012 133.018C264.484 133.45 263.86 133.833 263.14 134.169C262.421 134.505 261.605 134.793 260.741 134.937C259.878 135.081 258.918 135.129 257.958 134.985C256.998 134.841 256.039 134.553 255.079 134.121C254.167 133.641 253.304 133.066 252.632 132.394C251.912 131.722 251.384 130.954 250.905 130.186C250.473 129.419 250.185 128.603 249.993 127.835C249.801 127.067 249.705 126.348 249.705 125.628C249.705 124.284 249.993 123.228 250.233 122.509C250.329 122.173 250.473 121.885 250.569 121.693C250.761 121.549 250.809 121.453 250.809 121.453Z" fill="#263238"/>
<path d="M66.6494 129.131C68.2329 140.119 60.6035 150.34 49.6154 151.924C38.6272 153.508 28.4068 145.926 26.7754 134.937C25.1919 123.948 32.8213 113.727 43.8094 112.143C54.8456 110.512 65.066 118.142 66.6494 129.131Z" fill="#1EAD5E"/>
<g opacity="0.3">
<path opacity="0.3" d="M61.8516 129.323C61.7556 129.323 61.6117 128.699 61.1798 127.547C60.748 126.443 60.0762 124.812 58.7327 123.132C58.0609 122.317 57.2932 121.453 56.3335 120.685C55.3738 119.917 54.2702 119.197 52.9747 118.622C52.3509 118.334 51.6791 118.094 50.9594 117.902C50.2396 117.71 49.5199 117.518 48.8001 117.422C48.0324 117.326 47.2647 117.278 46.497 117.278C45.7292 117.278 44.9135 117.374 44.1458 117.518C43.3781 117.662 42.6103 117.854 41.8426 118.094C41.1228 118.334 40.4031 118.67 39.7313 119.006C39.0596 119.341 38.4358 119.773 37.86 120.205C37.2842 120.637 36.7564 121.117 36.2286 121.597C35.2209 122.556 34.4532 123.66 33.7814 124.716C33.1576 125.772 32.6778 126.875 32.3899 127.883C31.7181 129.898 31.6222 131.674 31.6222 132.873C31.6222 134.073 31.7181 134.745 31.6222 134.745C31.5742 134.745 31.3343 134.121 31.1903 132.873C31.0464 131.674 31.0464 129.802 31.6222 127.643C31.9101 126.587 32.3419 125.388 32.9657 124.236C33.5895 123.084 34.4532 121.933 35.4608 120.829C35.9886 120.301 36.5644 119.773 37.1882 119.293C37.812 118.814 38.4838 118.382 39.2035 117.998C39.9233 117.614 40.691 117.278 41.4587 116.99C42.2744 116.702 43.0902 116.51 43.9538 116.318C44.8175 116.174 45.6333 116.078 46.497 116.078C47.3607 116.078 48.1764 116.126 48.9921 116.222C49.8078 116.318 50.5755 116.51 51.3433 116.75C52.111 116.99 52.7828 117.278 53.4545 117.566C54.798 118.19 55.9976 119.006 56.9573 119.869C57.9649 120.733 58.7807 121.693 59.4044 122.604C60.7 124.428 61.3238 126.155 61.6117 127.355C61.8996 128.651 61.8996 129.323 61.8516 129.323Z" fill="black"/>
</g>
<g opacity="0.3">
<g opacity="0.3">
<g opacity="0.3">
<g opacity="0.3">
<g opacity="0.3">
<path opacity="0.3" d="M49.759 140.839L50.1908 143.478L47.8396 143.862L47.4078 141.271C45.0566 141.511 42.7054 141.127 41.218 140.311L42.0337 137.24C43.3292 137.912 45.1526 138.296 46.88 138.2L46.2562 134.265C43.5212 134.025 40.4982 133.641 39.9224 130.282C39.5386 127.787 40.9781 125.34 44.6728 124.332L44.2409 121.693L46.5921 121.309L47.0239 123.9C48.7993 123.756 50.6227 123.948 52.0622 124.572L51.3424 127.643C50.0469 127.163 48.7513 126.971 47.5518 126.971L48.1755 131.002C50.9106 131.194 53.8855 131.626 54.4613 134.937C54.8452 137.384 53.4057 139.784 49.759 140.839ZM45.7284 130.81L45.2006 127.451C44.001 127.931 43.6171 128.699 43.7131 129.467C43.857 130.282 44.6248 130.618 45.7284 130.81ZM50.6707 135.801C50.5267 134.985 49.807 134.649 48.7033 134.457L49.2312 137.72C50.3828 137.288 50.8146 136.568 50.6707 135.801Z" fill="black"/>
</g>
</g>
</g>
</g>
</g>
<path d="M31.5254 134.265C31.5254 134.265 31.5254 134.313 31.5734 134.361C31.5734 134.457 31.6214 134.553 31.6693 134.697C31.7173 134.841 31.7653 135.033 31.8133 135.273C31.8613 135.513 31.9093 135.753 32.0052 136.04C32.3411 137.192 32.9649 138.872 34.2125 140.647C34.8362 141.559 35.6519 142.423 36.5636 143.286C36.8035 143.478 37.0435 143.67 37.3314 143.91C37.4753 144.006 37.5713 144.102 37.7152 144.198C37.8592 144.294 38.0031 144.39 38.1471 144.486C38.435 144.678 38.7229 144.87 39.0108 145.062C39.2987 145.206 39.6346 145.398 39.9225 145.542C41.218 146.166 42.6095 146.693 44.193 146.933C45.7284 147.173 47.3598 147.221 48.9913 146.981C50.6227 146.741 52.1582 146.214 53.5497 145.542C54.9412 144.87 56.1408 143.958 57.1964 142.998C57.4363 142.759 57.6762 142.519 57.9641 142.231C58.2041 141.991 58.396 141.703 58.6359 141.463C58.7319 141.319 58.8278 141.223 58.9718 141.079C59.0678 140.935 59.1637 140.791 59.2597 140.647C59.4516 140.359 59.6435 140.119 59.7875 139.831C60.4113 138.728 60.9391 137.672 61.275 136.616C61.9467 134.553 62.0907 132.777 62.0427 131.578C62.0427 131.29 62.0427 131.002 61.9947 130.762C61.9947 130.522 61.9467 130.33 61.9467 130.186C61.9467 130.042 61.9467 129.898 61.9467 129.802C61.9467 129.706 61.9467 129.658 61.9467 129.658C61.9467 129.658 61.9467 129.706 61.9947 129.802C61.9947 129.898 62.0427 129.994 62.0427 130.186C62.0427 130.33 62.0907 130.57 62.0907 130.762C62.1387 131.002 62.1387 131.242 62.1387 131.578C62.1867 132.777 62.0907 134.601 61.4189 136.664C61.083 137.72 60.6032 138.824 59.9314 139.927C59.7395 140.215 59.5476 140.455 59.4036 140.743C59.3077 140.887 59.2117 141.031 59.1157 141.175C59.0198 141.319 58.9238 141.415 58.7799 141.559C58.5399 141.799 58.348 142.087 58.1081 142.375C57.8682 142.615 57.6283 142.902 57.3404 143.142C56.2847 144.102 55.0372 145.062 53.6457 145.734C52.2062 146.405 50.6707 146.933 48.9913 147.221C47.3119 147.461 45.6804 147.413 44.097 147.173C42.5135 146.933 41.0741 146.357 39.7785 145.734C39.4426 145.542 39.1547 145.398 38.8188 145.206C38.5309 145.014 38.243 144.822 37.9551 144.63C37.8112 144.534 37.6672 144.438 37.5233 144.342C37.3793 144.246 37.2834 144.15 37.1394 144.006C36.8995 143.814 36.6116 143.574 36.3717 143.382C35.46 142.519 34.6443 141.607 34.0205 140.695C32.773 138.872 32.1492 137.192 31.8613 135.992C31.7653 135.705 31.7173 135.417 31.6693 135.225C31.6214 134.985 31.5734 134.793 31.5734 134.649C31.5254 134.505 31.5254 134.361 31.5254 134.265C31.5254 134.265 31.5254 134.313 31.5254 134.265Z" fill="#263238"/>
<path d="M320.001 192.568C320.001 192.616 248.362 192.712 159.977 192.712C71.6399 192.712 0.000976562 192.664 0.000976562 192.568C0.000976562 192.472 71.6399 192.424 160.025 192.424C248.362 192.472 320.001 192.52 320.001 192.568Z" fill="#263238"/>
<path d="M245.434 102.45C245.434 102.45 245.386 99.2354 245.242 99.2354L238.669 100.675C238.621 101.107 237.757 106.337 237.901 106.817L245.29 108.881C245.338 108.881 245.434 102.594 245.434 102.45Z" fill="#EEBC93"/>
<path d="M245.435 108.401C245.435 108.401 245.435 108.353 245.483 108.257C245.579 107.537 245.531 104.418 245.147 104.274C244.715 104.13 243.659 104.37 243.564 104.802C243.468 105.234 243.755 108.737 243.755 108.737C243.755 108.737 243.851 109.313 244.763 109.409C245.291 109.457 245.435 108.401 245.435 108.401Z" fill="#EEBC93"/>
<path d="M243.563 109.505C243.563 109.505 243.563 109.457 243.611 109.361C243.707 108.641 243.659 105.522 243.275 105.378C242.843 105.234 241.787 105.474 241.691 105.906C241.595 106.338 241.883 109.841 241.883 109.841C241.883 109.841 241.979 110.416 242.891 110.512C243.419 110.608 243.563 109.505 243.563 109.505Z" fill="#EEBC93"/>
<path d="M241.74 110.08C241.74 110.08 241.74 110.032 241.788 109.936C241.884 109.217 241.836 106.098 241.452 105.954C241.02 105.81 239.964 106.05 239.868 106.481C239.772 106.913 240.06 110.416 240.06 110.416C240.06 110.416 240.156 110.992 241.068 111.088C241.596 111.184 241.74 110.08 241.74 110.08Z" fill="#EEBC93"/>
<path d="M239.916 110.608C239.916 110.608 239.916 110.56 239.964 110.464C240.06 109.745 240.012 106.626 239.628 106.482C239.197 106.338 238.141 106.578 238.045 107.009C237.949 107.441 238.237 110.944 238.237 110.944C238.237 110.944 238.333 111.52 239.245 111.616C239.772 111.712 239.916 110.608 239.916 110.608Z" fill="#EEBC93"/>
<path d="M243.515 105.714C243.563 105.714 243.611 106.386 243.659 107.249C243.707 108.065 243.659 108.737 243.611 108.737C243.563 108.737 243.515 108.065 243.467 107.201C243.467 106.386 243.467 105.714 243.515 105.714Z" fill="#EB996E"/>
<path d="M241.691 105.666C241.739 105.666 241.835 106.625 241.883 107.825C241.931 109.025 241.931 109.984 241.883 109.984C241.835 109.984 241.739 109.025 241.691 107.825C241.643 106.673 241.643 105.714 241.691 105.666Z" fill="#EB996E"/>
<g opacity="0.78">
<g opacity="0.78">
<g opacity="0.78">
<g opacity="0.78">
<path opacity="0.78" d="M239.82 105.858C239.868 105.858 239.964 106.817 240.012 108.017C240.06 109.217 240.06 110.176 240.012 110.176C239.964 110.176 239.868 109.217 239.82 108.017C239.772 106.817 239.772 105.858 239.82 105.858Z" fill="#EB996E"/>
</g>
</g>
</g>
</g>
<path d="M238.669 100.819C238.669 100.819 236.078 106.721 236.462 107.105C236.846 107.489 238.045 108.017 238.045 108.017L238.669 100.819Z" fill="#EEBC93"/>
<path d="M224.274 21.6899L222.354 43.7635L211.318 42.8997C211.27 41.6041 211.318 36.6136 211.318 36.6136C211.318 36.6136 206.712 35.8938 206.664 31.2871C206.616 29.0317 206.952 24.4251 207.288 20.2983C207.671 15.6916 211.654 12.2366 216.26 12.4766C221.107 12.7165 224.705 16.8913 224.274 21.6899Z" fill="#EEBC93"/>
<path d="M211.366 36.5177C211.366 36.5177 214.293 36.7576 217.364 34.7902C217.364 34.7902 215.925 38.1012 211.366 37.6693V36.5177Z" fill="#EB996E"/>
<path d="M225.281 18.8587C225.041 21.1141 224.418 23.8973 224.226 26.2006C224.226 26.3925 224.178 26.6325 224.082 26.8244C223.746 27.2563 222.978 28.216 222.594 27.8321C221.635 26.9204 221.251 24.4251 221.059 23.0815C220.867 21.7859 220.915 20.4423 220.723 19.1466C220.723 19.0987 220.723 19.0987 220.723 19.0507C220.579 18.1389 220.099 17.2752 219.379 16.6993C219.187 16.6034 219.044 16.4594 218.852 16.4114C217.508 15.9316 215.253 16.7953 213.909 17.3232C213.238 17.5631 212.566 17.899 211.846 18.1869C210.311 18.9067 208.819 19.8184 207.428 18.8587C204.63 18.8587 203.915 14.7619 204.299 13.5622C205.259 10.3471 211.558 9.83734 216.74 11.085C221.827 12.2366 225.809 14.2521 225.281 18.8587Z" fill="#1D2126"/>
<path d="M222.739 23.7534C222.835 23.7054 225.905 22.8416 225.81 25.9607C225.714 29.1278 222.595 28.36 222.595 28.264C222.547 28.1681 222.739 23.7534 222.739 23.7534Z" fill="#EEBC93"/>
<path d="M203.258 176.589L205.321 185.994C205.321 185.994 196.444 191.225 196.636 193L215.013 189.689L212.422 174.909L203.258 176.589Z" fill="#263238"/>
<path d="M215.013 189.689L214.677 188.201L197.163 191.944C197.163 191.944 196.396 192.424 196.587 193L215.013 189.689Z" fill="#455A64"/>
<path d="M224.13 177.597L224.417 187.194C224.417 187.194 214.725 190.745 214.629 192.52L233.294 192.616L233.438 177.597H224.13Z" fill="#263238"/>
<g opacity="0.6">
<g opacity="0.6">
<g opacity="0.6">
<g opacity="0.6">
<g opacity="0.6">
<g opacity="0.6">
<path opacity="0.6" d="M233.342 192.616L233.294 191.081L215.397 191.561C215.397 191.561 214.581 191.897 214.677 192.521L233.342 192.616Z" fill="#455A64"/>
</g>
</g>
</g>
</g>
</g>
</g>
<path d="M202.25 184.65C202.25 184.65 192.701 137.672 192.653 136.76L209.735 127.739L216.357 182.827L202.25 184.65Z" fill="#263238"/>
<path d="M223.746 186.234L210.503 104.85V87.2869L228.545 88.9664C228.784 89.6382 234.686 186.33 234.686 186.33L232.815 186.234H223.746Z" fill="#263238"/>
<path d="M200.139 86.0392L192.653 136.76L209.399 132.682L216.261 87.6707L200.139 86.0392Z" fill="#263238"/>
<path d="M210.551 104.226C210.503 104.226 211.271 109.504 212.278 115.982C213.286 122.46 214.198 127.691 214.246 127.691C214.294 127.691 213.526 122.412 212.518 115.934C211.463 109.456 210.599 104.226 210.551 104.226Z" fill="#455A64"/>
<path d="M223.603 186.09C223.603 186.09 223.746 186.138 224.034 186.186C224.322 186.234 224.706 186.282 225.234 186.282C226.242 186.378 227.633 186.426 229.169 186.474C230.704 186.522 232.096 186.474 233.103 186.426C233.583 186.426 234.015 186.378 234.303 186.33C234.591 186.282 234.735 186.282 234.735 186.282C234.735 186.234 234.111 186.234 233.103 186.234C232.096 186.234 230.704 186.234 229.169 186.234C227.633 186.186 226.242 186.138 225.234 186.138C224.226 186.042 223.603 186.042 223.603 186.09Z" fill="#455A64"/>
<path d="M202.25 184.651C202.25 184.651 202.442 184.651 202.826 184.603C203.21 184.555 203.737 184.507 204.361 184.459C205.657 184.315 207.432 184.075 209.351 183.835C211.319 183.595 213.046 183.355 214.342 183.163C214.966 183.067 215.445 182.971 215.829 182.923C216.165 182.875 216.405 182.827 216.357 182.827C216.357 182.827 216.165 182.827 215.781 182.827C215.445 182.875 214.918 182.923 214.246 182.971C212.95 183.115 211.175 183.355 209.256 183.595C207.288 183.835 205.561 184.075 204.265 184.267C203.642 184.363 203.162 184.459 202.778 184.507C202.442 184.603 202.25 184.603 202.25 184.651Z" fill="#455A64"/>
<path d="M177.059 56.0483L187.855 64.2539C187.855 64.2539 197.884 47.1229 198.795 46.0672C199.659 45.0115 201.914 43.8598 201.914 43.8598L200.667 65.7894C200.667 65.7894 195.245 79.6574 187.807 78.8896C182.097 78.3138 172.261 63.2462 172.261 63.2462L177.059 56.0483Z" fill="#D8EEE0"/>
<g opacity="0.2">
<g opacity="0.2">
<g opacity="0.2">
<path opacity="0.2" d="M187.664 63.9658C186.176 66.2691 185.745 69.2442 186.56 71.8355C186.656 72.1234 186.752 72.3633 186.992 72.5073C187.376 72.6992 187.856 72.5073 188.048 72.1234C188.288 71.7875 188.288 71.3076 188.336 70.9237C188.528 71.3076 188.768 71.7395 189.151 71.9794C189.535 72.2194 190.063 72.2674 190.351 71.9314C190.687 71.5476 190.495 70.9237 190.303 70.4439C189.391 68.3805 188.48 66.2691 187.568 64.2057" fill="black"/>
</g>
</g>
</g>
<path d="M224.466 41.7963L222.835 38.5812H211.031L209.207 42.2282L201.914 43.8597L198.795 90.8381C198.795 91.4139 198.939 92.0377 199.227 92.5656L227.873 93.6693L229.024 94.1491C230.032 93.5253 229.408 90.8861 229.408 89.6864L229.792 66.4132L235.454 47.8425L224.466 41.7963Z" fill="#D8EEE0"/>
<g opacity="0.2">
<g opacity="0.2">
<g opacity="0.2">
<path opacity="0.2" d="M212.23 43.4279C212.902 42.7561 213.622 42.0363 214.294 41.3645C215.061 43.236 215.877 45.1075 216.645 47.0269C219.332 45.4434 221.923 43.6679 224.322 41.6525C221.683 42.5162 219.044 43.332 216.405 44.1957C215.733 42.4202 215.061 40.6447 214.39 38.8693C213.91 40.5008 213.238 42.0363 212.374 43.4759" fill="black"/>
</g>
</g>
</g>
<path d="M245.482 100.675L237.757 101.059V78.8896L229.792 66.3173L235.454 47.7466C236.606 48.2265 245.434 70.3001 247.642 76.2984C247.978 77.1621 248.122 78.0738 248.074 78.9856L245.482 100.675Z" fill="#D8EEE0"/>
<path d="M201.914 53.5529C202.01 53.5529 201.626 58.1115 201.05 63.6779C200.474 69.2923 199.994 73.803 199.898 73.803C199.803 73.803 200.186 69.2443 200.762 63.6779C201.29 58.0635 201.818 53.5529 201.914 53.5529Z" fill="#1D2126"/>
<path d="M214.39 38.8212C214.486 38.8692 213.814 40.5487 212.998 42.6121C212.95 42.7561 212.902 42.8521 212.854 42.996C212.806 43.14 212.758 43.2839 212.614 43.3799C212.47 43.5239 212.23 43.4759 212.087 43.4279C211.943 43.3799 211.847 43.2839 211.751 43.2359C211.367 42.996 211.031 42.7561 210.695 42.5162C210.119 42.0843 209.735 41.8443 209.735 41.7964C209.735 41.7484 210.167 41.9883 210.791 42.3242C211.127 42.5161 211.511 42.7561 211.895 42.996C212.087 43.14 212.326 43.2839 212.422 43.188C212.566 43.092 212.614 42.7561 212.758 42.5162C213.574 40.4528 214.294 38.8212 214.39 38.8212Z" fill="#1D2126"/>
<path d="M223.746 41.7004C223.746 41.7484 223.074 42.0363 221.923 42.4202C220.819 42.8521 219.235 43.3799 217.508 43.9558C217.172 44.0517 216.884 44.1957 216.548 44.2917L216.404 44.3397L216.357 44.1957C215.733 42.7081 215.205 41.4125 214.869 40.5008C214.485 39.541 214.293 38.9652 214.341 38.9652C214.389 38.9652 214.629 39.4931 215.061 40.4048C215.493 41.3165 216.021 42.6122 216.644 44.0997L216.452 44.0037C216.74 43.9078 217.076 43.8118 217.412 43.6678C219.14 43.092 220.723 42.5642 221.875 42.1803C223.026 41.8924 223.746 41.6524 223.746 41.7004Z" fill="#1D2126"/>
<path d="M234.207 48.4662C234.207 48.5622 232.575 48.994 230.656 49.8578C228.736 50.7215 227.297 51.6333 227.249 51.5853C227.249 51.5373 227.585 51.2974 228.161 50.9135C228.736 50.5296 229.6 50.0497 230.56 49.6179C231.52 49.186 232.431 48.8981 233.151 48.7061C233.775 48.4662 234.207 48.4182 234.207 48.4662Z" fill="#1D2126"/>
<path d="M214.389 38.8212C214.389 38.8212 214.389 38.8692 214.389 38.9652C214.389 39.0612 214.389 39.2051 214.389 39.3971C214.389 39.7809 214.437 40.3088 214.437 40.9806C214.437 42.3722 214.437 44.3396 214.341 46.8349C214.15 51.7775 213.526 58.5435 212.566 66.0293C212.086 69.7723 211.558 73.3232 211.223 76.5383C210.887 79.7534 210.695 82.6805 210.743 85.1758C210.791 87.6231 210.983 89.6385 211.223 90.9821C211.319 91.6539 211.414 92.1817 211.462 92.5656C211.51 92.7096 211.51 92.8536 211.51 92.9975C211.51 93.0935 211.51 93.1415 211.51 93.1415C211.51 93.1415 211.51 93.0935 211.462 92.9975C211.414 92.9015 211.414 92.7576 211.367 92.6136C211.319 92.2777 211.175 91.7499 211.079 91.0781C210.839 89.7345 210.599 87.719 210.503 85.2718C210.407 82.8245 210.551 79.8493 210.887 76.6343C211.223 73.3712 211.75 69.8682 212.23 66.1253C213.19 58.6875 213.862 51.9214 214.102 46.9789C214.246 44.5316 214.245 42.5162 214.293 41.1725C214.293 40.5007 214.293 39.9729 214.293 39.589C214.293 39.445 214.293 39.3011 214.293 39.1571C214.389 38.8692 214.389 38.8212 214.389 38.8212Z" fill="#1D2126"/>
<g opacity="0.2">
<g opacity="0.2">
<g opacity="0.2">
<path opacity="0.2" d="M229.888 66.3173C229.072 64.7817 228.208 63.2942 227.393 61.7586C226.385 69.7723 226.961 77.9299 229.072 85.7037C229.312 79.2735 229.6 72.8434 229.84 66.3653" fill="black"/>
</g>
</g>
</g>
<path d="M217.076 57.9677C217.076 57.9677 217.22 57.9677 217.508 57.9197C217.844 57.9197 218.324 57.9197 218.852 57.8717C220.003 57.8717 221.683 57.8237 223.746 57.8237H223.89V57.9677C223.746 59.7432 223.602 61.8066 223.458 63.9659V64.0619L223.41 64.1099C223.314 64.1579 223.218 64.2059 223.122 64.2539C221.971 64.8297 220.915 65.4055 219.859 65.9814L219.763 66.0293L219.715 65.9814C218.612 65.0696 217.604 64.2539 216.693 63.4861L216.645 63.4381V63.3901C216.788 61.7586 216.884 60.415 216.98 59.4073C217.028 58.9754 217.076 58.5915 217.076 58.3036C217.076 58.0637 217.076 57.9677 217.076 57.9677C217.076 57.9677 217.076 58.1116 217.076 58.3996C217.076 58.6875 217.028 59.0714 217.028 59.5032C216.98 60.5109 216.884 61.8066 216.788 63.4381L216.741 63.3421C217.652 64.0619 218.708 64.8777 219.811 65.7894H219.667C220.675 65.2616 221.779 64.6857 222.93 64.0619C223.026 64.0139 223.122 63.9659 223.218 63.918L223.122 64.0139C223.314 61.8066 223.458 59.7912 223.602 58.0157L223.746 58.1596C221.779 58.1596 220.147 58.1116 218.948 58.1116C218.372 58.1116 217.94 58.0637 217.556 58.0637C217.268 57.9677 217.124 57.9677 217.076 57.9677Z" fill="#1D2126"/>
<path d="M176.483 56.9596C176.483 56.9596 167.75 50.3376 166.55 49.9057C164.535 49.1859 164.055 49.3778 164.055 49.3778L168.853 54.5123C168.853 54.5123 163.815 56.2398 163.431 56.4318C163.047 56.6717 162.904 57.7274 164.103 57.7274C165.111 57.7274 169.957 57.8234 169.957 57.8234L173.94 60.7505L176.483 56.9596Z" fill="#EEBC93"/>
<path d="M253.64 -4.85927e-05C253.64 -4.85927e-05 253.736 -4.85927e-05 253.928 -4.85927e-05C254.119 -4.85927e-05 254.407 -4.85927e-05 254.791 -4.85927e-05C254.983 -4.85927e-05 255.175 -4.85927e-05 255.415 0.0479375C255.655 0.0959236 255.895 0.0959236 256.183 0.14391C256.471 0.191896 256.759 0.239882 257.046 0.287868C257.334 0.38384 257.67 0.431826 258.006 0.527798C259.35 0.863701 261.029 1.48752 262.708 2.5912C264.388 3.69488 266.163 5.23043 267.603 7.34182C268.994 9.45321 270.098 12.0924 270.386 15.1156C270.434 15.8833 270.482 16.6031 270.434 17.4189C270.386 17.8028 270.434 18.1867 270.338 18.5706C270.29 18.9545 270.242 19.3383 270.146 19.7222C269.81 21.2578 269.378 22.8893 268.562 24.3769C267.795 25.8644 266.787 27.304 265.539 28.5517C264.292 29.7993 262.804 30.855 261.173 31.6708C259.542 32.4865 257.718 33.0624 255.847 33.3023C255.367 33.3983 254.887 33.3983 254.407 33.4462C253.928 33.4942 253.448 33.4942 252.968 33.4942C252.008 33.4462 251.049 33.3503 250.089 33.1103C248.026 32.6785 246.058 31.8147 244.379 30.711H244.571C242.604 31.5268 240.636 32.2946 238.765 33.0624L238.429 33.2063L238.525 32.8704C239.101 30.711 239.677 28.6476 240.252 26.6322L240.3 26.7762C238.669 24.6168 237.613 22.1215 237.181 19.6742C236.942 18.4266 236.894 17.227 236.942 16.0273C236.99 15.4515 236.99 14.8276 237.085 14.2518C237.133 13.9639 237.181 13.676 237.229 13.3881C237.277 13.1002 237.373 12.8122 237.421 12.5723C238.525 8.20557 241.26 4.94252 243.947 3.07106C245.291 2.11134 246.586 1.43953 247.834 1.00766C248.122 0.911687 248.409 0.815715 248.697 0.671756C248.985 0.575784 249.273 0.527798 249.513 0.479812C249.753 0.431826 250.041 0.335854 250.281 0.287868C250.521 0.239882 250.761 0.239882 251.001 0.191896C251.432 0.14391 251.816 0.0479375 252.152 0.0479375C252.488 0.0479375 252.776 0.0479375 253.016 -4.85927e-05C253.256 -4.85927e-05 253.4 -4.85927e-05 253.544 -4.85927e-05C253.592 -4.85927e-05 253.64 -4.85927e-05 253.64 -4.85927e-05C253.64 -4.85927e-05 253.592 -4.85927e-05 253.448 0.0479375C253.304 0.0479375 253.16 0.0959236 252.92 0.0959236C252.68 0.0959236 252.392 0.14391 252.056 0.14391C251.72 0.191896 251.336 0.239882 250.905 0.335854C249.177 0.671756 246.634 1.34356 243.995 3.263C241.356 5.13446 238.717 8.34953 237.661 12.6203C237.613 12.9082 237.517 13.1481 237.469 13.4361C237.421 13.724 237.373 14.0119 237.325 14.2518C237.229 14.8276 237.181 15.4035 237.181 15.9793C237.085 17.131 237.181 18.3306 237.421 19.5783C237.853 21.9776 238.861 24.4249 240.492 26.5362L240.54 26.5842V26.6802C240.012 28.6956 239.437 30.759 238.861 32.9184L238.621 32.6785C240.54 31.9107 242.46 31.1429 244.427 30.3272L244.523 30.2792L244.619 30.3272C246.298 31.4308 248.17 32.2466 250.233 32.6785C251.145 32.8704 252.104 33.0144 253.064 33.0144C253.544 33.0144 254.024 33.0144 254.455 32.9664C254.935 32.9184 255.367 32.9184 255.847 32.8704C257.67 32.6305 259.446 32.1026 261.029 31.2869C262.612 30.4711 264.052 29.4154 265.3 28.2158C266.499 26.9681 267.507 25.5765 268.274 24.1369C269.042 22.6974 269.522 21.1138 269.858 19.5783C269.906 19.1944 269.954 18.8105 270.05 18.4266C270.098 18.0427 270.098 17.6588 270.146 17.2749C270.242 16.5072 270.146 15.7874 270.098 15.0196C269.81 12.0924 268.802 9.45321 267.411 7.38981C266.019 5.32641 264.292 3.74287 262.66 2.68717C260.981 1.58349 259.35 0.959673 258.006 0.575784C257.67 0.479812 257.334 0.38384 257.046 0.335854C256.759 0.287868 256.471 0.239882 256.183 0.191896C255.895 0.14391 255.655 0.0959236 255.463 0.0479375C255.223 -4.85927e-05 255.031 -4.85927e-05 254.839 -4.85927e-05C254.503 -0.0480347 254.215 -0.0480347 253.976 -0.0480347C253.736 0.0479375 253.64 -4.85927e-05 253.64 -4.85927e-05Z" fill="#263238"/>
<g clip-path="url(#clip5)">
<path d="M283.494 74.7543C283.102 74.7479 282.704 74.7671 282.312 74.6967C281.432 74.5305 281.149 74.0253 281.181 73.2325C281.207 72.6826 281.355 72.1455 281.522 71.6212C281.592 71.391 281.708 71.2375 281.965 71.2375C282.299 71.2375 282.62 71.4357 282.691 71.6659C282.839 72.1583 282.839 72.1455 283.353 72.1647C284.49 72.203 285.608 72.056 286.72 71.845C286.945 71.8002 287.003 71.7107 286.919 71.5061C286.489 70.4511 285.82 69.5942 284.824 69.006C284.657 68.9101 284.484 68.8397 284.285 68.8142C283.957 68.7758 283.828 68.5776 283.886 68.2643C283.983 67.7783 284.079 67.286 284.175 66.8C284.285 66.2501 284.799 65.956 285.338 66.1287C285.557 66.199 285.737 66.3269 285.91 66.4739C287.144 67.5609 288.011 68.8589 288.358 70.4894C288.615 71.7043 288.326 72.8233 287.799 73.9039C287.716 74.0701 287.562 74.134 287.395 74.1916C286.585 74.4729 285.743 74.6008 284.895 74.6967C284.432 74.7415 283.963 74.7798 283.494 74.7543Z" fill="white"/>
<path d="M275.688 71.3014C275.649 72.2861 275.514 73.2516 275.11 74.1596C275.045 74.2939 274.981 74.4282 274.898 74.5496C274.775 74.7223 274.602 74.799 274.396 74.7415C274.178 74.6839 274.056 74.5305 274.043 74.3003C273.953 73.1877 273.869 72.0751 273.78 70.9626C273.657 69.5431 273.516 68.1236 273.413 66.7041C273.336 65.6427 273.24 64.5877 273.143 63.5263C273.131 63.3664 273.188 63.2385 273.265 63.1042C273.593 62.548 273.927 61.9853 274.249 61.4226C274.371 61.218 274.525 61.0965 274.769 61.1477C274.994 61.1988 275.052 61.3778 275.065 61.5825C275.116 62.3881 275.174 63.1938 275.232 63.9994C275.315 65.2399 275.399 66.4803 275.482 67.7208C275.547 68.9292 275.617 70.1185 275.688 71.3014Z" fill="white"/>
<path d="M275.116 77.0945C275.373 77.0114 275.565 76.9474 275.758 76.8963C275.938 76.8451 276.118 76.8323 276.259 76.9858C276.394 77.1393 276.388 77.3119 276.304 77.4909C276.298 77.5101 276.279 77.5293 276.279 77.5485C276.099 78.239 275.726 78.6802 274.949 78.7825C274.383 78.8593 273.901 79.179 273.554 79.6649C273.355 79.9462 273.117 79.9526 272.738 79.7416C272.468 79.5946 272.417 79.3708 272.546 79.1214C272.751 78.725 272.815 78.3989 272.436 78.0216C272.166 77.7531 272.237 77.3375 272.385 76.9922C272.7 76.2761 273.214 75.7326 273.895 75.3553C274.21 75.1827 274.557 75.1571 274.891 75.253C275.418 75.4001 275.662 76.0395 275.405 76.5958C275.341 76.7492 275.238 76.8835 275.116 77.0945ZM274.782 77.1648C274.518 76.9282 274.274 76.7876 273.953 76.8643C273.901 76.8771 273.843 76.8963 273.837 76.9538C273.824 77.0178 273.876 77.0497 273.921 77.0753C274.178 77.2288 274.447 77.2416 274.782 77.1648Z" fill="white"/>
<path d="M278.881 70.758C279.312 70.7069 279.73 70.79 280.083 71.1289C280.334 71.3718 280.404 71.6532 280.398 71.9921C280.372 73.2645 279.485 73.8591 278.49 74.3067C277.751 74.6392 277.012 74.1213 276.902 73.3156C276.838 72.8169 276.819 72.3182 276.89 71.8194C276.986 71.1608 277.237 70.9179 277.911 70.8092C278.226 70.7644 278.528 70.7388 278.881 70.758Z" fill="white"/>
</g>
<g clip-path="url(#clip6)">
<path d="M261.096 127.471C260.9 127.467 260.701 127.478 260.505 127.44C260.065 127.353 259.924 127.087 259.94 126.67C259.953 126.38 260.026 126.098 260.11 125.822C260.145 125.701 260.203 125.62 260.332 125.62C260.499 125.62 260.659 125.724 260.695 125.845C260.769 126.104 260.769 126.098 261.026 126.108C261.594 126.128 262.153 126.051 262.709 125.94C262.821 125.916 262.85 125.869 262.809 125.761C262.593 125.206 262.259 124.755 261.761 124.445C261.678 124.395 261.591 124.358 261.491 124.344C261.328 124.324 261.263 124.22 261.292 124.055C261.34 123.799 261.389 123.54 261.437 123.284C261.491 122.995 261.748 122.84 262.018 122.931C262.128 122.968 262.217 123.035 262.304 123.113C262.921 123.685 263.355 124.368 263.528 125.226C263.657 125.866 263.512 126.454 263.249 127.023C263.207 127.111 263.13 127.144 263.046 127.175C262.642 127.323 262.221 127.39 261.797 127.44C261.565 127.464 261.331 127.484 261.096 127.471Z" fill="white"/>
<path d="M257.192 125.653C257.173 126.172 257.105 126.68 256.903 127.158C256.871 127.228 256.839 127.299 256.797 127.363C256.736 127.454 256.649 127.494 256.546 127.464C256.437 127.434 256.376 127.353 256.37 127.232C256.325 126.646 256.283 126.061 256.238 125.475C256.177 124.728 256.106 123.981 256.055 123.234C256.016 122.675 255.968 122.12 255.92 121.561C255.913 121.477 255.942 121.41 255.981 121.339C256.145 121.046 256.312 120.75 256.472 120.454C256.533 120.346 256.611 120.282 256.733 120.309C256.845 120.336 256.874 120.43 256.88 120.538C256.906 120.962 256.935 121.386 256.964 121.81C257.006 122.463 257.048 123.116 257.089 123.769C257.121 124.405 257.157 125.031 257.192 125.653Z" fill="white"/>
<path d="M256.906 128.703C257.035 128.659 257.131 128.625 257.228 128.598C257.318 128.571 257.408 128.565 257.478 128.645C257.546 128.726 257.543 128.817 257.501 128.911C257.498 128.921 257.488 128.931 257.488 128.942C257.398 129.305 257.212 129.537 256.823 129.591C256.54 129.631 256.299 129.8 256.126 130.055C256.026 130.204 255.907 130.207 255.718 130.096C255.583 130.018 255.557 129.901 255.621 129.769C255.724 129.561 255.756 129.389 255.567 129.191C255.432 129.049 255.467 128.83 255.541 128.649C255.699 128.272 255.956 127.986 256.296 127.787C256.453 127.696 256.627 127.683 256.794 127.733C257.057 127.811 257.18 128.147 257.051 128.44C257.019 128.521 256.968 128.592 256.906 128.703ZM256.739 128.74C256.608 128.615 256.486 128.541 256.325 128.581C256.299 128.588 256.27 128.598 256.267 128.629C256.261 128.662 256.286 128.679 256.309 128.693C256.437 128.773 256.572 128.78 256.739 128.74Z" fill="white"/>
<path d="M258.789 125.367C259.004 125.341 259.213 125.384 259.39 125.563C259.515 125.691 259.55 125.839 259.547 126.017C259.534 126.687 259.091 127 258.593 127.235C258.223 127.41 257.854 127.138 257.799 126.714C257.767 126.451 257.758 126.189 257.793 125.926C257.841 125.579 257.966 125.452 258.304 125.394C258.461 125.371 258.612 125.357 258.789 125.367Z" fill="white"/>
</g>
<g clip-path="url(#clip7)">
<path d="M50.8818 135.099C50.5552 135.094 50.2232 135.11 49.8966 135.051C49.163 134.911 48.9274 134.485 48.9542 133.818C48.9756 133.355 49.0987 132.902 49.238 132.461C49.2969 132.267 49.3932 132.138 49.6074 132.138C49.8859 132.138 50.1536 132.305 50.2125 132.498C50.3356 132.913 50.3356 132.902 50.764 132.918C51.7117 132.951 52.6434 132.827 53.5698 132.649C53.7572 132.611 53.8054 132.536 53.7357 132.364C53.377 131.475 52.8201 130.754 51.9902 130.258C51.851 130.178 51.7064 130.118 51.5404 130.097C51.2673 130.065 51.1602 129.898 51.2084 129.634C51.2887 129.225 51.3691 128.81 51.4494 128.401C51.5404 127.938 51.9688 127.69 52.4185 127.835C52.6006 127.895 52.7505 128.002 52.8951 128.126C53.9232 129.042 54.646 130.135 54.9352 131.508C55.1493 132.531 54.9084 133.473 54.4693 134.383C54.3997 134.523 54.2712 134.577 54.132 134.625C53.4573 134.862 52.7559 134.97 52.0491 135.051C51.6636 135.088 51.2727 135.121 50.8818 135.099Z" fill="white"/>
<path d="M44.3758 132.192C44.3437 133.021 44.2312 133.834 43.8939 134.599C43.8403 134.712 43.7868 134.825 43.7172 134.927C43.6154 135.072 43.4709 135.137 43.2995 135.089C43.1175 135.04 43.0157 134.911 43.005 134.717C42.9301 133.78 42.8605 132.843 42.7855 131.906C42.6838 130.711 42.566 129.516 42.4803 128.32C42.416 127.426 42.3357 126.538 42.2554 125.644C42.2447 125.51 42.2929 125.402 42.3571 125.289C42.6302 124.82 42.9087 124.347 43.1764 123.873C43.2781 123.7 43.4066 123.598 43.6101 123.641C43.7975 123.684 43.8457 123.835 43.8564 124.007C43.8992 124.686 43.9474 125.364 43.9956 126.043C44.0652 127.087 44.1348 128.132 44.2044 129.176C44.258 130.194 44.3169 131.196 44.3758 132.192Z" fill="white"/>
<path d="M43.8995 137.07C44.1137 137 44.2743 136.946 44.4349 136.903C44.5849 136.86 44.7348 136.849 44.8526 136.979C44.965 137.108 44.9597 137.253 44.8901 137.404C44.8847 137.42 44.8687 137.436 44.8687 137.452C44.7187 138.034 44.4082 138.405 43.7603 138.492C43.2891 138.556 42.8875 138.825 42.5983 139.235C42.4323 139.472 42.2342 139.477 41.9183 139.299C41.6934 139.175 41.6506 138.987 41.7577 138.777C41.929 138.443 41.9826 138.169 41.6667 137.851C41.4418 137.625 41.5007 137.275 41.6238 136.984C41.8862 136.381 42.3145 135.923 42.8821 135.606C43.1445 135.46 43.4336 135.439 43.7121 135.519C44.1511 135.643 44.3546 136.182 44.1404 136.65C44.0869 136.779 44.0012 136.892 43.8995 137.07ZM43.621 137.129C43.4015 136.93 43.198 136.812 42.9303 136.876C42.8875 136.887 42.8393 136.903 42.8339 136.952C42.8232 137.005 42.8661 137.032 42.9035 137.054C43.1177 137.183 43.3426 137.194 43.621 137.129Z" fill="white"/>
<path d="M47.0371 131.734C47.3959 131.691 47.7439 131.761 48.0384 132.047C48.2473 132.251 48.3062 132.488 48.3008 132.773C48.2794 133.845 47.5405 134.346 46.7105 134.723C46.0948 135.003 45.479 134.566 45.388 133.888C45.3344 133.468 45.3183 133.048 45.3772 132.628C45.4576 132.073 45.6664 131.869 46.2286 131.777C46.491 131.74 46.7426 131.718 47.0371 131.734Z" fill="white"/>
</g>
<g clip-path="url(#clip8)">
<path d="M60.9664 171.287C60.7704 171.284 60.5712 171.294 60.3752 171.257C59.9351 171.17 59.7937 170.904 59.8098 170.486C59.8227 170.197 59.8965 169.914 59.9801 169.638C60.0154 169.517 60.0732 169.436 60.2018 169.436C60.3688 169.436 60.5295 169.541 60.5648 169.662C60.6387 169.921 60.6387 169.914 60.8957 169.924C61.4643 169.945 62.0234 169.867 62.5792 169.756C62.6916 169.733 62.7205 169.685 62.6788 169.578C62.4635 169.023 62.1294 168.572 61.6314 168.262C61.5479 168.211 61.4611 168.174 61.3615 168.161C61.1977 168.141 61.1334 168.036 61.1624 167.872C61.2105 167.616 61.2587 167.357 61.3069 167.101C61.3615 166.812 61.6186 166.657 61.8884 166.748C61.9977 166.785 62.0876 166.852 62.1744 166.929C62.7912 167.501 63.2249 168.185 63.3984 169.043C63.5269 169.682 63.3823 170.271 63.1189 170.84C63.0771 170.927 63 170.961 62.9165 170.991C62.5117 171.139 62.0908 171.207 61.6667 171.257C61.4354 171.281 61.2009 171.301 60.9664 171.287Z" fill="#E0E0E0"/>
<path d="M57.0622 169.47C57.0429 169.988 56.9754 170.496 56.773 170.974C56.7409 171.045 56.7088 171.116 56.667 171.18C56.606 171.27 56.5192 171.311 56.4164 171.281C56.3072 171.25 56.2462 171.169 56.2397 171.048C56.1948 170.463 56.153 169.877 56.108 169.292C56.047 168.545 55.9763 167.797 55.9249 167.05C55.8863 166.492 55.8381 165.936 55.79 165.378C55.7835 165.294 55.8124 165.226 55.851 165.156C56.0148 164.863 56.1819 164.567 56.3425 164.271C56.4036 164.163 56.4807 164.099 56.6028 164.126C56.7152 164.153 56.7441 164.247 56.7506 164.355C56.7763 164.779 56.8052 165.203 56.8341 165.627C56.8759 166.28 56.9176 166.933 56.9594 167.585C56.9915 168.221 57.0269 168.847 57.0622 169.47Z" fill="#E0E0E0"/>
<path d="M56.7766 172.519C56.9051 172.475 57.0015 172.442 57.0979 172.415C57.1878 172.388 57.2778 172.381 57.3485 172.462C57.4159 172.543 57.4127 172.633 57.371 172.728C57.3677 172.738 57.3581 172.748 57.3581 172.758C57.2681 173.121 57.0818 173.354 56.6931 173.407C56.4104 173.448 56.1694 173.616 55.9959 173.872C55.8963 174.02 55.7775 174.023 55.5879 173.912C55.453 173.835 55.4273 173.717 55.4915 173.586C55.5943 173.377 55.6265 173.206 55.4369 173.007C55.302 172.866 55.3373 172.647 55.4112 172.465C55.5686 172.088 55.8256 171.802 56.1662 171.604C56.3236 171.513 56.4971 171.499 56.6642 171.55C56.9276 171.627 57.0497 171.964 56.9212 172.257C56.889 172.337 56.8376 172.408 56.7766 172.519ZM56.6095 172.556C56.4778 172.432 56.3557 172.357 56.1951 172.398C56.1694 172.405 56.1405 172.415 56.1373 172.445C56.1308 172.479 56.1566 172.495 56.179 172.509C56.3075 172.59 56.4425 172.596 56.6095 172.556Z" fill="#E0E0E0"/>
<path d="M58.659 169.184C58.8743 169.157 59.0831 169.201 59.2598 169.379C59.3851 169.507 59.4204 169.655 59.4172 169.833C59.4044 170.503 58.961 170.816 58.463 171.052C58.0936 171.227 57.7241 170.954 57.6695 170.53C57.6374 170.268 57.6277 170.005 57.6631 169.743C57.7113 169.396 57.8366 169.268 58.1739 169.211C58.3313 169.187 58.4823 169.174 58.659 169.184Z" fill="#E0E0E0"/>
</g>
</g>
<defs>
<clipPath id="clip0">
<rect width="320" height="193" fill="white" transform="translate(0.000976562 0.00012207)"/>
</clipPath>
<clipPath id="clip1">
<rect width="72.9642" height="100.151" fill="white" transform="translate(66.7109 25.038)"/>
</clipPath>
<clipPath id="clip2">
<rect width="72.9642" height="100.151" fill="white" transform="translate(87.5576 25.038)"/>
</clipPath>
<clipPath id="clip3">
<rect width="21.2751" height="22.1781" fill="white" transform="matrix(0.96587 -0.259027 0.258611 0.965981 159.479 15.9432)"/>
</clipPath>
<clipPath id="clip4">
<rect width="72.9642" height="100.151" fill="white" transform="translate(118.828 25.038)"/>
</clipPath>
<clipPath id="clip5">
<rect width="18.7622" height="19.8216" fill="white" transform="translate(269.969 60.5082)"/>
</clipPath>
<clipPath id="clip6">
<rect width="9.3811" height="10.4324" fill="white" transform="translate(254.333 119.973)"/>
</clipPath>
<clipPath id="clip7">
<rect width="15.6352" height="16.6919" fill="white" transform="translate(39.6104 123.103)"/>
</clipPath>
<clipPath id="clip8">
<rect width="9.3811" height="10.4324" fill="white" transform="translate(54.2031 163.789)"/>
</clipPath>
</defs>
</svg>
