<svg width="292" height="244" viewBox="0 0 292 244" fill="none" xmlns="http://www.w3.org/2000/svg">
<path d="M43.4539 35.0001V25.2001H41.7039L39.4079 26.4321V28.4061L41.4799 27.3561V35.0001H43.4539ZM47.845 35.0001L51.989 26.7541V25.2001H45.073V27.0061H49.707L45.703 35.0001H47.845ZM60.7844 35.1961C61.8064 35.1961 62.6464 34.8741 63.3184 34.2301C64.0044 33.5861 64.3404 32.7601 64.3404 31.7381C64.3404 30.7721 64.0464 30.0161 63.4444 29.4421C62.8424 28.8681 62.1004 28.5741 61.2044 28.5741C60.1964 28.5741 59.4404 28.8821 58.9224 29.4841C58.9784 28.7141 59.2304 28.0841 59.6924 27.5801C60.1544 27.0761 60.7984 26.8241 61.5964 26.8241C62.3104 26.8241 62.9684 27.0341 63.5844 27.4541V25.6341C62.9544 25.2141 62.2124 25.0041 61.3724 25.0041C58.3344 25.0041 56.8784 27.7061 56.8784 30.6041C56.8784 33.4601 58.3204 35.1961 60.7844 35.1961ZM60.6584 33.4601C59.5944 33.4601 58.9224 32.7041 58.8664 31.3741C59.1464 30.6601 59.8884 30.1421 60.6584 30.1421C61.6244 30.1421 62.3384 30.8281 62.3384 31.7801C62.3384 32.7741 61.6524 33.4601 60.6584 33.4601ZM72.4981 35.0001V33.2361H68.4101L70.0901 31.6961C70.8601 30.9821 71.4061 30.3661 71.7001 29.8341C72.0081 29.3021 72.1621 28.6861 72.1621 28.0001C72.1621 27.1041 71.8121 26.3761 71.1261 25.8301C70.4401 25.2841 69.6281 25.0041 68.6901 25.0041C67.5841 25.0041 66.6321 25.3121 65.8341 25.9421V28.0141C66.6741 27.2721 67.5561 26.8941 68.4801 26.8941C69.4881 26.8941 70.1601 27.4261 70.1601 28.2661C70.1601 28.6861 70.0341 29.0781 69.7681 29.4561C69.5161 29.8341 69.0681 30.3101 68.4101 30.9121L65.5261 33.5301V35.0001H72.4981ZM78.0719 35.1961C79.3599 35.1961 80.3819 34.6921 81.1379 33.6981C81.9079 32.7041 82.2859 31.5001 82.2859 30.1001C82.2859 28.7001 81.9079 27.4961 81.1379 26.5021C80.3819 25.5081 79.3599 25.0041 78.0719 25.0041C76.3359 25.0041 74.9779 26.0821 74.3199 27.6081C73.9979 28.3641 73.8439 29.1901 73.8439 30.1001C73.8439 31.9061 74.4879 33.5021 75.7899 34.4681C76.4479 34.9581 77.2039 35.1961 78.0719 35.1961ZM76.4619 32.3821C76.0559 31.7521 75.8599 30.9961 75.8599 30.1001C75.8599 29.2041 76.0559 28.4481 76.4619 27.8321C76.8679 27.2021 77.3999 26.8941 78.0719 26.8941C78.7439 26.8941 79.2759 27.2021 79.6679 27.8321C80.0739 28.4481 80.2699 29.2041 80.2699 30.1001C80.2699 30.9961 80.0739 31.7521 79.6679 32.3821C79.2759 32.9981 78.7439 33.3061 78.0719 33.3061C77.3999 33.3061 76.8679 32.9981 76.4619 32.3821Z" fill="#1EAD5E"/>
<g clip-path="url(#clip0)">
<path d="M154.204 200.013L159.589 201.767L146.393 205.197L140.554 203.292L154.204 200.013Z" fill="#A0A0A0"/>
<path d="M171.799 195.821L176.501 197.345L166.49 200.014L161.409 198.26L171.799 195.821Z" fill="#A0A0A0"/>
<path d="M185.525 192.543L189.696 193.915L181.885 195.973L177.335 194.449L185.525 192.543Z" fill="#A0A0A0"/>
<path d="M196.522 189.951L200.314 191.17L193.943 192.847L189.924 191.475L196.522 189.951Z" fill="#A0A0A0"/>
<path d="M205.546 187.74L208.959 188.884L203.726 190.256L200.086 189.036L205.546 187.74Z" fill="#A0A0A0"/>
<path d="M213.054 185.987L216.163 187.054L211.841 188.197L208.504 187.054L213.054 185.987Z" fill="#A0A0A0"/>
<path d="M219.424 184.462L222.306 185.453L218.59 186.368L215.557 185.377L219.424 184.462Z" fill="#A0A0A0"/>
<path d="M224.885 183.166L227.539 184.081L224.354 184.919L221.548 183.928L224.885 183.166Z" fill="#A0A0A0"/>
<path d="M229.587 182.022L232.09 182.861L229.359 183.547L226.705 182.709L229.587 182.022Z" fill="#A0A0A0"/>
<path d="M95.0515 214.117L102.635 216.632L72.3762 224.561L63.5791 221.587L95.0515 214.117Z" fill="#A0A0A0"/>
<path d="M130.998 205.502L137.217 207.637L117.348 212.821L110.295 210.457L130.998 205.502Z" fill="#A0A0A0"/>
<path d="M18.9111 203.444C20.1245 204.892 21.8688 206.112 21.7171 208.17L18.9111 203.444Z" fill="#572700"/>
<path opacity="0.4" d="M18.3809 207.942C21.3385 207.332 21.3385 206.417 21.111 206.036C21.4902 206.646 21.7177 207.332 21.6419 208.17" fill="#572700"/>
<path d="M20.7314 208.018C21.7932 207.484 21.7932 207.484 21.7932 207.484C21.7932 207.484 23.0066 209.39 22.324 210.305" fill="#3D1B01"/>
<path opacity="0.6" d="M39.1602 231.345C39.1602 231.345 138.507 242.78 155.646 243.161C172.785 243.543 272.284 215.336 272.284 215.336C272.284 215.336 203.12 201.614 191.29 201.614C179.459 201.614 72.5285 218.767 39.1602 231.345Z" fill="url(#paint0_linear)"/>
<path d="M284.947 193.686L262.045 206.646C262.045 206.646 256.281 187.969 262.196 175.619C268.112 163.193 296.247 158.924 284.947 193.686Z" fill="black"/>
<path d="M190 220.52L140.857 212.516C140.857 212.516 157.238 169.368 174.605 169.368C191.972 169.368 200.39 200.852 190 220.52Z" fill="black"/>
<path d="M175.894 181.413C175.894 181.413 162.016 177.372 155.038 181.032L154.963 181.108C146.317 184.919 139.492 195.973 138.354 209.619C136.989 226.085 142.905 240.417 153.522 242.857C153.522 242.857 154.053 242.933 154.887 243.085C155.114 243.085 155.342 243.162 155.569 243.162H155.645C159.361 243.695 167.248 244.534 172.784 243.543C172.784 243.619 199.782 211.067 175.894 181.413Z" fill="#231F20"/>
<path d="M188.862 212.592C188.104 229.363 181.658 242.933 172.709 243.619C163.684 244.305 152.915 234.776 153.37 214.726C153.674 193.076 164.973 181.489 172.861 181.108C182.568 180.65 189.696 195.058 188.862 212.592Z" fill="#323232"/>
<path d="M183.856 212.516C183.401 226.009 177.183 236.911 170.054 236.911C163.001 236.911 157.693 226.086 158.299 212.745C158.83 199.48 164.973 188.731 171.95 188.579C178.927 188.503 184.311 199.175 183.856 212.516Z" fill="url(#paint1_linear)"/>
<path d="M182.719 212.516C182.264 224.79 176.576 234.852 170.13 234.852C163.684 234.852 158.83 224.942 159.361 212.745C159.892 200.624 165.428 190.713 171.874 190.637C178.32 190.561 183.174 200.319 182.719 212.516Z" fill="#BBBDBF"/>
<path d="M180.14 212.592C179.761 222.198 175.363 229.973 170.281 229.973C165.2 229.973 161.484 222.274 161.864 212.745C162.243 203.292 166.641 195.516 171.647 195.44C176.728 195.364 180.519 202.987 180.14 212.592Z" fill="#241F20"/>
<path d="M176.122 221.893C176.804 221.893 177.487 222.198 178.093 222.731C179.307 219.834 180.065 216.328 180.217 212.516C180.217 211.906 180.217 211.372 180.217 210.839C178.018 210.229 176.425 206.646 176.577 202.225C176.653 201.005 176.804 199.785 177.108 198.718C175.667 196.507 173.771 195.211 171.723 195.211C171.42 195.211 171.192 195.364 170.889 195.364C170.586 199.938 168.462 203.597 165.959 203.673C165.201 203.673 164.519 203.292 163.912 202.682C162.774 205.503 162.016 208.933 161.864 212.592C161.864 213.202 161.864 213.736 161.864 214.269C164.291 214.498 166.111 218.31 165.884 222.96C165.808 224.408 165.58 225.704 165.201 226.848C166.642 228.83 168.386 229.973 170.282 229.973C170.586 229.973 170.889 229.821 171.192 229.821C171.571 225.476 173.695 221.969 176.122 221.893Z" fill="url(#paint2_linear)"/>
<path d="M173.618 212.745C173.543 215.413 172.253 217.624 170.888 217.624C169.447 217.624 168.461 215.413 168.537 212.821C168.613 210.153 169.902 208.018 171.267 208.018C172.633 207.942 173.694 210.077 173.618 212.745Z" fill="#241F20"/>
<path d="M67.9777 173.332C67.9777 173.332 54.0995 169.292 47.1225 172.951L47.0466 173.027C38.4012 176.839 31.5758 187.893 30.4383 201.538C29.0732 218.005 34.9885 232.336 45.6057 234.776C45.6057 234.776 46.1366 234.852 46.9708 235.005C47.1983 235.005 47.4258 235.081 47.6533 235.081H47.7292C51.4452 235.615 59.3323 236.453 64.8684 235.462C64.9442 235.462 91.9423 202.987 67.9777 173.332Z" fill="#231F20"/>
<path d="M81.0214 204.435C80.263 221.206 73.8169 234.776 64.8681 235.462C55.8434 236.148 45.0745 226.619 45.5296 206.57C45.8329 184.919 57.1327 173.332 65.0197 172.951C74.7269 172.493 81.8556 186.902 81.0214 204.435Z" fill="#323232"/>
<path d="M75.9404 204.435C75.4853 217.928 69.2667 228.83 62.138 228.906C55.0851 228.906 49.7765 218.081 50.3832 204.74C50.914 191.475 57.0569 180.726 64.0339 180.574C71.0868 180.422 76.4712 191.018 75.9404 204.435Z" fill="url(#paint3_linear)"/>
<path d="M74.879 204.435C74.424 216.708 68.7362 226.771 62.2901 226.771C55.8439 226.771 50.9903 216.861 51.5212 204.664C52.052 192.543 57.5881 182.632 64.0343 182.556C70.4046 182.403 75.3341 192.161 74.879 204.435Z" fill="#BBBDBF"/>
<path d="M72.3005 204.435C71.9213 214.04 67.5227 221.816 62.4416 221.816C57.3605 221.816 53.6445 214.116 54.0237 204.587C54.4029 195.134 58.8014 187.358 63.8067 187.282C68.8119 187.282 72.6038 194.906 72.3005 204.435Z" fill="#241F20"/>
<path d="M68.2818 213.812C68.9644 213.812 69.6469 214.117 70.2536 214.65C71.467 211.753 72.2254 208.247 72.377 204.435C72.377 203.825 72.377 203.292 72.377 202.758C70.1777 202.148 68.5093 198.565 68.7368 194.144C68.8127 192.924 68.9644 191.704 69.2677 190.637C67.8268 188.426 65.9309 187.13 63.8833 187.13C63.5799 187.13 63.3524 187.283 63.049 187.283C62.7457 191.857 60.6223 195.516 58.1196 195.592C57.3613 195.592 56.6787 195.211 56.072 194.601C54.9345 197.422 54.1761 200.852 54.0244 204.511C54.0244 205.121 54.0244 205.655 54.0244 206.188C56.4512 206.417 58.2713 210.229 58.0438 214.879C57.968 216.327 57.7404 217.623 57.3613 218.767C58.8022 220.749 60.5464 221.892 62.4423 221.892C62.7457 221.892 63.049 221.74 63.3524 221.74C63.7316 217.318 65.855 213.812 68.2818 213.812Z" fill="url(#paint4_linear)"/>
<path d="M65.7024 204.588C65.6265 207.256 64.3373 209.467 62.9722 209.467C61.5313 209.467 60.5454 207.332 60.6213 204.664C60.6971 201.996 61.9863 199.861 63.3514 199.861C64.7923 199.785 65.854 201.919 65.7024 204.588Z" fill="#241F20"/>
<path d="M276.075 175.847C276.075 175.847 266.823 172.874 262.197 175.543C262.197 175.543 262.197 175.543 262.197 175.619C256.509 178.439 251.959 186.596 251.201 196.735C250.291 208.933 254.234 219.453 261.287 221.282C261.287 221.282 261.59 221.359 262.197 221.435C262.349 221.435 262.5 221.511 262.652 221.511H262.728C265.231 221.892 270.388 222.502 274.104 221.816C274.028 221.816 292.001 197.726 276.075 175.847Z" fill="#231F20"/>
<path d="M284.721 198.87C284.19 211.296 279.943 221.282 274.028 221.816C268.037 222.35 260.908 215.26 261.212 200.471C261.439 184.462 268.947 175.924 274.18 175.619C280.55 175.238 285.252 185.91 284.721 198.87Z" fill="#323232"/>
<path d="M281.384 198.794C281.081 208.704 276.985 216.861 272.208 216.861C267.506 216.861 264.017 208.856 264.396 198.946C264.776 189.188 268.795 181.184 273.497 181.107C278.199 181.031 281.687 188.959 281.384 198.794Z" fill="url(#paint5_linear)"/>
<path d="M280.701 198.794C280.397 207.865 276.681 215.336 272.359 215.336C268.036 215.336 264.851 208.018 265.23 198.946C265.609 189.951 269.249 182.708 273.496 182.632C277.743 182.556 280.928 189.798 280.701 198.794Z" fill="#BBBDBF"/>
<path d="M278.956 198.87C278.728 205.96 275.771 211.754 272.434 211.754C269.097 211.754 266.594 206.036 266.822 199.023C267.049 192.009 270.007 186.292 273.268 186.292C276.681 186.139 279.183 191.78 278.956 198.87Z" fill="#241F20"/>
<path d="M276.302 205.731C276.757 205.731 277.212 205.96 277.591 206.341C278.426 204.206 278.957 201.614 279.032 198.794C279.032 198.336 279.032 197.955 279.032 197.498C277.516 197.04 276.53 194.372 276.606 191.17C276.606 190.256 276.757 189.341 276.985 188.578C275.999 186.978 274.786 185.987 273.42 185.987C273.269 185.987 273.041 186.063 272.89 186.139C272.662 189.493 271.221 192.238 269.629 192.238C269.098 192.238 268.643 191.933 268.264 191.552C267.505 193.61 266.974 196.126 266.898 198.87C266.898 199.327 266.898 199.709 266.898 200.09C268.491 200.242 269.704 203.063 269.553 206.493C269.553 207.561 269.325 208.552 269.098 209.39C270.008 210.839 271.221 211.677 272.51 211.677C272.738 211.677 272.89 211.601 273.117 211.525C273.269 208.399 274.71 205.807 276.302 205.731Z" fill="url(#paint6_linear)"/>
<path d="M274.634 198.946C274.558 200.928 273.724 202.529 272.814 202.529C271.904 202.529 271.145 200.928 271.221 198.946C271.297 196.964 272.131 195.363 273.041 195.363C273.951 195.439 274.634 197.04 274.634 198.946Z" fill="#241F20"/>
<path d="M120.306 117.3C120.306 117.3 66.4616 147.183 61.153 148.937C55.8444 150.69 34.9892 159.609 29.0739 166.394C23.1586 173.179 19.0633 178.515 18.4566 188.578C17.8499 198.641 17.5466 209.542 18.76 212.21C19.9734 214.878 31.7282 220.215 52.2801 221.663C72.9078 223.112 132.895 223.417 140.555 221.053C148.214 218.69 148.821 214.878 152.916 204.511C157.011 194.143 164.064 173.789 178.777 175.542C193.489 177.295 193.489 208.399 189.925 220.52L261.97 206.645C261.97 206.645 266.065 169.977 275.469 169.672C284.873 169.367 285.404 179.811 284.797 193.686C284.797 193.686 285.631 193.076 286.314 190.941C286.921 188.807 292.608 173.408 291.774 170.358C290.94 167.309 291.547 156.713 290.561 153.511C288.665 147.183 280.702 148.708 266.596 128.201C258.33 116.156 234.441 110.287 218.894 108.762C203.348 107.237 181.052 108.533 162.168 109.753C143.436 111.049 135.777 111.811 120.306 117.3Z" fill="#1EAD5E"/>
<path opacity="0.4" d="M229.208 212.973C229.208 212.973 235.047 161.44 234.744 156.637C234.441 151.834 229.663 144.516 229.663 144.516L230.952 143.601C230.952 143.601 236.413 149.09 236.792 153.74C237.095 158.39 229.208 212.973 229.208 212.973Z" fill="#1EAD5E"/>
<g opacity="0.4">
<path opacity="0.4" d="M28.7695 194.144C30.7413 194.601 32.8647 194.982 34.9123 195.135C34.9123 195.135 31.9547 194.449 28.7695 194.144Z" fill="#1EAD5E"/>
<path opacity="0.4" d="M223.672 109.296C222.155 109.068 220.638 108.839 219.045 108.763C216.998 108.534 214.799 108.381 212.523 108.305C214.647 108.534 219.576 109.068 225.492 109.601C225.34 109.601 225.188 109.525 224.961 109.525C224.506 109.372 224.127 109.296 223.672 109.296Z" fill="#1EAD5E"/>
<path opacity="0.4" d="M18.5318 188.579C17.9251 198.641 17.6218 209.543 18.8352 212.211C20.0486 214.879 31.8034 220.215 52.3553 221.664C72.983 223.112 132.97 223.417 140.63 221.054C148.289 218.691 148.896 214.879 152.991 204.511C157.086 194.144 164.139 173.789 178.852 175.543C193.564 177.296 193.564 208.399 190 220.52L262.045 206.646C262.045 206.646 266.14 169.978 275.544 169.673C284.948 169.368 285.479 179.812 284.872 193.686C284.872 193.686 285.706 193.076 286.389 190.942C286.996 188.807 292.684 173.408 291.849 170.359C291.015 167.31 291.622 156.713 290.636 153.511C288.74 147.184 280.777 148.709 266.671 128.202C259.543 117.758 240.735 111.964 225.719 109.601C225.643 109.601 225.492 109.601 225.416 109.601C252.035 114.175 264.851 130.946 263.41 136.054C261.894 141.543 253.703 142.991 253.703 142.991C253.703 142.991 262.121 142.534 269.705 143.601C277.289 144.592 282.294 149.623 287.223 155.57C292.153 161.592 289.802 171.35 289.574 174.399C289.422 177.449 286.161 179.507 285.327 175.238C284.493 170.969 280.55 167.538 273.573 167.538C266.595 167.538 263.183 184.462 259.088 194.906C254.992 205.35 203.726 214.422 198.114 213.202C192.502 211.982 198.494 208.552 195.384 190.103C192.351 171.579 176.652 168.834 169.827 171.807C163.002 174.704 156.859 173.866 149.048 172.188C141.237 170.511 132.364 170.816 132.364 170.816C132.364 170.816 145.863 175.466 138.506 181.413C131.15 187.435 99.981 187.893 99.981 187.893C99.981 187.893 128.496 189.188 136.307 191.933C144.118 194.677 137.596 208.323 131.302 212.287C125.007 216.327 113.783 216.099 109.688 215.946C105.593 215.794 104.076 211.601 104.076 211.601C104.076 211.601 96.9475 214.04 81.7801 217.7C66.6127 221.359 33.9268 217.395 27.7081 214.879C21.4895 212.363 19.5177 199.023 20.9586 195.592C21.717 193.839 25.2814 193.762 28.694 194.067C23.4613 192.848 18.9869 190.637 19.366 187.74C19.8211 183.7 23.6129 184.081 25.433 184.538C27.1773 184.919 28.6182 181.184 28.6182 181.184C28.6182 181.184 28.9215 171.655 28.6182 169.673C28.3148 167.691 29.1491 166.395 29.1491 166.395C23.2337 173.179 19.1385 178.516 18.5318 188.579Z" fill="#1EAD5E"/>
</g>
<path d="M227.691 154.883C227.843 155.874 225.568 157.018 222.686 157.552C219.728 158.009 217.301 157.628 217.074 156.637C216.922 155.646 219.121 154.502 222.079 153.969C225.037 153.511 227.539 153.892 227.691 154.883Z" fill="#D8EEE0"/>
<path opacity="0.4" d="M68.2812 147.794C68.2812 147.794 170.282 148.175 159.893 152.063C159.893 152.063 125.918 161.211 109.688 168.377C109.688 168.377 129.406 157.704 149.806 152.52C157.314 150.614 92.4733 149.547 68.2812 147.794Z" fill="white"/>
<path opacity="0.4" d="M46.1365 156.179C46.1365 156.179 33.7751 163.269 36.3535 166.09C38.932 168.91 46.6674 171.197 60.1664 171.655C60.1664 171.655 47.5016 172.646 35.7468 167.919C32.5617 166.623 30.3624 171.274 30.059 172.417C29.9832 172.417 25.2813 165.632 46.1365 156.179Z" fill="white"/>
<path d="M195.309 119.054L168.007 146.345C165.732 148.632 163.685 148.48 163.685 148.48C154.205 147.794 113.86 145.354 72.6799 146.65C69.9498 146.726 73.0591 144.82 73.0591 144.82C83.373 139.103 109.992 124.466 119.927 118.825C122.202 117.529 124.098 117.453 124.098 117.453C124.098 117.453 162.016 115.318 178.7 115.623C187.422 115.776 192.124 116.157 194.626 116.462C194.626 116.385 197.887 116.69 195.309 119.054Z" fill="#D7E8F4"/>
<g opacity="0.1">
<path opacity="0.1" d="M135.928 148.327H121.671L167.932 110.211H179.535L135.928 148.327Z" fill="white"/>
<path opacity="0.1" d="M116.286 148.327H66.082L122.505 110.211H163.457L116.286 148.327Z" fill="white"/>
</g>
<path d="M178.7 148.632C178.7 148.632 200.011 119.359 205.623 117.148C211.235 114.937 228.98 113.184 240.735 116.995C252.49 120.731 262.88 127.439 264.548 129.802C266.217 132.166 272.359 139.942 269.326 140.933C266.292 141.924 186.36 150.157 182.492 151.072C178.473 151.834 177.639 150.157 178.7 148.632Z" fill="#D7E8F4"/>
<g opacity="0.1">
<path opacity="0.1" d="M215.708 154.121H206.077L238.46 111.659H248.015L215.708 154.121Z" fill="white"/>
</g>
<path d="M193.337 149.623C193.337 149.623 195.84 143.449 197.281 140.247C198.722 137.045 201.679 134.224 208.808 134.377C215.937 134.529 217.074 135.673 216.771 137.883C216.392 140.094 216.468 145.888 211.007 146.498C205.471 147.108 201.679 145.964 199.783 148.327C197.887 150.614 191.972 152.825 193.337 149.623Z" fill="#1EAD5E"/>
<path opacity="0.4" d="M213.434 134.682C216.998 135.825 216.467 140.552 214.647 142.686C212.827 144.744 209.49 145.202 205.547 144.439C201.603 143.753 200.238 144.973 198.57 144.744C196.901 144.516 197.28 143.144 198.266 140.552C199.252 138.112 200.693 136.283 200.845 136.13C199.1 137.197 198.039 138.646 197.356 140.247C195.915 143.448 193.413 149.623 193.413 149.623C192.123 152.825 197.963 150.614 199.859 148.251C201.755 145.964 205.622 147.031 211.083 146.422C216.619 145.812 216.543 140.018 216.846 137.807C216.998 136.206 216.467 135.215 213.434 134.682Z" fill="#1EAD5E"/>
<path d="M24.2197 193.991C24.2197 193.991 51.6728 197.269 68.812 197.269C86.0271 197.269 93.99 196.049 90.8048 202.376C87.5438 208.704 77.0024 219.529 62.2142 218.462C47.4259 217.394 30.6659 216.556 27.4807 212.668C24.2197 208.704 18.2285 193.305 24.2197 193.991Z" fill="#231F20"/>
<path opacity="0.3" d="M68.8121 197.193C65.0961 197.193 60.925 197.04 56.6781 196.811C81.7044 198.87 79.4293 204.816 74.9549 209.542C70.5564 214.345 53.1138 213.964 38.4772 211.906C25.054 210.152 22.3997 201.69 22.0205 200.242C23.0064 204.74 25.5849 210.457 27.405 212.592C30.666 216.556 47.3502 217.394 62.1384 218.385C76.9267 219.376 87.5439 208.628 90.7291 202.3C93.9901 196.049 86.0272 197.193 68.8121 197.193Z" fill="#231F20"/>
<path opacity="0.3" d="M114.769 211.143C114.769 214.269 112.266 216.785 109.157 216.785C106.048 216.785 103.545 214.269 103.545 211.143C103.545 208.018 106.048 205.502 109.157 205.502C112.266 205.502 114.769 208.018 114.769 211.143Z" fill="#1EAD5E"/>
<path d="M114.162 210.915C114.162 213.735 111.887 215.946 109.157 215.946C106.351 215.946 104.151 213.659 104.151 210.915C104.151 208.094 106.426 205.883 109.157 205.883C111.887 205.883 114.162 208.17 114.162 210.915Z" fill="#D8EEE0"/>
<path d="M111.659 206.645C111.962 207.332 112.114 208.018 112.114 208.78C112.114 211.601 109.839 213.811 107.109 213.811C106.199 213.811 105.289 213.506 104.53 213.125C105.364 214.879 107.033 216.022 109.081 216.022C111.886 216.022 114.086 213.735 114.086 210.991C114.162 209.085 113.176 207.484 111.659 206.645Z" fill="#D8EEE0"/>
<path d="M42.7241 173.865L81.0977 174.247C81.0977 174.247 84.8138 174.475 80.491 175.466C76.1683 176.457 68.9638 177.906 58.1949 177.677C47.426 177.448 39.2356 177.525 39.0081 176.229C38.7806 174.856 40.449 173.865 42.7241 173.865Z" fill="#323232"/>
<path opacity="0.4" d="M81.0978 174.246L63.5035 174.094C77.9884 174.551 75.1066 175.466 69.2672 176.457C63.5035 177.448 48.2603 177.067 43.0275 176.686C38.0981 176.305 40.6007 174.323 40.8282 174.094C39.539 174.475 38.7806 175.237 38.9323 176.152C39.1598 177.524 47.426 177.372 58.1191 177.601C68.888 177.829 76.0925 176.381 80.4152 175.39C84.8138 174.475 81.0978 174.246 81.0978 174.246Z" fill="#323232"/>
<path d="M42.7241 180.117L81.0977 180.498C81.0977 180.498 84.8138 180.726 80.491 181.717C76.1683 182.709 68.8879 184.157 58.1949 183.928C47.426 183.7 39.2356 183.776 39.0081 182.48C38.7806 181.108 40.449 180.117 42.7241 180.117Z" fill="#323232"/>
<path opacity="0.4" d="M81.0978 180.498L63.5035 180.345C77.9884 180.802 75.1066 181.717 69.2672 182.708C63.5035 183.699 48.2603 183.318 43.0275 182.937C38.0981 182.556 40.6007 180.574 40.8282 180.345C39.539 180.726 38.7806 181.489 38.9323 182.403C39.1598 183.776 47.426 183.623 58.1191 183.852C68.888 184.081 76.0925 182.632 80.4152 181.641C84.8138 180.726 81.0978 180.498 81.0978 180.498Z" fill="#323232"/>
<path d="M26.8745 169.063C26.8745 169.063 27.8604 171.197 28.3154 173.713C28.6946 176.229 28.998 184.157 28.0879 184.614C27.2537 185.072 22.7035 184.309 21.1109 182.937C19.67 181.717 19.7458 181.489 19.7458 181.489C19.7458 181.489 21.5659 172.417 26.8745 169.063Z" fill="white"/>
<path d="M88.454 185.986C88.454 185.986 102.029 169.825 114.542 170.054C127.055 170.282 147.759 171.35 146.47 174.399C145.18 177.448 138.582 185.986 126.828 186.444C115.073 187.054 85.1172 189.569 88.454 185.986Z" fill="white"/>
</g>
<g clip-path="url(#clip1)">
<path d="M75.0645 64.7634H71.1973C71.5915 65.8427 71.8068 67.0073 71.8068 68.2213V82.8372C71.8068 83.3433 71.7187 83.8291 71.5584 84.2809H77.9518C80.3401 84.2809 82.283 82.3379 82.283 79.9498V71.9819C82.2831 68.0017 79.0448 64.7634 75.0645 64.7634Z" fill="black"/>
<path d="M42.7537 68.2214C42.7537 67.0074 42.969 65.8428 43.3632 64.7635H39.496C35.5156 64.7635 32.2773 68.0018 32.2773 71.9822V79.95C32.2773 82.3382 34.2202 84.2812 36.6085 84.2812H43.002C42.8418 83.8292 42.7537 83.3435 42.7537 82.8373V68.2214Z" fill="black"/>
<path d="M61.7023 61.0026H52.8612C48.8808 61.0026 45.6426 64.2408 45.6426 68.2212V82.8371C45.6426 83.6344 46.2889 84.2809 47.0863 84.2809H67.4771C68.2745 84.2809 68.9209 83.6345 68.9209 82.8371V68.2212C68.9209 64.2408 65.6826 61.0026 61.7023 61.0026Z" fill="black"/>
<path d="M57.2809 41.8626C52.494 41.8626 48.5996 45.757 48.5996 50.544C48.5996 53.791 50.3917 56.6267 53.0383 58.1156C54.2936 58.8217 55.7409 59.2253 57.2809 59.2253C58.8209 59.2253 60.2681 58.8217 61.5235 58.1156C64.1702 56.6267 65.9622 53.7909 65.9622 50.544C65.9622 45.7571 62.0678 41.8626 57.2809 41.8626Z" fill="black"/>
<path d="M42.0354 49.954C38.4554 49.954 35.543 52.8665 35.543 56.4465C35.543 60.0265 38.4554 62.939 42.0354 62.939C42.9435 62.939 43.8083 62.7508 44.5938 62.4127C45.952 61.828 47.0719 60.7929 47.7648 59.4964C48.2512 58.5864 48.5279 57.5483 48.5279 56.4465C48.5279 52.8666 45.6154 49.954 42.0354 49.954Z" fill="black"/>
<path d="M72.5237 49.954C68.9437 49.954 66.0312 52.8665 66.0312 56.4465C66.0312 57.5484 66.3079 58.5865 66.7943 59.4964C67.4873 60.793 68.6071 61.8281 69.9653 62.4127C70.7508 62.7508 71.6156 62.939 72.5237 62.939C76.1037 62.939 79.0162 60.0265 79.0162 56.4465C79.0162 52.8665 76.1037 49.954 72.5237 49.954Z" fill="black"/>
</g>
<g clip-path="url(#clip2)">
<path d="M93.1762 32.4473C92.8214 32.4414 92.4608 32.459 92.106 32.3947C91.3091 32.2427 91.0532 31.7811 91.0823 31.0564C91.1055 30.5538 91.2393 30.0629 91.3905 29.5837C91.4545 29.3733 91.5592 29.2331 91.7919 29.2331C92.0943 29.2331 92.3852 29.4142 92.4492 29.6246C92.5829 30.0746 92.5829 30.0629 93.0483 30.0805C94.0778 30.1155 95.0898 29.9811 96.0961 29.7883C96.2997 29.7473 96.352 29.6655 96.2764 29.4785C95.8867 28.5143 95.2818 27.7312 94.3802 27.1935C94.229 27.1058 94.072 27.0416 93.8916 27.0182C93.595 26.9831 93.4787 26.802 93.531 26.5156C93.6183 26.0714 93.7055 25.6215 93.7928 25.1773C93.8916 24.6747 94.357 24.4059 94.8456 24.5637C95.0433 24.628 95.2062 24.7449 95.3632 24.8793C96.48 25.8728 97.2652 27.0591 97.5793 28.5493C97.812 29.6597 97.5502 30.6824 97.0733 31.67C96.9977 31.822 96.8581 31.8804 96.7068 31.933C95.974 32.1902 95.212 32.307 94.4442 32.3947C94.0254 32.4356 93.6008 32.4707 93.1762 32.4473Z" fill="#1EAD5E"/>
<path d="M86.1087 29.2911C86.0738 30.1911 85.9516 31.0735 85.5852 31.9034C85.527 32.0261 85.4689 32.1488 85.3932 32.2599C85.2827 32.4177 85.1257 32.4878 84.9396 32.4352C84.7418 32.3826 84.6313 32.2424 84.6196 32.032C84.5382 31.0151 84.4626 29.9982 84.3812 28.9814C84.2707 27.684 84.1427 26.3866 84.0496 25.0893C83.9798 24.1191 83.8926 23.1549 83.8053 22.1848C83.7937 22.0387 83.846 21.9218 83.9158 21.7991C84.2125 21.2906 84.5149 20.7764 84.8058 20.2621C84.9163 20.0751 85.0559 19.964 85.2769 20.0108C85.4805 20.0575 85.5328 20.2212 85.5445 20.4082C85.591 21.1445 85.6434 21.8809 85.6957 22.6172C85.7713 23.751 85.8469 24.8847 85.9225 26.0185C85.9807 27.123 86.0447 28.21 86.1087 29.2911Z" fill="#1EAD5E"/>
<path d="M85.5916 34.5861C85.8242 34.5101 85.9987 34.4517 86.1732 34.4049C86.3361 34.3582 86.499 34.3465 86.6269 34.4868C86.7491 34.627 86.7433 34.7848 86.6676 34.9484C86.6618 34.966 86.6444 34.9835 86.6444 35.001C86.4815 35.6322 86.1442 36.0354 85.4404 36.1289C84.9285 36.1991 84.4923 36.4913 84.1782 36.9354C83.9979 37.1925 83.7826 37.1984 83.4395 37.0055C83.1952 36.8711 83.1486 36.6666 83.265 36.4387C83.4511 36.0763 83.5093 35.7783 83.1661 35.4335C82.9218 35.188 82.9858 34.8082 83.1196 34.4926C83.4046 33.8381 83.8699 33.3413 84.4864 32.9965C84.7715 32.8387 85.0855 32.8154 85.388 32.903C85.865 33.0374 86.086 33.6218 85.8533 34.1303C85.7952 34.2705 85.7021 34.3933 85.5916 34.5861ZM85.2891 34.6504C85.0506 34.4342 84.8296 34.3056 84.5388 34.3757C84.4923 34.3874 84.4399 34.4049 84.4341 34.4575C84.4225 34.516 84.469 34.5452 84.5097 34.5686C84.7424 34.7088 84.9867 34.7205 85.2891 34.6504Z" fill="#1EAD5E"/>
<path d="M88.999 28.7947C89.3887 28.7479 89.7668 28.8239 90.0867 29.1336C90.3136 29.3557 90.3775 29.6128 90.3717 29.9226C90.3485 31.0855 89.5458 31.629 88.6442 32.0381C87.9753 32.342 87.3064 31.8686 87.2075 31.1323C87.1494 30.6764 87.1319 30.2206 87.1959 29.7648C87.2832 29.1628 87.51 28.9408 88.1207 28.8414C88.4057 28.8005 88.6791 28.7771 88.999 28.7947Z" fill="#1EAD5E"/>
<path d="M56.501 0.00012207C25.3474 0.00012207 0.000976562 25.3465 0.000976562 56.5001C0.000976562 87.6537 25.3474 113 56.501 113C87.6545 113 113.001 87.6537 113.001 56.5001C113.001 25.3465 87.6545 0.00012207 56.501 0.00012207ZM56.501 98.8751C33.1362 98.8751 14.126 79.8649 14.126 56.5001C14.126 47.5824 16.8296 39.152 21.9702 31.9584L81.0427 91.0309C73.8491 96.1715 65.4187 98.8751 56.501 98.8751ZM91.0317 81.0419L31.9592 21.9694C39.1528 16.8287 47.5832 14.1251 56.501 14.1251C79.8657 14.1251 98.876 33.1354 98.876 56.5001C98.876 65.4179 96.1724 73.8483 91.0317 81.0419Z" fill="#AD1E1E"/>
</g>
<path d="M165.793 83.0001V79.9761H158.785L161.665 77.3361C162.985 76.1121 163.921 75.0561 164.425 74.1441C164.953 73.2321 165.217 72.1761 165.217 71.0001C165.217 69.4641 164.617 68.2161 163.441 67.2801C162.265 66.3441 160.873 65.8641 159.265 65.8641C157.369 65.8641 155.737 66.3921 154.369 67.4721V71.0241C155.809 69.7521 157.321 69.1041 158.905 69.1041C160.633 69.1041 161.785 70.0161 161.785 71.4561C161.785 72.1761 161.569 72.8481 161.113 73.4961C160.681 74.1441 159.913 74.9601 158.785 75.9921L153.841 80.4801V83.0001H165.793ZM175.348 83.3361C177.556 83.3361 179.308 82.4721 180.604 80.7681C181.924 79.0641 182.572 77.0001 182.572 74.6001C182.572 72.2001 181.924 70.1361 180.604 68.4321C179.308 66.7281 177.556 65.8641 175.348 65.8641C172.372 65.8641 170.044 67.7121 168.916 70.3281C168.364 71.6241 168.1 73.0401 168.1 74.6001C168.1 77.6961 169.204 80.4321 171.436 82.0881C172.564 82.9281 173.86 83.3361 175.348 83.3361ZM172.588 78.5121C171.892 77.4321 171.556 76.1361 171.556 74.6001C171.556 73.0641 171.892 71.7681 172.588 70.7121C173.284 69.6321 174.196 69.1041 175.348 69.1041C176.5 69.1041 177.412 69.6321 178.084 70.7121C178.78 71.7681 179.116 73.0641 179.116 74.6001C179.116 76.1361 178.78 77.4321 178.084 78.5121C177.412 79.5681 176.5 80.0961 175.348 80.0961C174.196 80.0961 173.284 79.5681 172.588 78.5121ZM197.954 83.3361C199.706 83.3361 201.146 82.7841 202.298 81.6801C203.474 80.5761 204.05 79.1601 204.05 77.4081C204.05 75.7521 203.546 74.4561 202.514 73.4721C201.482 72.4881 200.21 71.9841 198.674 71.9841C196.946 71.9841 195.65 72.5121 194.762 73.5441C194.858 72.2241 195.29 71.1441 196.082 70.2801C196.874 69.4161 197.978 68.9841 199.346 68.9841C200.57 68.9841 201.698 69.3441 202.754 70.0641V66.9441C201.674 66.2241 200.402 65.8641 198.962 65.8641C193.754 65.8641 191.258 70.4961 191.258 75.4641C191.258 80.3601 193.73 83.3361 197.954 83.3361ZM197.738 80.3601C195.914 80.3601 194.762 79.0641 194.666 76.7841C195.146 75.5601 196.418 74.6721 197.738 74.6721C199.394 74.6721 200.618 75.8481 200.618 77.4801C200.618 79.1841 199.442 80.3601 197.738 80.3601ZM217.579 83.0001V78.8001H220.051V76.0161H217.579V66.2001H214.171L205.795 76.3041V78.8001H214.219V83.0001H217.579ZM214.219 70.5441V76.0161H209.611L214.219 70.5441ZM227.914 65.8641C226.162 65.8641 224.722 66.4161 223.546 67.5201C222.394 68.6241 221.818 70.0401 221.818 71.7921C221.818 73.4481 222.322 74.7681 223.354 75.7521C224.386 76.7361 225.658 77.2161 227.194 77.2161C228.922 77.2161 230.218 76.6881 231.106 75.6561C231.01 76.9761 230.554 78.0561 229.762 78.9201C228.97 79.7841 227.89 80.2161 226.522 80.2161C225.298 80.2161 224.17 79.8561 223.114 79.1361V82.2561C224.194 82.9761 225.466 83.3361 226.906 83.3361C232.114 83.3361 234.61 78.7041 234.61 73.7361C234.61 68.8401 232.138 65.8641 227.914 65.8641ZM228.13 68.8401C229.954 68.8401 231.106 70.1121 231.202 72.3921C230.722 73.6401 229.45 74.5281 228.13 74.5281C226.474 74.5281 225.25 73.3521 225.25 71.7201C225.25 70.0161 226.426 68.8401 228.13 68.8401Z" fill="#1EAD5E"/>
<path d="M251.176 79.4473C250.821 79.4414 250.461 79.459 250.106 79.3947C249.309 79.2427 249.053 78.7811 249.082 78.0564C249.106 77.5538 249.239 77.0629 249.391 76.5837C249.455 76.3733 249.559 76.2331 249.792 76.2331C250.094 76.2331 250.385 76.4142 250.449 76.6246C250.583 77.0746 250.583 77.0629 251.048 77.0805C252.078 77.1155 253.09 76.9811 254.096 76.7883C254.3 76.7473 254.352 76.6655 254.276 76.4785C253.887 75.5143 253.282 74.7312 252.38 74.1935C252.229 74.1058 252.072 74.0416 251.892 74.0182C251.595 73.9831 251.479 73.802 251.531 73.5156C251.618 73.0714 251.706 72.6215 251.793 72.1773C251.892 71.6747 252.357 71.4059 252.846 71.5637C253.043 71.628 253.206 71.7449 253.363 71.8793C254.48 72.8728 255.265 74.0591 255.579 75.5493C255.812 76.6597 255.55 77.6824 255.073 78.67C254.998 78.822 254.858 78.8804 254.707 78.933C253.974 79.1902 253.212 79.307 252.444 79.3947C252.025 79.4356 251.601 79.4707 251.176 79.4473Z" fill="#1EAD5E"/>
<path d="M244.109 76.2911C244.074 77.1911 243.952 78.0735 243.585 78.9034C243.527 79.0261 243.469 79.1488 243.393 79.2599C243.283 79.4177 243.126 79.4878 242.94 79.4352C242.742 79.3826 242.631 79.2424 242.62 79.032C242.538 78.0151 242.463 76.9982 242.381 75.9814C242.271 74.684 242.143 73.3866 242.05 72.0893C241.98 71.1191 241.893 70.1549 241.805 69.1848C241.794 69.0387 241.846 68.9218 241.916 68.7991C242.212 68.2906 242.515 67.7764 242.806 67.2621C242.916 67.0751 243.056 66.964 243.277 67.0108C243.48 67.0575 243.533 67.2212 243.544 67.4082C243.591 68.1445 243.643 68.8809 243.696 69.6172C243.771 70.751 243.847 71.8847 243.923 73.0185C243.981 74.123 244.045 75.21 244.109 76.2911Z" fill="#1EAD5E"/>
<path d="M243.592 81.5861C243.824 81.5101 243.999 81.4517 244.173 81.4049C244.336 81.3582 244.499 81.3465 244.627 81.4868C244.749 81.627 244.743 81.7848 244.668 81.9484C244.662 81.966 244.644 81.9835 244.644 82.001C244.482 82.6322 244.144 83.0354 243.44 83.1289C242.928 83.1991 242.492 83.4913 242.178 83.9354C241.998 84.1925 241.783 84.1984 241.439 84.0055C241.195 83.8711 241.149 83.6666 241.265 83.4387C241.451 83.0763 241.509 82.7783 241.166 82.4335C240.922 82.188 240.986 81.8082 241.12 81.4926C241.405 80.8381 241.87 80.3413 242.486 79.9965C242.771 79.8387 243.086 79.8154 243.388 79.903C243.865 80.0374 244.086 80.6218 243.853 81.1303C243.795 81.2705 243.702 81.3933 243.592 81.5861ZM243.289 81.6504C243.051 81.4342 242.83 81.3056 242.539 81.3757C242.492 81.3874 242.44 81.4049 242.434 81.4575C242.422 81.516 242.469 81.5452 242.51 81.5686C242.742 81.7088 242.987 81.7205 243.289 81.6504Z" fill="#1EAD5E"/>
<path d="M246.999 75.7947C247.389 75.7479 247.767 75.8239 248.087 76.1336C248.314 76.3557 248.378 76.6128 248.372 76.9226C248.348 78.0855 247.546 78.629 246.644 79.0381C245.975 79.342 245.306 78.8686 245.208 78.1323C245.149 77.6764 245.132 77.2206 245.196 76.7648C245.283 76.1628 245.51 75.9408 246.121 75.8414C246.406 75.8005 246.679 75.7771 246.999 75.7947Z" fill="#1EAD5E"/>
<defs>
<linearGradient id="paint0_linear" x1="61.0776" y1="222.392" x2="242.887" y2="222.392" gradientUnits="userSpaceOnUse">
<stop stop-color="#272425"/>
<stop offset="0.1533" stop-color="#2A2829"/>
<stop offset="0.2904" stop-color="#353233"/>
<stop offset="0.4213" stop-color="#474546"/>
<stop offset="0.5483" stop-color="#615E5F"/>
<stop offset="0.6727" stop-color="#818080"/>
<stop offset="0.795" stop-color="#A9A8A9"/>
<stop offset="0.9134" stop-color="#D8D7D8"/>
<stop offset="1" stop-color="white"/>
</linearGradient>
<linearGradient id="paint1_linear" x1="158.739" y1="203.697" x2="183.536" y2="221.863" gradientUnits="userSpaceOnUse">
<stop stop-color="#6E6F71"/>
<stop offset="0.7066" stop-color="#909091"/>
<stop offset="1" stop-color="#9F9F9F"/>
</linearGradient>
<linearGradient id="paint2_linear" x1="161.795" y1="212.731" x2="180.214" y2="213.415" gradientUnits="userSpaceOnUse">
<stop stop-color="#D4D4D6"/>
<stop offset="1" stop-color="#E5E5E6"/>
</linearGradient>
<linearGradient id="paint3_linear" x1="50.8795" y1="195.572" x2="75.6783" y2="213.74" gradientUnits="userSpaceOnUse">
<stop stop-color="#6E6F71"/>
<stop offset="0.7066" stop-color="#909091"/>
<stop offset="1" stop-color="#9F9F9F"/>
</linearGradient>
<linearGradient id="paint4_linear" x1="53.9383" y1="204.608" x2="72.3558" y2="205.292" gradientUnits="userSpaceOnUse">
<stop stop-color="#D4D4D6"/>
<stop offset="1" stop-color="#E5E5E6"/>
</linearGradient>
<linearGradient id="paint5_linear" x1="264.11" y1="192.505" x2="281.844" y2="205.498" gradientUnits="userSpaceOnUse">
<stop stop-color="#6E6F71"/>
<stop offset="0.7066" stop-color="#909091"/>
<stop offset="1" stop-color="#9F9F9F"/>
</linearGradient>
<linearGradient id="paint6_linear" x1="266.772" y1="198.964" x2="278.991" y2="199.418" gradientUnits="userSpaceOnUse">
<stop stop-color="#D4D4D6"/>
<stop offset="1" stop-color="#E5E5E6"/>
</linearGradient>
<clipPath id="clip0">
<rect width="274" height="136" fill="white" transform="translate(18.001 108)"/>
</clipPath>
<clipPath id="clip1">
<rect width="50.0057" height="50.0057" fill="white" transform="translate(32.2773 38.0692)"/>
</clipPath>
<clipPath id="clip2">
<rect width="113" height="113" fill="white" transform="translate(0.000976562 0.00012207)"/>
</clipPath>
</defs>
</svg>
