<svg width="484" height="475" viewBox="0 0 484 475" fill="none" xmlns="http://www.w3.org/2000/svg">
<g clip-path="url(#clip0)">
<path d="M439.016 371.527C341.402 496.563 112.82 498.575 49.5466 429.122C24.2974 401.401 17.6194 353.811 7.8228 283.881C3.10068 250.231 2.43112 223.093 2.02586 204.477C0.633894 141.164 -0.0532798 109.508 10.131 87.9631C39.2919 26.3096 140.571 2.31166 206.029 1.19999C210.592 1.12941 215.209 1.14706 219.86 1.28822C296.507 3.58214 383.003 35.5382 436.355 103.809C441.87 110.849 447.015 118.278 451.773 126.113C500.457 206.312 492.263 303.327 439.016 371.527Z" fill="#F4F7FA"/>
<path d="M203.738 376.485C220.988 364.292 224.071 332.336 219.843 310.897C214.909 285.858 201.994 285.205 199.686 265.424C195.369 228.616 238.361 215.823 236.934 178.361C235.771 147.729 206.61 144.658 206.857 110.691C207.033 86.1809 222.327 75.9818 215.455 54.5954C214.874 52.7603 208.266 33.1385 191.51 28.5506C174.612 23.9275 157.275 37.3205 148.694 48.1195C132.836 68.0766 144.571 82.1048 134.457 112.667C120.678 154.275 90.7772 152.899 86.9536 185.649C83.7997 212.682 103.463 219.846 99.358 249.755C95.5521 277.529 77.2275 281.429 76.4522 300.362C74.6902 343.876 168.551 401.365 203.738 376.485Z" fill="url(#paint0_linear)"/>
<g opacity="0.7">
<path opacity="0.7" d="M178.859 396.936C178.754 396.936 178.648 396.919 178.56 396.848C162.367 387.319 148.87 374.826 138.457 359.704C128.572 345.358 118.353 330.518 119.181 311.973C119.815 297.857 126.37 290.322 134.669 280.776C142.58 271.671 152.447 260.342 159.337 239.362C163.266 227.38 168.164 212.487 164.394 194.63C162.209 184.272 158.156 178.414 154.579 173.244C150.844 167.827 147.619 163.151 148.236 155.122C149.223 142.276 156.077 134.053 164.024 124.56C168.834 118.79 173.82 112.843 178.172 105.097C190.436 83.3399 190.77 54.0483 179.141 18.0162C179.036 17.6985 179.212 17.3633 179.529 17.275C179.846 17.1692 180.181 17.3456 180.269 17.6632C192.004 54.013 191.651 83.6222 179.212 105.679C174.789 113.514 169.785 119.513 164.94 125.319C157.134 134.671 150.386 142.735 149.434 155.21C148.853 162.815 151.813 167.121 155.584 172.556C159.213 177.814 163.336 183.778 165.574 194.366C169.415 212.523 164.464 227.592 160.482 239.715C153.522 260.924 143.567 272.359 135.585 281.534C127.427 290.904 120.996 298.315 120.379 312.008C119.569 330.165 129.665 344.829 139.444 359.016C149.769 373.997 163.125 386.384 179.177 395.824C179.459 395.983 179.547 396.354 179.388 396.636C179.265 396.83 179.053 396.936 178.859 396.936Z" fill="white"/>
</g>
<g opacity="0.7">
<path opacity="0.7" d="M166.19 203.7C166.032 203.7 165.873 203.629 165.75 203.506C165.538 203.259 165.556 202.888 165.803 202.659C193.237 178.114 206.135 155.334 212.108 140.547C218.592 124.542 218.592 114.184 218.592 114.096C218.592 113.761 218.856 113.496 219.173 113.496C219.49 113.496 219.755 113.761 219.772 114.078C219.772 114.502 219.79 124.701 213.235 140.917C207.209 155.828 194.224 178.82 166.578 203.541C166.472 203.647 166.331 203.7 166.19 203.7Z" fill="white"/>
</g>
<g opacity="0.7">
<path opacity="0.7" d="M152.993 256.778C152.87 256.778 152.729 256.742 152.623 256.636C137.311 244.108 125.664 229.886 118.017 214.393C111.886 201.988 108.309 188.736 107.34 174.991C105.701 151.61 112.379 134.688 112.45 134.529C112.573 134.229 112.925 134.071 113.225 134.194C113.524 134.318 113.683 134.671 113.56 134.971C113.489 135.129 106.899 151.84 108.538 174.955C110.036 196.289 119.039 227.61 153.381 255.701C153.627 255.913 153.68 256.284 153.469 256.531C153.328 256.707 153.151 256.778 152.993 256.778Z" fill="white"/>
</g>
<g opacity="0.7">
<path opacity="0.7" d="M127.919 344.476C127.655 344.476 127.426 344.3 127.356 344.053C127.268 343.735 127.444 343.4 127.761 343.311C168.216 331.418 189.307 309.82 199.879 293.798C211.314 276.47 213.235 261.789 213.252 261.63C213.288 261.313 213.587 261.066 213.922 261.119C214.239 261.154 214.486 261.454 214.433 261.789C214.415 261.93 212.46 276.894 200.866 294.469C190.188 310.65 168.886 332.477 128.096 344.458C128.043 344.476 127.972 344.476 127.919 344.476Z" fill="white"/>
</g>
<g opacity="0.7">
<path opacity="0.7" d="M180.04 101.85C179.881 101.85 179.723 101.779 179.599 101.656C156.465 76.5287 153.645 50.3074 155.355 32.7501C157.222 13.7106 164.64 0.441184 164.728 0.300019C164.887 0.0176909 165.257 -0.0881823 165.539 0.0706275C165.821 0.229437 165.926 0.599993 165.768 0.882322C165.697 1.00584 158.368 14.1165 156.553 32.909C154.879 50.2192 157.663 76.0699 180.498 100.844C180.727 101.091 180.709 101.462 180.463 101.691C180.322 101.797 180.181 101.85 180.04 101.85Z" fill="white"/>
</g>
<path d="M159.089 463.107C163.476 463.725 173.555 461.219 175.898 459.472C191.58 447.896 222.362 428.116 226.661 407.947C227.401 404.506 213.129 397.166 211.878 393.478C203.914 386.596 200.725 384.708 196.373 374.438C183.51 344.123 241.356 309.873 193.554 278.993C158.543 256.372 122.528 260.642 143.073 202.2C163.617 143.758 146.385 22.1275 72.0999 46.3195C29.4598 60.2065 52.1013 120.995 23.24 153.234C-4.17654 183.866 2.78331 217.269 34.5872 248.996C66.391 280.723 41.7408 291.539 21.478 322.278C-2.85505 359.175 57.4401 383.579 86.231 392.472C109.436 399.636 163.653 433.533 159.089 463.107Z" fill="url(#paint1_linear)"/>
<g opacity="0.7">
<g opacity="0.7">
<path opacity="0.7" d="M200.285 435.28L200.902 434.574C92.24 338.565 52.2253 188.401 93.8611 32.8736L92.9448 32.6266C73.2106 106.332 71.8539 181.714 89.0156 250.619C107.058 323.054 145.54 386.914 200.285 435.28Z" fill="#FCFDFE"/>
<path opacity="0.7" d="M9.62024 336.465C49.2121 334.577 110.018 351.04 145.17 373.168L145.663 372.374C110.371 350.158 49.3178 333.624 9.56738 335.53L9.62024 336.465Z" fill="#FCFDFE"/>
<path opacity="0.7" d="M179.159 416.188L179.951 415.676C168.358 397.448 166.419 374.05 174.172 346.135C179.863 325.666 190.541 303.291 205.905 279.611L205.113 279.099C189.695 302.85 178.982 325.313 173.273 345.87C165.433 374.068 167.424 397.73 179.159 416.188Z" fill="#FCFDFE"/>
<path opacity="0.7" d="M86.954 240.738L87.7645 240.279C67.6779 204.794 29.108 186.125 0.299538 176.702L0 177.602C28.6675 186.954 67.026 205.517 86.954 240.738Z" fill="#FCFDFE"/>
<path opacity="0.7" d="M76.9287 147.905L77.8449 148.081C86.8311 103.015 122.952 71.0938 143.69 56.0775L143.144 55.3187C122.3 70.4233 85.9853 102.521 76.9287 147.905Z" fill="#FCFDFE"/>
</g>
</g>
<path d="M480.547 434.698L14.4307 430.639V442.673C14.4307 445.938 16.4569 448.708 19.2233 449.202L151.02 472.883C152.588 473.165 154.174 473.235 155.742 473.112L475.472 446.097C478.326 445.85 480.529 443.079 480.529 439.709V434.698H480.547Z" fill="#2E4661"/>
<path d="M330.496 415.2L19.5581 437.204C13.9902 437.592 9.46191 433.41 9.46191 427.852V205.254C9.46191 199.695 13.9902 195.196 19.5581 195.196H330.496C335.077 195.196 338.777 199.272 338.777 204.283V405.513C338.777 410.542 335.077 414.883 330.496 415.2Z" fill="#2E4661"/>
<path d="M335.447 415.199L24.5093 437.203C18.9414 437.591 14.4131 433.409 14.4131 427.851V205.253C14.4131 199.694 18.9414 195.195 24.5093 195.195H335.447C340.028 195.195 343.728 199.271 343.728 204.282V405.512C343.746 410.541 340.028 414.882 335.447 415.199Z" fill="#1D2126"/>
<path d="M325.756 401.012L36.1562 420.122C31.6279 420.422 27.9453 416.981 27.9453 412.446V217.569C27.9453 213.034 31.6279 209.346 36.1562 209.329L325.756 208.129C329.545 208.111 332.593 211.446 332.593 215.575V393.089C332.61 397.218 329.545 400.765 325.756 401.012Z" fill="#1EAD5E"/>
<path d="M190.964 201.283C190.964 203.347 189.361 205.041 187.387 205.041C185.414 205.041 183.811 203.365 183.811 201.3C183.811 199.236 185.414 197.542 187.387 197.542C189.361 197.542 190.964 199.218 190.964 201.283Z" fill="white"/>
<path opacity="0.48" d="M260.623 353.857C236.66 340.941 217.807 357.316 199.623 341.153C188.593 331.359 194.002 324.054 180.435 309.426C165.405 293.227 155.626 298.662 140.526 284.087C121.426 265.647 130.976 251.302 114.537 238.067C94.5734 222.01 73.0595 236.867 54.0653 221.463C45.8721 214.828 41.379 205.158 39.0356 194.889H20.429C17.1693 194.889 14.5264 197.536 14.5264 200.8V431.551C14.5264 434.815 17.1693 437.268 20.429 437.038L337.322 414.505C338.873 414.399 340.265 413.482 341.146 412.158C317.94 411.311 303.703 403.529 294.594 395.465C276.763 379.743 279.846 364.215 260.623 353.857Z" fill="white"/>
<path d="M327.694 414.211L14.4307 437.362L151.02 461.907C152.588 462.189 154.174 462.26 155.742 462.136L480.529 434.698L332.681 414.37C331.024 414.141 329.35 414.088 327.694 414.211Z" fill="#1D2126"/>
<path opacity="0.3" d="M60.1367 437.944L320.946 418.376L401.663 429.386L143.091 450.314L60.1367 437.944Z" fill="url(#paint2_linear)"/>
<path d="M319.73 86.6572V387.831C319.73 395.542 313.633 401.948 305.74 402.459L303.202 402.618L47.4678 418.376C54.04 417.317 58.7797 411.776 58.7797 405.265V82.2458L233.604 85.1926L319.73 86.6572Z" fill="white"/>
<path d="M292.525 185.719L92.2578 187.502V152.44L292.525 152.387V185.719Z" fill="#D8DEE8"/>
<path d="M237.499 214.958L104.892 217.111V197.295L237.499 195.795V214.958Z" fill="#D8DEE8"/>
<path d="M281.037 214.252L248.458 214.782V195.671L281.037 195.301V214.252Z" fill="#D8DEE8"/>
<path d="M186.718 242.609L104.892 244.497V224.681L186.718 223.198V242.609Z" fill="#D8DEE8"/>
<path d="M281.037 240.438L248.458 241.197V222.087L281.037 221.487V240.438Z" fill="#D8DEE8"/>
<path d="M208.496 268.794L104.892 271.865V252.066L208.496 249.49V268.794Z" fill="#D8DEE8"/>
<path d="M281.037 266.624L248.458 267.594V248.502L281.037 247.69V266.624Z" fill="#D8DEE8"/>
<path d="M150.157 297.61L104.892 299.251V279.452L150.157 278.023V297.61Z" fill="#D8DEE8"/>
<path d="M281.037 292.828L248.458 294.01V274.9L281.037 273.876V292.828Z" fill="#D8DEE8"/>
<path d="M92.2578 178.15V336.783L192.691 332.195L292.525 327.642V176.826L92.2578 178.15ZM286.957 322.349L190.594 326.601L98.4071 330.677V183.955L286.957 182.437V322.349Z" fill="#D8DEE8"/>
<path d="M187.123 344.776L95.4646 349.24C93.7026 349.329 92.2754 350.758 92.2754 352.434V375.003C92.2754 376.679 93.7026 377.95 95.4646 377.861L187.123 372.744C188.815 372.656 190.171 371.244 190.171 369.621V347.599C190.171 345.941 188.815 344.688 187.123 344.776Z" fill="#D8DEE8"/>
<path d="M289.636 339.782L202.7 344.017C201.026 344.106 199.669 345.482 199.669 347.123V369.092C199.669 370.715 201.026 371.968 202.7 371.88L289.636 367.027C291.239 366.939 292.526 365.58 292.526 363.974V342.517C292.526 340.929 291.239 339.694 289.636 339.782Z" fill="#D8DEE8"/>
<path d="M292.525 140.3L92.2578 139.241V115.984L292.525 117.255V140.3Z" fill="#D8DEE8"/>
<g opacity="0.7">
<path opacity="0.7" d="M319.73 78.3462V143.723L279.539 143.599L271.927 152.369L260.704 165.286C260.14 165.939 259.435 166.309 258.712 166.433L258.642 166.503C255.435 170.138 251.524 168.533 251.524 165.25V143.352L246.308 143.299C243.119 143.264 240.194 142.029 237.992 140C235.366 137.635 233.728 134.159 233.728 130.312V76.864L319.73 78.3462Z" fill="#D8DEE8"/>
</g>
<path opacity="0.1" d="M59.0449 314.567L60.1374 433.992L78.7615 432.968L59.0449 314.567Z" fill="url(#paint3_linear)"/>
<path d="M275.839 425.363C276.28 428.398 274.359 431.063 271.575 431.257L84.0997 444.667C80.6991 444.897 76.4527 442.091 75.9946 438.721L59.0442 314.567C58.5861 311.214 62.1101 308.232 65.5284 308.232L253.321 304.35C256.122 304.333 258.765 306.803 259.188 309.82L275.839 425.363Z" fill="url(#paint4_linear)"/>
<path d="M279.539 425.522C279.979 428.575 278.041 431.239 275.24 431.451L85.4738 444.685C82.0556 444.914 78.884 442.338 78.4259 438.95L61.3875 314.143C60.9294 310.773 63.3609 308.02 66.7968 308.003L256.897 303.856C259.717 303.838 262.377 306.326 262.8 309.362L279.539 425.522Z" fill="url(#paint5_linear)"/>
<g opacity="0.7">
<path opacity="0.7" d="M133.295 401.206L100.927 402.583C99.4648 402.653 98.0376 401.595 97.7556 400.236L96.1875 392.807C95.9055 391.448 96.8746 390.301 98.3371 390.249L130.793 389.084C132.202 389.031 133.577 390.072 133.859 391.413L135.374 398.701C135.638 400.007 134.705 401.153 133.295 401.206Z" fill="#F4F7FA"/>
<path opacity="0.7" d="M174.914 399.442L143.973 400.748C142.581 400.801 141.207 399.777 140.942 398.454L139.445 391.201C139.163 389.878 140.097 388.749 141.489 388.696L172.5 387.584C173.856 387.531 175.16 388.554 175.425 389.86L176.869 396.989C177.134 398.277 176.253 399.389 174.914 399.442Z" fill="#F4F7FA"/>
<path opacity="0.7" d="M214.699 397.748L185.115 399.001C183.776 399.054 182.472 398.048 182.207 396.742L180.78 389.649C180.516 388.36 181.397 387.249 182.736 387.196L212.408 386.137C213.694 386.084 214.963 387.09 215.209 388.36L216.584 395.33C216.848 396.619 215.985 397.695 214.699 397.748Z" fill="#F4F7FA"/>
<path opacity="0.7" d="M252.793 396.142L224.46 397.342C223.191 397.395 221.94 396.407 221.676 395.136L220.302 388.184C220.055 386.913 220.901 385.837 222.169 385.802L250.573 384.778C251.806 384.725 253.022 385.714 253.268 386.966L254.59 393.795C254.854 395.03 254.044 396.089 252.793 396.142Z" fill="#F4F7FA"/>
</g>
<path d="M113.666 371.562L98.2133 372.091C95.3941 372.197 92.7511 369.956 92.3635 367.133L90.2491 351.764C89.8614 348.94 91.8701 346.594 94.6893 346.523L110.16 346.188C112.943 346.135 115.516 348.358 115.904 351.128L118 366.304C118.388 369.109 116.432 371.474 113.666 371.562Z" fill="url(#paint6_linear)"/>
<path d="M112.38 370.133L99.1122 370.591C96.5045 370.68 94.0729 368.633 93.7205 366.021L91.9057 352.822C91.5533 350.211 93.3858 348.04 96.0111 347.987L109.297 347.688C111.869 347.635 114.248 349.681 114.6 352.258L116.397 365.315C116.75 367.892 114.952 370.062 112.38 370.133ZM96.0816 348.64C93.8263 348.693 92.2405 350.564 92.5576 352.805L94.3725 366.004C94.6896 368.245 96.7688 370.009 99.0241 369.939L112.292 369.497C114.512 369.427 116.063 367.556 115.745 365.333L113.948 352.275C113.649 350.052 111.587 348.287 109.367 348.34L96.0816 348.64Z" fill="url(#paint7_linear)"/>
<path d="M92.4512 354.446L114.494 353.881L92.4512 354.446Z" fill="#F4F7FA"/>
<path d="M114.529 354.199L92.5041 354.781L92.416 354.128L114.441 353.546L114.529 354.199Z" fill="url(#paint8_linear)"/>
<path d="M93.1377 359.404L115.18 358.786L93.1377 359.404Z" fill="#F4F7FA"/>
<path d="M115.215 359.104L93.1731 359.739L93.085 359.087L115.127 358.469L115.215 359.104Z" fill="url(#paint9_linear)"/>
<path d="M93.8086 364.38L115.833 363.709L93.8086 364.38Z" fill="#F4F7FA"/>
<path d="M115.886 364.027L93.8615 364.698L93.7734 364.045L115.798 363.374L115.886 364.027Z" fill="url(#paint10_linear)"/>
<path d="M108.469 367.574L102.319 367.768C100.751 367.821 99.2889 366.586 99.0774 365.016L97.4917 353.511C97.2802 351.94 98.3903 350.634 99.9584 350.599L106.125 350.458C107.676 350.423 109.138 351.658 109.35 353.211L110.936 364.645C111.112 366.198 110.019 367.521 108.469 367.574Z" fill="#FEC045"/>
<path d="M108.504 367.892L102.354 368.086C100.61 368.139 98.9713 366.762 98.7422 365.016L97.1564 353.511C96.9097 351.764 98.1431 350.299 99.9051 350.264L106.072 350.123C107.816 350.087 109.42 351.464 109.667 353.193L111.252 364.627C111.464 366.374 110.248 367.839 108.504 367.892ZM99.9932 350.934C98.6012 350.97 97.6145 352.117 97.8083 353.511L99.3941 364.998C99.588 366.392 100.874 367.486 102.266 367.433L108.416 367.239C109.79 367.186 110.759 366.039 110.565 364.645L108.979 353.211C108.786 351.834 107.517 350.74 106.125 350.776L99.9932 350.934Z" fill="url(#paint11_linear)"/>
<path opacity="0.15" d="M146.632 409.235C130.756 412.041 120.396 412.747 108.097 409.535C91.0588 405.088 78.6192 395.313 71.5889 388.802L78.4254 438.933C78.8835 442.32 82.0727 444.914 85.4733 444.667L275.239 431.433C278.041 431.239 279.979 428.575 279.538 425.504L276.878 406.994C247.47 390.937 225.727 389.825 210.962 392.048C192.937 394.766 183.704 402.671 146.632 409.235Z" fill="#1EAD5E"/>
<g opacity="0.42">
<path opacity="0.42" d="M146.157 424.057L102.002 426.775C101.156 426.828 100.363 426.175 100.24 425.31L99.2706 418.287C99.1473 417.44 99.764 416.699 100.61 416.646L144.783 414.158C145.593 414.105 146.369 414.758 146.474 415.587L147.426 422.452C147.531 423.281 146.968 424.004 146.157 424.057Z" fill="#1EAD5E"/>
<path opacity="0.42" d="M227.613 419.24L171.653 422.681C170.842 422.734 170.085 422.099 169.961 421.252L169.01 414.388C168.886 413.558 169.468 412.835 170.278 412.799L226.257 409.641C227.032 409.606 227.737 410.223 227.86 411.035L228.812 417.687C228.917 418.499 228.371 419.205 227.613 419.24Z" fill="#1EAD5E"/>
</g>
<path opacity="0.26" d="M248.581 336.518C249.726 344.582 243.753 351.358 235.261 351.623C226.803 351.887 219.05 345.623 217.923 337.612C216.795 329.601 222.68 322.86 231.12 322.525C239.613 322.19 247.436 328.454 248.581 336.518Z" fill="#1EAD5E"/>
<g opacity="0.53">
<path opacity="0.53" d="M126.863 359.739C125.982 360.728 124.344 360.798 123.181 359.881C122.018 358.963 121.806 357.41 122.705 356.422C123.604 355.434 125.242 355.399 126.388 356.316C127.533 357.234 127.744 358.769 126.863 359.739Z" fill="#F4F7FA"/>
<g opacity="0.53">
<path opacity="0.53" d="M136.306 369.003C136.06 369.021 135.813 368.951 135.602 368.774C135.179 368.439 135.091 367.857 135.425 367.486C140.183 361.892 138.985 353.334 132.712 348.111C132.289 347.758 132.201 347.176 132.536 346.823C132.853 346.47 133.47 346.47 133.892 346.823C140.923 352.734 142.279 362.386 136.958 368.704C136.782 368.88 136.553 368.986 136.306 369.003Z" fill="#F4F7FA"/>
<path opacity="0.53" d="M133.241 366.568C132.994 366.586 132.73 366.498 132.519 366.339C132.096 366.004 132.008 365.421 132.343 365.033C135.902 360.922 135.003 354.569 130.352 350.723C129.929 350.37 129.841 349.787 130.175 349.417C130.51 349.046 131.109 349.046 131.55 349.399C137.012 353.934 138.069 361.398 133.911 366.251C133.735 366.462 133.488 366.568 133.241 366.568Z" fill="#F4F7FA"/>
<path opacity="0.53" d="M130.14 364.116C129.894 364.133 129.629 364.045 129.418 363.886C128.977 363.533 128.907 362.951 129.242 362.581C131.55 359.951 130.986 355.858 127.956 353.405C127.515 353.052 127.445 352.47 127.779 352.099C128.114 351.728 128.731 351.728 129.171 352.081C131.039 353.617 132.237 355.663 132.554 357.869C132.854 360.075 132.255 362.192 130.828 363.833C130.634 363.992 130.387 364.098 130.14 364.116Z" fill="#F4F7FA"/>
</g>
</g>
<path d="M345.279 30.5091L250.167 24.6684C243.189 24.3155 237.498 29.768 237.498 36.8791V125.866C237.498 132.977 243.189 138.782 250.167 138.853L255.453 138.906V160.821C255.453 164.103 259.347 165.709 262.553 162.074L282.446 139.17L345.279 139.364C351.146 139.417 355.904 134.212 355.904 127.736V42.7727C355.904 36.2968 351.146 30.8091 345.279 30.5091Z" fill="url(#paint12_linear)"/>
<path d="M348.292 137.017L253.18 136.523C246.203 136.453 240.512 130.647 240.512 123.536V34.5499C240.512 27.4387 246.203 21.9686 253.18 22.3392L348.292 28.1799C354.16 28.4798 358.917 33.9852 358.917 40.4611V125.389C358.917 131.865 354.16 137.07 348.292 137.017Z" fill="url(#paint13_linear)"/>
<path d="M244.123 125.936V32.3796C244.123 28.6034 247.154 25.6743 250.871 25.8684L350.23 31.6208C353.366 31.7796 355.886 34.7088 355.886 38.1673V127.489C355.886 130.948 353.349 133.718 350.23 133.683L250.871 132.853C247.154 132.818 244.123 129.712 244.123 125.936Z" fill="url(#paint14_linear)"/>
<path d="M337.086 45.5077C337.632 45.5253 338.09 46.0194 338.09 46.6017V117.466C338.09 118.049 337.65 118.507 337.086 118.507L267.663 117.36C267.082 117.343 266.606 116.866 266.606 116.266V43.4432C266.606 42.8432 267.082 42.3844 267.663 42.4197L337.086 45.5077ZM337.086 41.4845L267.663 38.2907C264.844 38.1672 262.554 40.3905 262.554 43.2667V116.178C262.554 119.054 264.844 121.419 267.663 121.472L337.086 122.513C339.746 122.548 341.914 120.325 341.914 117.519V46.7605C341.914 43.9725 339.764 41.608 337.086 41.4845Z" fill="white"/>
<path d="M258.466 158.492V132.077L289.301 132.412L264.58 160.857C262.466 163.309 258.466 161.774 258.466 158.492Z" fill="url(#paint15_linear)"/>
<path d="M376.413 426.985C376.775 426.985 375.689 431.096 375.568 431.458C374.965 433.151 376.413 433.393 377.86 433.393C379.187 433.393 380.635 433.393 381.962 433.272C382.324 433.272 382.807 433.151 383.169 433.03C384.134 432.546 384.375 431.337 384.496 430.37C384.496 430.128 384.858 427.71 384.737 427.71C384.737 427.71 376.533 426.985 376.413 426.985Z" fill="#EEBC93"/>
<path d="M383.53 428.557C380.755 428.194 377.98 427.831 375.326 427.589C376.171 417.917 377.015 410.662 377.739 402.319C378.342 395.67 379.187 388.899 380.031 382.249C381.961 367.498 383.409 352.747 384.857 337.996C386.184 324.334 386.546 310.309 391.009 297.13C392.337 293.019 394.146 288.908 397.283 285.885C400.419 282.862 405.124 281.17 409.106 282.742C413.207 284.313 417.189 288.424 418.516 292.535C420.084 297.371 418.878 302.933 418.033 307.89C416.103 319.498 412.604 330.742 408.382 341.624C405.728 348.395 402.712 355.165 400.54 362.299C398.731 368.223 398.248 374.39 397.765 380.556C397.162 386.722 396.076 392.405 394.749 398.45C394.508 399.78 394.146 400.99 393.905 402.319C391.975 410.904 390.044 419.488 387.632 427.952C387.511 428.315 387.39 428.677 387.028 428.919C386.787 429.04 386.546 429.04 386.184 429.04C385.219 428.798 384.374 428.677 383.53 428.557Z" fill="#D8EEE0"/>
<path d="M384.012 430.007C384.012 430.007 384.012 429.886 384.012 430.007C384.254 429.766 384.374 429.524 384.616 429.524C384.736 429.524 384.857 429.524 384.978 429.645C386.425 430.612 385.943 432.909 385.581 434.36C384.978 436.536 383.892 437.504 381.6 437.866C375.326 438.834 368.932 438.592 362.659 437.383C362.297 437.262 361.935 437.262 361.573 437.02C360.005 436.053 360.849 433.876 362.176 433.151C363.262 432.546 364.589 432.546 365.916 432.426C369.174 432.184 372.793 431.458 375.688 430.128C375.93 430.007 376.05 430.007 376.291 430.007C376.412 430.007 376.653 430.128 376.774 430.128C378.584 430.612 382.324 431.579 384.012 430.007Z" fill="#1EAD5E"/>
<path d="M422.015 426.743C422.256 426.622 422.618 430.854 422.618 431.216C422.618 433.03 424.066 432.788 425.393 432.426C426.72 432.063 428.047 431.579 429.253 431.096C429.615 430.975 429.977 430.733 430.218 430.491C430.942 429.766 430.821 428.436 430.701 427.468C430.701 427.227 430.218 424.808 430.098 424.808C430.098 424.808 422.135 426.743 422.015 426.743Z" fill="#EEBC93"/>
<path d="M426.961 321.069C426.478 333.523 424.307 345.856 424.789 358.188C425.03 364.475 425.996 369.916 427.443 375.962C428.77 381.886 429.494 387.811 430.218 393.856C430.339 395.186 430.459 396.516 430.58 397.846C431.545 406.551 432.39 415.378 432.751 424.083C432.751 424.446 432.751 424.808 432.51 425.171C432.269 425.413 432.028 425.413 431.786 425.534C430.942 425.655 430.097 425.897 429.253 426.017C426.478 426.622 423.824 427.106 421.049 427.71C418.878 418.279 417.309 411.146 415.379 403.045C413.811 396.516 412.484 389.866 411.157 383.337C408.382 368.828 405.004 354.319 401.747 339.81C398.731 326.389 394.629 312.969 394.629 299.064C394.629 294.711 394.991 290.238 396.921 286.369C398.851 282.5 402.832 279.356 407.176 279.598C425.754 280.686 427.564 307.286 426.961 321.069Z" fill="#D8EEE0"/>
<path d="M430.097 427.227C430.097 427.227 430.097 427.106 430.218 427.106C430.338 426.864 430.338 426.743 430.579 426.622C430.7 426.501 430.821 426.622 430.941 426.622C432.63 427.106 432.992 429.403 432.992 430.854C433.113 433.151 432.389 434.36 430.338 435.448C424.668 438.35 418.515 440.164 412.242 441.01C411.88 441.01 411.518 441.131 411.036 441.01C409.226 440.526 409.347 438.229 410.432 437.141C411.277 436.174 412.604 435.811 413.69 435.206C416.706 433.876 419.842 432.184 422.255 429.887C422.376 429.766 422.617 429.645 422.738 429.524C422.858 429.524 423.1 429.524 423.22 429.524C425.151 429.524 429.011 429.282 430.097 427.227Z" fill="#1EAD5E"/>
<path d="M396.197 204.998C395.956 208.867 396.559 212.857 397.765 215.638C399.454 219.507 402.953 222.771 407.055 223.497C411.277 224.222 415.379 222.046 417.671 218.539C422.014 211.769 422.859 200.524 417.068 194.358C407.778 184.443 396.921 194.237 396.197 204.998Z" fill="#FAB594"/>
<path d="M409.83 311.759C402.591 311.759 394.388 310.55 387.029 310.55C386.908 298.218 389.321 277.905 390.889 265.694C391.251 262.792 391.734 259.769 392.458 256.867C393.302 254.086 394.388 251.306 395.594 248.646C397.525 244.051 399.455 239.698 401.868 235.346C404.039 231.356 406.573 225.31 405.607 220.837C405.366 219.749 405.004 218.66 404.884 217.693C404.884 217.451 404.763 217.21 404.884 217.089C405.004 216.605 405.607 216.484 406.09 216.363C407.538 216.121 409.106 216.121 410.674 215.759C411.519 215.517 412.605 214.912 413.449 215.517C415.017 216.484 415.741 220.474 416.465 222.167C417.672 224.585 418.999 227.003 420.567 229.179C423.824 233.653 426.961 239.215 428.167 244.656C429.012 248.162 429.012 251.789 429.012 255.416C429.132 261.099 429.132 266.782 428.771 272.464C428.047 282.621 426.72 301.603 427.805 311.759C422.135 311.759 415.379 311.759 409.83 311.759Z" fill="#1EAD5E"/>
<path d="M404.763 217.693C404.763 217.451 404.642 217.21 404.763 217.089C404.884 216.605 405.487 216.484 405.969 216.363C407.417 216.121 408.985 216.121 410.554 215.759C411.278 215.638 412.243 215.154 412.967 215.275C413.208 215.396 413.329 215.517 413.57 215.517C415.018 216.605 415.621 220.353 416.465 221.925C417.189 223.497 418.154 225.069 419.119 226.64C417.792 228.212 415.621 229.542 413.932 230.268C411.398 231.356 407.176 232.081 403.557 231.477C405.004 228.091 406.452 224.585 405.728 220.837C405.366 219.869 405.004 218.781 404.763 217.693Z" fill="#EEBC93"/>
<path d="M396.197 204.998C395.956 208.867 396.438 212.857 397.645 215.638C399.334 219.507 402.712 222.771 406.934 223.497C411.157 224.222 415.258 222.167 417.55 218.539C421.894 211.769 422.859 200.524 417.068 194.358C407.899 184.443 396.921 194.237 396.197 204.998Z" fill="#EEBC93"/>
<path d="M416.344 187.466C414.655 187.345 412.966 187.224 411.277 187.345C409.709 187.466 408.382 187.587 406.934 186.862C406.452 186.62 405.969 186.257 405.487 186.136C404.883 185.894 404.28 185.894 403.677 185.894C402.109 185.894 400.782 186.257 399.454 186.983C398.127 187.587 397.162 187.224 395.715 187.103C394.749 187.103 393.784 187.466 393.06 187.95C390.889 189.401 389.803 192.423 390.527 194.962C391.251 197.502 393.664 199.436 396.197 199.678C397.283 199.799 397.886 199.436 398.851 198.952C399.816 198.469 400.661 199.073 401.626 199.315C403.798 199.799 406.09 199.073 408.141 199.799C410.191 200.524 411.277 202.701 412.001 204.635C412.966 206.932 413.811 209.23 415.258 211.285C415.862 212.131 416.585 212.857 417.068 213.824C417.671 214.791 418.395 216.242 418.154 217.451C419.963 216.363 420.808 214.55 422.014 212.857C423.221 211.043 424.427 209.23 425.151 207.174C426.237 204.272 426.599 201.129 426.237 197.985C425.875 194.842 424.065 191.093 421.411 189.28C419.963 188.071 418.154 187.587 416.344 187.466Z" fill="#1D2126"/>
<path d="M414.656 208.504C413.811 210.922 414.173 213.219 415.621 213.703C417.069 214.187 418.878 212.736 419.723 210.318C420.567 207.9 420.205 205.602 418.757 205.119C417.43 204.635 415.621 206.086 414.656 208.504Z" fill="#EEBC93"/>
<path d="M377.619 267.628C375.809 264.001 374.844 260.011 374.12 256.021C373.999 255.175 372.672 245.986 372.793 245.986C373.517 245.865 374.361 245.865 374.964 245.381C375.809 244.777 376.05 243.567 377.377 243.809C378.342 243.93 378.825 245.018 379.187 245.865C380.514 249.25 381.6 252.756 383.168 256.021C383.892 257.593 384.736 258.923 385.34 260.495C385.943 262.066 386.787 263.759 387.994 265.089C388.235 265.452 388.597 265.694 389.079 265.694C389.321 265.694 389.562 265.573 389.803 265.331C395.111 261.825 398.61 256.384 402.832 251.668C403.798 250.58 404.883 249.492 406.09 248.766C407.417 248.041 408.985 247.799 410.312 248.404C412.363 249.371 413.087 251.91 412.725 254.086C411.881 260.132 406.572 265.331 402.229 269.079C398.731 272.102 394.87 275.245 390.406 276.575C388.356 277.18 385.943 277.422 384.013 276.333C382.927 275.729 382.324 274.883 381.6 273.915C380.031 272.223 378.704 269.925 377.619 267.628Z" fill="#EEBC93"/>
<path d="M410.312 263.396C408.261 263.638 404.883 260.374 403.556 259.285C401.746 257.835 399.937 256.263 398.127 254.812C398.007 254.691 397.765 254.57 397.765 254.328C397.645 254.086 397.886 253.724 398.007 253.482C400.057 250.459 401.988 247.436 404.159 244.414C405.366 242.721 406.572 240.907 408.14 239.577C409.709 238.127 411.639 237.159 413.811 237.159C419.36 237.038 421.773 241.633 420.566 246.59C419.843 249.492 418.516 252.273 416.947 254.812C415.5 257.351 413.569 261.462 411.036 263.154C410.674 263.275 410.553 263.396 410.312 263.396Z" fill="#D8EEE0"/>
<path d="M368.62 217.046L366.373 217.928L375.527 241.344L377.774 240.462L368.62 217.046Z" fill="#1D2126"/>
<path d="M370.501 230.872C371.948 231.598 373.517 232.565 374.723 233.653C375.688 234.499 376.895 235.346 377.619 236.555C378.463 237.885 378.704 239.336 378.946 240.907C379.187 242.479 378.825 243.93 378.825 245.623C378.825 246.711 378.825 247.678 378.946 248.766C378.946 249.008 379.066 249.25 378.946 249.371C378.825 249.734 378.342 249.976 377.98 250.096C376.895 250.338 375.93 250.943 374.723 250.822C374.603 250.822 374.361 250.822 374.241 250.701C373.396 250.217 373.517 249.129 373.275 248.283C372.914 246.953 372.793 245.744 372.552 244.414C372.552 244.051 372.431 243.688 372.31 243.447C371.466 241.391 368.932 241.028 367.847 239.094C367.485 238.489 367.485 237.764 367.847 237.159C367.967 237.038 368.209 236.797 368.209 236.676C368.329 236.434 368.329 236.192 368.329 235.95C368.45 235.587 368.812 235.225 369.174 235.225C369.053 234.741 369.053 234.258 369.294 233.895C369.656 233.532 370.139 233.411 370.501 233.774C370.018 233.048 369.536 232.686 368.691 232.444C368.45 232.081 367.605 231.477 368.209 230.872C368.209 230.751 368.329 230.751 368.45 230.751C369.053 230.388 369.898 230.509 370.501 230.872Z" fill="#EEBC93"/>
<path d="M312.95 93.8481C311.801 93.8294 310.633 93.8856 309.484 93.6798C306.904 93.1933 306.075 91.7152 306.169 89.3952C306.245 87.7862 306.678 86.2146 307.167 84.6804C307.375 84.0068 307.714 83.5578 308.467 83.5578C309.447 83.5578 310.388 84.1378 310.596 84.8114C311.029 86.252 311.029 86.2146 312.536 86.2707C315.87 86.383 319.147 85.9527 322.406 85.3352C323.065 85.2043 323.234 84.9423 322.989 84.3436C321.727 81.2565 319.769 78.7494 316.849 77.0281C316.359 76.7475 315.851 76.5417 315.267 76.4668C314.306 76.3546 313.929 75.7746 314.099 74.8578C314.382 73.4359 314.664 71.9952 314.947 70.5733C315.267 68.9643 316.774 68.1036 318.356 68.6088C318.996 68.8146 319.524 69.1888 320.032 69.6191C323.649 72.7997 326.191 76.5978 327.209 81.3688C327.962 84.9236 327.114 88.1978 325.57 91.3597C325.325 91.8462 324.873 92.0333 324.383 92.2017C322.01 93.0249 319.542 93.3991 317.056 93.6798C315.7 93.8107 314.325 93.923 312.95 93.8481Z" fill="white"/>
<path d="M290.066 83.7451C289.953 86.6264 289.557 89.4516 288.371 92.1084C288.182 92.5013 287.994 92.8942 287.749 93.2496C287.391 93.7548 286.883 93.9793 286.28 93.8109C285.639 93.6426 285.281 93.1935 285.244 92.52C284.98 89.2645 284.735 86.009 284.472 82.7535C284.114 78.6 283.699 74.4464 283.398 70.2929C283.172 67.1871 282.889 64.1 282.607 60.9942C282.569 60.5264 282.739 60.1522 282.965 59.7593C283.925 58.1316 284.905 56.4851 285.847 54.8387C286.204 54.24 286.656 53.8845 287.372 54.0342C288.031 54.1838 288.201 54.7077 288.239 55.3064C288.389 57.6638 288.559 60.0213 288.728 62.3787C288.973 66.0084 289.218 69.638 289.463 73.2677C289.651 76.8038 289.859 80.2838 290.066 83.7451Z" fill="white"/>
<path d="M288.389 100.696C289.143 100.453 289.708 100.266 290.273 100.116C290.8 99.9664 291.328 99.929 291.742 100.378C292.137 100.827 292.119 101.332 291.874 101.856C291.855 101.912 291.798 101.968 291.798 102.024C291.271 104.045 290.179 105.336 287.899 105.635C286.242 105.86 284.829 106.795 283.812 108.217C283.228 109.041 282.531 109.059 281.42 108.442C280.629 108.012 280.478 107.357 280.855 106.627C281.458 105.467 281.646 104.513 280.535 103.409C279.744 102.623 279.951 101.407 280.384 100.397C281.307 98.3013 282.814 96.7109 284.81 95.6071C285.733 95.1019 286.75 95.0271 287.73 95.3077C289.274 95.738 289.99 97.609 289.237 99.2367C289.048 99.6858 288.747 100.079 288.389 100.696ZM287.41 100.902C286.637 100.21 285.922 99.798 284.98 100.023C284.829 100.06 284.66 100.116 284.641 100.284C284.603 100.472 284.754 100.565 284.886 100.64C285.639 101.089 286.43 101.126 287.41 100.902Z" fill="white"/>
<path d="M299.427 82.155C300.689 82.0053 301.913 82.2485 302.949 83.2401C303.684 83.9511 303.891 84.7743 303.872 85.7659C303.797 89.4892 301.197 91.2292 298.278 92.5388C296.112 93.5117 293.946 91.9963 293.625 89.6388C293.437 88.1795 293.38 86.7201 293.588 85.2608C293.87 83.3337 294.605 82.6227 296.582 82.3046C297.505 82.1737 298.391 82.0988 299.427 82.155Z" fill="white"/>
</g>
<defs>
<linearGradient id="paint0_linear" x1="194.23" y1="169.92" x2="279.996" y2="-31.1105" gradientUnits="userSpaceOnUse">
<stop stop-color="#D8EEE0"/>
<stop offset="1" stop-color="#D8EEE0"/>
</linearGradient>
<linearGradient id="paint1_linear" x1="90.6355" y1="129.961" x2="115.987" y2="331.503" gradientUnits="userSpaceOnUse">
<stop offset="0.00359712" stop-color="#1EAD5E"/>
<stop offset="1" stop-color="#1EAD5E"/>
</linearGradient>
<linearGradient id="paint2_linear" x1="60.1366" y1="434.346" x2="401.654" y2="434.346" gradientUnits="userSpaceOnUse">
<stop stop-color="#40447E"/>
<stop offset="0.9964" stop-color="#3C3B6B"/>
</linearGradient>
<linearGradient id="paint3_linear" x1="59.0447" y1="374.278" x2="78.7565" y2="374.278" gradientUnits="userSpaceOnUse">
<stop stop-color="#40447E"/>
<stop offset="0.9964" stop-color="#3C3B6B"/>
</linearGradient>
<linearGradient id="paint4_linear" x1="302.722" y1="382.823" x2="49.2228" y2="393.859" gradientUnits="userSpaceOnUse">
<stop stop-color="#1EAD5E"/>
<stop offset="1" stop-color="#D8EEE0"/>
</linearGradient>
<linearGradient id="paint5_linear" x1="78.7523" y1="374.262" x2="410.826" y2="341.686" gradientUnits="userSpaceOnUse">
<stop offset="0.00359712" stop-color="#D8EEE0"/>
<stop offset="1" stop-color="#1EAD5E"/>
</linearGradient>
<linearGradient id="paint6_linear" x1="48.0016" y1="331.7" x2="174.654" y2="385.616" gradientUnits="userSpaceOnUse">
<stop stop-color="#F57E53"/>
<stop offset="0.00453714" stop-color="#F58152"/>
<stop offset="0.0419817" stop-color="#F99A4D"/>
<stop offset="0.0840169" stop-color="#FCAD49"/>
<stop offset="0.1333" stop-color="#FEBA46"/>
<stop offset="0.1962" stop-color="#FFC244"/>
<stop offset="0.3183" stop-color="#FFC444"/>
<stop offset="0.455" stop-color="#FDB946"/>
<stop offset="0.6941" stop-color="#F99C4C"/>
<stop offset="0.9964" stop-color="#F36F56"/>
</linearGradient>
<linearGradient id="paint7_linear" x1="92.7944" y1="359.426" x2="115.184" y2="356.388" gradientUnits="userSpaceOnUse">
<stop stop-color="#FF9085"/>
<stop offset="1" stop-color="#FB6FBB"/>
</linearGradient>
<linearGradient id="paint8_linear" x1="92.4689" y1="354.57" x2="114.185" y2="351.624" gradientUnits="userSpaceOnUse">
<stop stop-color="#FF9085"/>
<stop offset="1" stop-color="#FB6FBB"/>
</linearGradient>
<linearGradient id="paint9_linear" x1="93.1464" y1="359.506" x2="114.866" y2="356.559" gradientUnits="userSpaceOnUse">
<stop stop-color="#FF9085"/>
<stop offset="1" stop-color="#FB6FBB"/>
</linearGradient>
<linearGradient id="paint10_linear" x1="93.8261" y1="364.442" x2="115.55" y2="361.495" gradientUnits="userSpaceOnUse">
<stop stop-color="#FF9085"/>
<stop offset="1" stop-color="#FB6FBB"/>
</linearGradient>
<linearGradient id="paint11_linear" x1="97.9359" y1="359.279" x2="110.274" y2="357.605" gradientUnits="userSpaceOnUse">
<stop stop-color="#FF9085"/>
<stop offset="1" stop-color="#FB6FBB"/>
</linearGradient>
<linearGradient id="paint12_linear" x1="197.835" y1="209.448" x2="609.241" y2="-318.156" gradientUnits="userSpaceOnUse">
<stop stop-color="#D8EEE0"/>
<stop offset="1" stop-color="#1EAD5E"/>
</linearGradient>
<linearGradient id="paint13_linear" x1="236.78" y1="160.915" x2="311.301" y2="65.3472" gradientUnits="userSpaceOnUse">
<stop stop-color="#FCB148"/>
<stop offset="0.0520724" stop-color="#FDBA46"/>
<stop offset="0.1424" stop-color="#FFC244"/>
<stop offset="0.3183" stop-color="#FFC444"/>
<stop offset="0.4849" stop-color="#FDB946"/>
<stop offset="0.7754" stop-color="#F99C4D"/>
<stop offset="0.8658" stop-color="#F8924F"/>
<stop offset="1" stop-color="#F8924F"/>
</linearGradient>
<linearGradient id="paint14_linear" x1="317.897" y1="127.607" x2="269.624" y2="5.00314" gradientUnits="userSpaceOnUse">
<stop stop-color="#FCB148"/>
<stop offset="0.0520724" stop-color="#FDBA46"/>
<stop offset="0.1424" stop-color="#FFC244"/>
<stop offset="0.3183" stop-color="#FFC444"/>
<stop offset="0.4849" stop-color="#FDB946"/>
<stop offset="0.7754" stop-color="#F99C4D"/>
<stop offset="0.8658" stop-color="#F8924F"/>
<stop offset="1" stop-color="#F8924F"/>
</linearGradient>
<linearGradient id="paint15_linear" x1="243.221" y1="171.685" x2="347.665" y2="37.7411" gradientUnits="userSpaceOnUse">
<stop stop-color="#FCB148"/>
<stop offset="0.0520724" stop-color="#FDBA46"/>
<stop offset="0.1424" stop-color="#FFC244"/>
<stop offset="0.3183" stop-color="#FFC444"/>
<stop offset="0.4849" stop-color="#FDB946"/>
<stop offset="0.7754" stop-color="#F99C4D"/>
<stop offset="0.8658" stop-color="#F8924F"/>
<stop offset="1" stop-color="#F8924F"/>
</linearGradient>
<clipPath id="clip0">
<rect width="484" height="475" fill="white"/>
</clipPath>
</defs>
</svg>
