<?xml version="1.0" encoding="UTF-8"?>
<svg xmlns="http://www.w3.org/2000/svg" xmlns:xlink="http://www.w3.org/1999/xlink" width="15px" height="15px" viewBox="0 0 15 15" version="1.1">
<g id="surface1">
<path style=" stroke:none;fill-rule:evenodd;fill:rgb(11.764706%,67.843137%,36.862745%);fill-opacity:1;" d="M 7.5 1.351562 C 8.496094 1.308594 9.496094 1.335938 10.488281 1.425781 C 10.972656 1.425781 11.453125 1.511719 11.902344 1.683594 C 12.527344 1.972656 13.027344 2.472656 13.316406 3.097656 C 13.488281 3.546875 13.574219 4.027344 13.574219 4.511719 C 13.574219 5.25 13.648438 5.507812 13.648438 7.5 C 13.691406 8.496094 13.664062 9.496094 13.574219 10.488281 C 13.574219 10.972656 13.488281 11.453125 13.316406 11.902344 C 13.027344 12.527344 12.527344 13.027344 11.902344 13.316406 C 11.453125 13.488281 10.972656 13.574219 10.488281 13.574219 C 9.75 13.574219 9.492188 13.648438 7.5 13.648438 C 6.503906 13.691406 5.503906 13.664062 4.511719 13.574219 C 4.027344 13.574219 3.546875 13.488281 3.097656 13.316406 C 2.472656 13.027344 1.972656 12.527344 1.683594 11.902344 C 1.511719 11.453125 1.425781 10.972656 1.425781 10.488281 C 1.425781 9.75 1.351562 9.492188 1.351562 7.5 C 1.308594 6.503906 1.335938 5.503906 1.425781 4.511719 C 1.425781 4.027344 1.511719 3.546875 1.683594 3.097656 C 1.824219 2.785156 2.023438 2.503906 2.261719 2.261719 C 2.453125 1.96875 2.753906 1.761719 3.097656 1.683594 C 3.546875 1.511719 4.027344 1.425781 4.511719 1.425781 C 5.503906 1.335938 6.503906 1.308594 7.5 1.351562 Z M 7.5 0.0117188 C 6.472656 -0.0195312 5.449219 0.0078125 4.425781 0.0976562 C 3.800781 0.0976562 3.179688 0.210938 2.59375 0.429688 C 2.085938 0.59375 1.632812 0.878906 1.265625 1.265625 C 0.878906 1.632812 0.59375 2.085938 0.429688 2.59375 C 0.167969 3.167969 0.0546875 3.796875 0.0976562 4.425781 C 0.0078125 5.449219 -0.0195312 6.472656 0.0117188 7.5 C -0.0195312 8.527344 0.0078125 9.550781 0.0976562 10.574219 C 0.0976562 11.199219 0.210938 11.820312 0.429688 12.40625 C 0.59375 12.914062 0.878906 13.367188 1.265625 13.734375 C 1.632812 14.121094 2.085938 14.40625 2.59375 14.570312 C 3.179688 14.789062 3.800781 14.902344 4.425781 14.902344 C 5.449219 14.992188 6.472656 15.019531 7.5 14.988281 C 8.527344 15.019531 9.550781 14.992188 10.574219 14.902344 C 11.199219 14.902344 11.820312 14.789062 12.40625 14.570312 C 13.40625 14.214844 14.195312 13.429688 14.550781 12.429688 C 14.765625 11.84375 14.878906 11.222656 14.882812 10.597656 C 14.882812 9.769531 14.96875 9.523438 14.96875 7.519531 C 15 6.496094 14.96875 5.46875 14.882812 4.445312 C 14.878906 3.820312 14.765625 3.199219 14.550781 2.613281 C 14.386719 2.109375 14.097656 1.652344 13.714844 1.285156 C 13.355469 0.898438 12.90625 0.601562 12.40625 0.429688 C 11.820312 0.210938 11.199219 0.0976562 10.574219 0.0976562 C 9.550781 0.0078125 8.527344 -0.0195312 7.5 0.0117188 Z M 7.5 3.675781 C 6.992188 3.664062 6.488281 3.761719 6.019531 3.953125 C 5.082031 4.335938 4.335938 5.082031 3.953125 6.019531 C 3.761719 6.488281 3.664062 6.992188 3.675781 7.5 C 3.675781 9.613281 5.386719 11.324219 7.5 11.324219 C 9.613281 11.324219 11.324219 9.613281 11.324219 7.5 C 11.324219 5.386719 9.613281 3.675781 7.5 3.675781 Z M 7.5 9.996094 C 7.167969 10 6.839844 9.9375 6.535156 9.8125 C 5.917969 9.570312 5.429688 9.082031 5.1875 8.464844 C 4.941406 7.84375 4.941406 7.15625 5.1875 6.535156 C 5.429688 5.917969 5.917969 5.429688 6.535156 5.1875 C 7.15625 4.941406 7.84375 4.941406 8.464844 5.1875 C 9.082031 5.429688 9.570312 5.917969 9.8125 6.535156 C 10.058594 7.15625 10.058594 7.84375 9.8125 8.464844 C 9.570312 9.082031 9.082031 9.570312 8.464844 9.8125 C 8.160156 9.9375 7.832031 10 7.5 9.996094 Z M 11.496094 2.59375 C 11.3125 2.59375 11.136719 2.644531 10.980469 2.742188 C 10.832031 2.847656 10.714844 2.992188 10.648438 3.160156 C 10.539062 3.414062 10.554688 3.699219 10.683594 3.941406 C 10.8125 4.183594 11.042969 4.355469 11.3125 4.402344 C 11.492188 4.445312 11.675781 4.425781 11.839844 4.351562 C 12.007812 4.285156 12.152344 4.167969 12.257812 4.019531 C 12.355469 3.863281 12.40625 3.6875 12.40625 3.503906 C 12.40625 3 12 2.59375 11.496094 2.59375 Z M 11.496094 2.59375 "/>
</g>
</svg>
