<svg width="42" height="40" viewBox="0 0 42 40" fill="none" xmlns="http://www.w3.org/2000/svg">
<path d="M41.1406 26.3158L27.9949 14.13C28.8139 12.5725 29.1877 10.8281 29.0785 9.05458C29.058 8.72233 28.7714 8.46872 28.4386 8.48999C28.1057 8.51037 27.8525 8.79629 27.8729 9.12838C27.9773 10.8243 27.5776 12.4893 26.717 13.9433C26.5726 14.1872 26.6179 14.4985 26.8259 14.6912L40.1257 27.0198V28.8565L38.3384 29.0167L34.9092 25.8379L34.936 24.1742C34.9409 23.8711 34.8103 23.5851 34.5779 23.3899C34.3456 23.1946 34.0411 23.1148 33.7426 23.1713L32.322 23.4396L30.5805 21.8252L30.6379 20.0708C30.6483 19.754 30.5126 19.4578 30.2661 19.2581C30.0195 19.0585 29.7013 18.9872 29.3928 19.0625L27.9741 19.409L25.0003 16.6524C24.7923 16.4596 24.4779 16.4374 24.2448 16.5991C21.0022 18.8476 16.5461 18.5303 13.6489 15.8447C10.5023 12.9278 10.0841 8.12407 12.531 4.71993C13.3259 4.89539 14.0546 5.27437 14.6496 5.81205C13.9649 6.84713 14.1087 8.25796 15.0489 9.12934C15.5469 9.59097 16.1797 9.81921 16.811 9.81921C17.5065 9.81921 18.2005 9.54207 18.71 8.99464C19.6822 7.95021 19.6216 6.31114 18.5751 5.34091C18.068 4.8709 17.4075 4.62623 16.7164 4.65161C16.2938 4.66716 15.8906 4.78301 15.5333 4.98587C14.9198 4.41209 14.1881 3.97528 13.3868 3.70772C14.8803 2.19764 16.8679 1.31522 19.0221 1.21476C21.292 1.10906 23.4588 1.88432 25.1229 3.3982C25.7315 3.95191 26.2534 4.5853 26.6743 5.28105C26.8467 5.56609 27.2181 5.65737 27.5033 5.48552C27.7888 5.31344 27.8805 4.94309 27.7082 4.65822C27.2271 3.86313 26.6312 3.13951 25.9365 2.50757C24.0337 0.776573 21.5577 -0.10987 18.9657 0.0108952C16.3737 0.131821 13.9913 1.24457 12.2574 3.14434C12.1731 3.23667 12.0915 3.33069 12.0112 3.42559C11.8485 3.41205 11.6844 3.40448 11.519 3.40448C8.28201 3.40448 5.64846 6.03263 5.64846 9.263C5.64846 9.38304 5.65233 9.50243 5.65944 9.62118H3.51479C1.5768 9.62118 8.07292e-05 11.1946 8.07292e-05 13.1287V24.3535C8.07292e-05 24.6863 0.270443 24.9561 0.604016 24.9561C0.937589 24.9561 1.20795 24.6863 1.20795 24.3535V13.1288C1.20795 11.8594 2.2429 10.8266 3.51495 10.8266H5.85932C6.1887 12.0226 6.89403 13.0903 7.90306 13.8787C8.01358 13.965 8.14468 14.0069 8.2749 14.0069C8.4542 14.0069 8.63172 13.9276 8.75088 13.7757C8.9565 13.5136 8.91024 13.135 8.64763 12.9298C7.93753 12.375 7.41643 11.6462 7.12475 10.8267H9.80666C9.98176 12.2678 10.4739 13.6319 11.2453 14.8376C11.208 14.8335 11.17 14.8311 11.1316 14.8311H4.51906C3.9462 14.8311 3.48023 15.2962 3.48023 15.8678V33.7538C3.48023 34.3255 3.94628 34.7906 4.51906 34.7906H11.1314C11.7043 34.7906 12.1702 34.3254 12.1702 33.7538V16.0583C12.3771 16.2904 12.596 16.5141 12.8269 16.728C13.3237 17.1885 13.8662 17.5924 14.4427 17.9365V36.4925C14.4427 37.7619 13.4077 38.7948 12.1357 38.7948H3.51479C2.24266 38.7948 1.20779 37.7619 1.20779 36.4925V28.6926C1.20779 28.3598 0.937427 28.0899 0.603854 28.0899C0.270281 28.0899 0 28.3598 0 28.6926V36.4925C0 38.4265 1.57672 40 3.51471 40H12.1355C14.0736 40 15.6502 38.4265 15.6502 36.4925V18.5475C16.6407 18.9651 17.6998 19.2199 18.7828 19.29C20.8004 19.4206 22.8205 18.9137 24.5251 17.8573L27.2316 20.3661C27.4804 20.5969 27.8261 20.6865 28.1558 20.6059L29.4222 20.2965L29.3705 21.8779C29.361 22.1687 29.4781 22.4489 29.6915 22.6464L31.5747 24.3921C31.808 24.6084 32.1339 24.7022 32.4467 24.6431L33.7245 24.4017L33.7002 25.9086C33.6957 26.1929 33.8128 26.467 34.0216 26.6604L37.5822 29.961C37.7689 30.134 38.0146 30.2294 38.2676 30.2294C38.2974 30.2294 38.3272 30.2281 38.3571 30.2254L40.417 30.0409C40.9394 29.9941 41.3333 29.564 41.3333 29.0406V26.7576C41.3334 26.5899 41.2635 26.4299 41.1406 26.3158ZM15.4925 6.82562C15.6145 7.02397 15.7228 7.23303 15.8157 7.45209C15.9456 7.75863 16.2999 7.90203 16.607 7.77233C16.9142 7.6427 17.0579 7.28902 16.9279 6.98256C16.7696 6.60915 16.5752 6.25918 16.3508 5.93434C16.4812 5.8885 16.619 5.86176 16.7611 5.85652C16.7785 5.85588 16.7959 5.85555 16.8133 5.85555C17.1633 5.85555 17.4953 5.9855 17.7532 6.22454C18.0238 6.47541 18.1804 6.81652 18.1939 7.18485C18.2076 7.55327 18.0766 7.90477 17.8252 8.1749C17.3061 8.73248 16.4294 8.76463 15.8709 8.24685C15.6002 7.99597 15.4437 7.65486 15.4301 7.28653C15.4242 7.12782 15.4467 6.97289 15.4925 6.82562ZM9.73481 9.62143H6.8715C6.86246 9.50276 6.85625 9.38344 6.85625 9.26316C6.85625 6.82385 8.74725 4.81821 11.143 4.62639C10.2264 6.12319 9.73828 7.83976 9.73481 9.62143ZM10.9626 33.5852H4.68794V25.4132H10.9625V33.5852H10.9626ZM10.9626 24.208H4.68794V16.0362H10.9625V24.208H10.9626Z" fill="#1EAD5E"/>
</svg>
