<svg width="63" height="86" viewBox="0 0 63 86" fill="none" xmlns="http://www.w3.org/2000/svg">
<path d="M62.5009 52.3062H34.1641V84.6911H62.5009V52.3062Z" fill="#E4F0FF"/>
<path d="M30.6524 42.2854C31.3845 42.2988 42.4591 42.5337 47.261 42.2854C47.4491 42.2787 47.6304 42.2653 47.7983 42.2518C47.7983 42.2518 51.7675 46.9303 50.4847 52.0921C49.0878 57.7237 36.8378 54.9784 36.8378 54.9784C36.8378 54.9784 39.9138 57.2874 40.0011 61.6638C40.0817 65.5905 40.0749 73.9406 39.8735 76.2765C39.8533 76.5316 39.625 76.7262 39.3563 76.7262H34.8029C34.5678 76.7262 34.3596 76.5719 34.2992 76.3504L28.0533 54.2064C28.0533 54.2064 21.7067 54.0588 21.9418 54.589C22.1769 55.1193 24.2588 57.7237 24.2051 60.6972C24.1446 63.9527 21.794 74.2695 21.1829 76.3504C21.1224 76.5651 20.9143 76.7195 20.6725 76.7195H16.0049C15.7228 76.7195 15.4877 76.5114 15.4743 76.2429C15.2863 72.766 12.1768 50.763 12.8282 48.8903C13.1909 47.8499 15.9377 46.7357 18.5972 45.7355L30.6524 42.2854Z" fill="#393B3F"/>
<path d="M27.3768 54.1997C26.8597 53.0116 26.7858 51.79 27.1619 50.6623C27.6253 49.2796 28.7402 48.0512 30.493 47.0041C32.3131 45.91 34.5092 44.5675 35.1338 44.1849L35.1741 44.1581L35.5233 44.7353L35.4897 44.7555C34.8584 45.1448 32.669 46.4873 30.8423 47.5814C29.2372 48.5412 28.2163 49.6555 27.8066 50.8771C27.397 52.0987 27.6858 53.213 28.0014 53.9312L27.3768 54.1997Z" fill="#1A1A1A"/>
<path d="M39.238 84.7877C38.7881 84.9085 29.0902 84.7877 29.0902 84.7877C29.0902 84.7877 29.1574 83.5392 29.876 83.4184C30.5946 83.2908 35.0271 82.0491 35.2488 79.3709C35.2689 79.1561 35.2823 78.948 35.2891 78.7399C35.3495 77.2766 35.1883 76.7396 35.1883 76.7396H38.9425C38.9425 76.7396 38.5262 78.4982 38.6605 79.5588C38.7075 79.9481 38.8687 80.4583 39.0567 80.9818C39.3858 81.8947 39.7955 82.8613 39.8358 83.2908C39.9029 83.9755 39.688 84.6669 39.238 84.7877Z" fill="#956951"/>
<path d="M39.238 84.9693C38.7881 85.0901 29.0902 84.9693 29.0902 84.9693C29.0902 84.9693 29.1574 83.5396 29.876 83.4187C30.5946 83.2912 35.0271 82.0495 35.2488 79.3712C35.2689 79.1565 35.2823 78.9484 35.2891 78.7403C35.5443 78.7134 36.968 78.6329 37.0889 80.6734C37.1561 81.7944 38.2642 81.4051 39.0567 80.9755C39.3858 81.8884 39.7955 82.8549 39.8358 83.2845C39.9029 83.9759 39.688 84.8485 39.238 84.9693Z" fill="#43454F"/>
<path d="M20.3513 84.7876C19.9014 84.9084 10.2035 84.7876 10.2035 84.7876C10.2035 84.7876 10.2707 83.5391 10.9893 83.4182C11.7079 83.2907 16.1404 82.049 16.362 79.3707C16.3822 79.1559 16.3956 78.9479 16.4023 78.7398C16.4628 77.2765 16.3016 76.7395 16.3016 76.7395H20.217C20.217 76.7395 19.6394 78.4981 19.7738 79.5587C19.8208 79.948 19.982 80.4581 20.17 80.9817C20.4991 81.8946 20.9088 82.8611 20.9491 83.2907C21.0162 83.9754 20.8013 84.6667 20.3513 84.7876Z" fill="#956951"/>
<path d="M20.3513 84.7878C19.9014 84.9086 10.2035 84.969 10.2035 84.969C10.2035 84.969 10.2707 83.5393 10.9893 83.4185C11.7079 83.291 16.1404 82.0492 16.362 79.371C16.3822 79.1562 16.3956 78.9481 16.4023 78.74C16.6575 78.7132 18.0813 78.6326 18.2022 80.6732C18.2694 81.7941 19.3775 81.4048 20.17 80.9752C20.4991 81.8881 20.9088 82.8547 20.9491 83.2843C21.0162 83.9756 20.8013 84.667 20.3513 84.7878Z" fill="#43454F"/>
<path d="M47.9873 35.9628C47.2015 39.1713 47.1276 41.1112 47.2619 42.2925C42.46 42.5342 31.3854 42.306 30.6533 42.2925C29.8944 39.7217 29.478 35.6809 29.3907 36.2649C28.934 39.3458 22.5538 43.5075 20.1159 45.2057C19.5988 45.3802 19.0951 45.5682 18.6048 45.7494L15.5356 43.7827C15.9722 43.2591 22.171 33.0967 22.171 33.0967C22.171 33.0967 21.6405 22.7127 25.388 17.6181C27.4565 14.8056 33.5076 13.8525 36.2544 13.5169C38.3364 13.2618 41.9697 13.094 44.7905 13.8928C50.902 15.6178 50.1162 27.2838 47.9873 35.9628Z" fill="#3CC97B"/>
<path d="M29.1239 45.5817C27.8479 45.4743 33.496 48.9379 35.2422 48.3942C36.9883 47.8505 37.3644 47.2397 38.1166 47.0517L38.4524 43.2593L36.0212 44.4406C36.0212 44.4406 34.6579 43.9305 34.04 43.9171C33.4288 43.9037 31.273 43.9909 31.273 43.9171C31.273 43.8433 31.5349 44.8702 32.905 44.9038C34.2751 44.9374 34.3019 45.4341 33.8654 45.5415C33.2542 45.6757 29.7418 45.6354 29.1239 45.5817Z" fill="#956951"/>
<path d="M35.4341 43.977C36.2467 43.2588 47.993 35.9625 47.993 35.9625L43.0567 13.436C43.0567 13.436 49.4638 14.0267 52.7345 16.7116C58.6311 21.5579 56.2268 36.6874 56.032 37.4795C54.3933 44.2119 37.5765 47.7426 37.5765 47.7426L35.4341 43.977Z" fill="#3CC97B"/>
<path d="M35.3716 13.6248C36.1372 12.0742 37.6819 10.2887 37.6819 10.2887L39.6429 6.29492C41.7182 7.31519 41.2615 11.6245 43.78 13.5711L42.5442 14.3833C40.281 15.8667 37.2789 15.5512 35.3716 13.6248Z" fill="#956951"/>
<path d="M34.5356 7.26112C34.5356 9.2681 34.7506 11.4563 36.2616 11.4429C38.4175 11.4295 40.3315 9.66413 40.5061 7.66386C40.7479 4.87153 38.7533 4.09961 37.2489 4.09961C35.7378 4.09961 34.5356 5.25414 34.5356 7.26112Z" fill="#956951"/>
<path d="M41.5782 2.45516C41.6521 1.57584 40.1678 1.4416 39.3821 1.83763C38.603 2.23365 38.7373 0.374345 36.8367 0.985166C35.3659 1.45503 35.8293 2.23366 34.466 1.99201C33.3578 1.79064 32.6862 2.1531 33.0489 3.3479C33.4116 4.54269 32.1288 4.36145 32.6929 5.37501C33.1026 6.10665 33.7474 6.27447 34.9092 5.88515C36.0711 5.49584 36.7091 5.00584 37.1994 5.65022C37.6829 6.28789 38.7306 5.85159 39.147 6.03953C39.5634 6.22748 39.053 8.75802 38.7172 9.46952C38.3814 10.181 36.6822 9.34199 35.8763 9.27487C35.0704 9.20775 34.6809 9.26815 34.6809 9.26815C34.6809 9.26815 34.7749 10.9127 35.1107 11.7651C35.4465 12.6176 38.2 11.2818 39.4291 10.6308C40.6514 9.97966 40.9939 8.02637 40.9939 8.02637C40.9939 8.02637 40.9603 8.36199 41.2961 9.18761C41.6252 10.0132 41.7192 7.9861 42.0819 6.94569C42.4042 6.01939 43.3646 5.3146 42.8744 3.96543C42.3572 2.61625 41.511 3.21365 41.5782 2.45516Z" fill="#333333"/>
<path d="M37.6371 47.8168L35.3604 43.9304L47.7446 35.7749C47.6775 34.8084 47.3014 29.0425 47.5969 25.928L48.067 25.975C47.7446 29.3244 48.2215 35.8152 48.2215 35.8823L48.2349 36.0233L35.9917 44.0848L38.04 47.5886L37.6371 47.8168Z" fill="#3CC97B"/>
<path d="M8.25007 46.4069L34.0663 46.3935C34.3954 46.3935 34.664 46.125 34.664 45.7961V44.9167C34.664 44.5878 34.3954 44.3193 34.0663 44.3193L8.25007 44.3328C7.92098 44.3328 7.65234 44.6013 7.65234 44.9302V45.8095C7.65234 46.1384 7.92098 46.4069 8.25007 46.4069Z" fill="#D8EEE0"/>
<path d="M9.05431 44.3397L29.847 44.3263L22.0833 31.9824C21.996 31.8414 21.8415 31.7542 21.6736 31.7542L0.659338 31.7676C0.283243 31.7676 0.0481835 32.1837 0.249663 32.5059L6.97236 43.1919C7.42233 43.9034 8.2081 44.3397 9.05431 44.3397Z" fill="#D8EEE0"/>
<path d="M30.6866 42.3125C28.9405 35.2377 28.6853 29.6464 28.7793 26.203C28.88 22.4575 29.3905 20.4237 29.4173 20.3364L29.874 20.4505C29.8673 20.4707 29.3502 22.5381 29.2561 26.2298C29.1621 29.6397 29.4173 35.1773 31.15 42.1917L30.6866 42.3125Z" fill="#1EAD5E"/>
<g opacity="0.1">
<path opacity="0.1" d="M29.8473 44.4068H23.4268L0.659668 31.7743C0.666384 31.7743 0.6731 31.7743 0.679816 31.7743L21.6807 31.7609C21.8486 31.7609 22.003 31.8481 22.0904 31.9891L29.8473 44.4068Z" fill="white"/>
</g>
</svg>
