<svg width="15" height="15" viewBox="0 0 15 15" fill="none" xmlns="http://www.w3.org/2000/svg">
<path d="M3.64967 4.63329H0.64186V14.084H3.64967V4.63329Z" fill="#1EAD5E"/>
<path d="M13.5208 5.49639C12.889 4.77475 12.0533 4.41386 11.0143 4.41386C10.6315 4.41386 10.2836 4.46313 9.97057 4.56174C9.65768 4.66028 9.39341 4.79853 9.17763 4.97657C8.96198 5.15461 8.79023 5.31989 8.66272 5.47241C8.54147 5.61728 8.42291 5.78603 8.30721 5.97693V4.63306H5.30839L5.31759 5.09088C5.32375 5.39615 5.32678 6.33705 5.32678 7.9137C5.32678 9.49049 5.32072 11.5472 5.30852 14.084H8.30721V8.81007C8.30721 8.4859 8.34045 8.22846 8.40742 8.03756C8.53512 7.71315 8.72785 7.44155 8.98624 7.22229C9.24461 7.00277 9.56503 6.89311 9.94797 6.89311C10.4704 6.89311 10.8548 7.08223 11.101 7.46052C11.347 7.83878 11.4701 8.36174 11.4701 9.02933V14.0837H14.4688V8.66718C14.4685 7.27467 14.1528 6.2178 13.5208 5.49639Z" fill="#1EAD5E"/>
<path d="M2.16403 0.0839844C1.65975 0.0839844 1.25115 0.238302 0.938133 0.546636C0.625147 0.855037 0.46875 1.24439 0.46875 1.71506C0.46875 2.17915 0.620646 2.56716 0.92447 2.87867C1.2282 3.19021 1.6293 3.34606 2.12754 3.34606H2.14577C2.65624 3.34606 3.06797 3.19034 3.38086 2.87867C3.69375 2.56716 3.84714 2.17928 3.84111 1.71506C3.83504 1.24442 3.67999 0.855037 3.37626 0.546636C3.07256 0.238168 2.66834 0.0839844 2.16403 0.0839844Z" fill="#1EAD5E"/>
</svg>
