<svg width="22" height="2" viewBox="0 0 22 2" fill="none" xmlns="http://www.w3.org/2000/svg">
<path d="M21.1396 -0.000976562H10.8584L11.8584 0.717773C11.8584 0.243141 11.999 0.499023 10.999 -0.000976548C10.499 0.499023 10.1396 0.243141 10.1396 0.717773L11.1396 -0.000976562H0.858398C0.383766 -0.000976562 -0.000976562 0.383766 -0.000976562 0.858398C-0.000976562 1.33303 0.383766 1.71777 0.858398 1.71777H10.1396C10.7178 1.71777 10.5244 1.71777 10.999 1.71777C11.4737 1.71777 11.1396 1.71777 11.8584 1.71777H21.1396C21.6143 1.71777 21.999 1.33303 21.999 0.858398C21.999 0.383766 21.6143 -0.000976562 21.1396 -0.000976562Z" fill="#1EAD5E"/>
</svg>
