<svg width="22" height="22" viewBox="0 0 22 22" fill="none" xmlns="http://www.w3.org/2000/svg">
<path d="M21.1396 10.1396H11.8584V0.858398C11.8584 0.383766 11.4737 -0.000976562 10.999 -0.000976562C10.5244 -0.000976562 10.1396 0.383766 10.1396 0.858398V10.1396H0.858398C0.383766 10.1396 -0.000976562 10.5244 -0.000976562 10.999C-0.000976562 11.4737 0.383766 11.8584 0.858398 11.8584H10.1396V21.1396C10.1396 21.6143 10.5244 21.999 10.999 21.999C11.4737 21.999 11.8584 21.6143 11.8584 21.1396V11.8584H21.1396C21.6143 11.8584 21.999 11.4737 21.999 10.999C21.999 10.5244 21.6143 10.1396 21.1396 10.1396Z" fill="#7E848C"/>
</svg>
