<svg width="86" height="165" viewBox="0 0 86 165" fill="none" xmlns="http://www.w3.org/2000/svg">
<path d="M38.3351 48.2253C38.3351 48.2253 37.6751 47.0766 37.1703 47.0533C36.6734 47.03 36.1764 46.5488 36.1764 46.5488C36.1764 46.5488 35.7338 47.3638 36.5103 48.0002C37.1238 48.5047 37.2402 49.5214 37.2169 50.1035C37.1703 51.0504 38.3429 51.4307 38.3429 51.4307L38.3351 48.2253Z" fill="#EEBC93"/>
<path d="M37.7709 48.7604C37.7166 49.5132 36.4042 50.6076 38.2369 52.0822C39.1532 52.8118 41.1257 60.9302 43.0749 63.7243C46.0491 67.9853 50.3124 69.5841 51.1589 69.5919L60.4233 65.0049L51.5084 61.2717C51.5084 61.2717 40.6753 51.8727 40.3258 50.9491C39.9764 50.0255 39.3007 45.7024 38.7339 45.1281L37.7709 48.7604Z" fill="#EEBC93"/>
<path d="M85.3183 161.075C84.8213 161.432 72.8157 163.962 72.8157 163.962C72.8157 163.962 73.1263 162.317 73.9572 161.836C74.7881 161.355 80.8143 160.695 78.1507 155.829C78.0109 155.565 77.9876 155.262 77.9022 154.998C77.2887 153.081 76.5587 152.452 76.5587 152.452L81.187 150.784C81.187 150.784 81.4976 153.252 82.1577 154.563C82.3985 155.045 82.8333 155.635 83.3148 156.232C84.1457 157.272 85.1087 158.335 85.3572 158.879C85.761 159.733 85.8153 160.718 85.3183 161.075Z" fill="#EEBC93"/>
<path d="M80.885 157.008C81.3742 158.366 82.6788 157.357 83.4865 156.488C84.2941 157.443 85.2337 158.421 85.4745 158.925C85.855 159.724 85.886 160.733 85.3735 161.083L72.6844 164.218C72.6844 164.218 72.9718 162.014 73.9037 161.727C77.1652 160.718 78.897 159.6 78.0039 156.271C78.0117 156.263 80.3957 155.658 80.885 157.008Z" fill="#43454F"/>
<path d="M58.0993 163.769C57.5092 163.939 44.8047 163.769 44.8047 163.769C44.8047 163.769 44.8901 162.053 45.8375 161.883C46.7849 161.712 52.5858 159.997 52.8731 156.31C52.8964 156.015 52.9119 155.72 52.9197 155.441C52.9974 153.43 52.7877 152.685 52.7877 152.685H57.9207C57.9207 152.685 57.1675 155.107 57.3383 156.566C57.4004 157.102 57.6101 157.8 57.8586 158.53C58.2857 159.795 58.8293 161.114 58.8836 161.712C58.9691 162.651 58.6895 163.598 58.0993 163.769Z" fill="#EEBC93"/>
<path d="M55.2112 158.467C55.3354 159.911 56.842 159.414 57.9369 158.863C58.3951 160.043 58.962 161.285 59.0163 161.844C59.1095 162.728 58.8144 163.613 58.1854 163.776C57.5641 163.931 44.1452 163.776 44.1452 163.776C44.1452 163.776 44.2384 162.17 45.2324 162.007C46.2264 161.844 52.3612 160.237 52.6641 156.783C52.6718 156.783 55.0559 156.636 55.2112 158.467Z" fill="#43454F"/>
<path d="M56.8738 83.8491C56.8738 83.8491 56.8739 83.8491 56.8583 83.8414C56.7496 83.1972 56.6797 82.7315 56.6564 82.553L56.8738 83.8491Z" fill="#CAE2FF"/>
<path d="M72.7613 94.0558C71.6352 94.832 59.5287 97.3389 57.9755 96.2135C56.4224 95.0881 54.9469 82.212 54.9469 82.212L55.1255 83.5935C55.1255 83.5935 47.6706 78.8125 47.1503 78.4633C46.63 78.114 50.7147 67.5508 55.0712 66.0295C59.7228 64.4074 67.2554 64.4928 68.7076 64.7489C69.9113 64.9585 75.8986 64.7411 76.2402 71.6565C76.5897 78.5797 73.8873 93.2797 72.7613 94.0558Z" fill="#1EAD5E"/>
<path d="M69.4381 65.0671C69.4381 65.0671 68.3975 62.3816 68.514 60.8061C68.6305 59.2305 72.6997 52.1987 69.4381 50.9724C66.1688 49.7461 62.7131 51.9736 62.4413 52.4704C62.1696 52.9671 61.5172 54.108 61.2532 55.2334C61.0047 56.2579 61.0202 60.0765 61.4862 60.3404C61.9443 60.612 62.8063 60.6508 62.8063 60.6508C62.8063 60.6508 62.022 64.2444 62.0608 64.6247C62.0919 65.0127 64.6312 66.1769 69.4381 65.0671Z" fill="#EEBC93"/>
<path d="M65.2138 47.3555C65.2138 47.3555 64.9498 49.1639 65.9438 49.4278C66.9455 49.6995 69.2519 48.5974 71.3641 50.1884C73.4764 51.7795 72.5522 53.1533 72.5522 53.1533C72.5522 53.1533 73.422 53.7276 73.4375 54.69C73.4764 57.0728 68.5297 60.449 68.5219 60.7982C68.5141 61.1397 66.6038 60.8758 66.6038 59.3003C66.6038 57.3677 67.2716 56.382 65.9515 56.4208C65.0507 56.4441 65.2293 57.6005 64.9963 57.5617C64.7634 57.5229 63.451 56.0716 64.4139 54.4572C65.1827 53.1688 64.6081 52.6876 63.5287 52.5789C62.4492 52.4703 60.6554 51.7718 61.1912 50.0022C61.727 48.2326 62.8764 48.5818 62.8764 48.5818C62.8764 48.5818 63.7927 46.8976 65.2138 47.3555Z" fill="#4F3B32"/>
<path d="M56.8722 82.3202L56.3984 81.9166C57.9205 80.1238 58.9223 76.67 58.9301 76.6389L59.528 76.8097C59.4814 76.9571 58.4796 80.4265 56.8722 82.3202Z" fill="#DAF4FF"/>
<path d="M27.8689 85.2233C27.5195 85.3398 23.2406 84.2532 21.4778 83.7564C21.206 83.6788 20.9498 83.935 21.043 84.2066L21.4701 85.5416C21.8739 86.5971 24.8947 88.7237 25.6479 89.1428C26.8904 89.8336 30.2141 88.6461 30.2141 88.6461C30.2141 88.6461 34.2445 90.0199 41.2646 90.9357C46.9801 91.6808 50.1096 91.3005 52.7732 89.1661C54.2875 87.9476 55.4135 85.4329 56.0192 83.7797C56.3609 82.8639 56.5395 82.2119 56.5395 82.2119L47.6324 78.7504C47.6324 78.7504 46.4753 83.0191 45.9239 82.9958C45.3726 82.9725 31.6741 86.0616 30.8664 85.0138C30.0588 83.966 29.6783 83.2364 28.8008 83.0502C27.931 82.8639 26.3158 82.0567 26.3158 82.0567C26.3158 82.0567 26.0285 82.274 26.2381 83.2675C26.3779 83.966 29.2357 84.7887 27.8689 85.2233Z" fill="#EEBC93"/>
<path d="M82.7031 153.438C82.4468 154.563 78.7969 155.456 78.1912 155.712C77.5855 155.968 67.7775 133.429 65.8361 128.632C64.7334 125.893 64.283 117.914 64.283 117.914C64.283 117.914 60.3381 125.171 60.1672 126.382C59.9964 127.592 61.5884 132.226 61.6194 134.158C61.6583 136.114 59.6082 154.563 59.2665 155.603C58.917 156.643 52.5104 156.123 52.425 155.603C52.3395 155.083 51.6406 130.829 51.6406 125.295C51.6406 115.244 57.9696 96.2209 57.9696 96.2209C59.5227 97.3463 71.6293 94.8394 72.7553 94.0632C78.6494 101.871 77.3758 102.197 75.8149 106.854C75.4267 108.026 74.1376 127.507 74.1376 128.632C74.1376 129.758 78.3232 131.915 79.4648 134.166C80.5364 136.246 82.9671 152.312 82.7031 153.438Z" fill="#393B3F"/>
<path d="M64.567 118.039L64.0078 117.775L68.0227 109.237L68.0848 109.191C68.1158 109.167 70.9891 107.041 71.9831 105.473L72.5112 105.807C71.525 107.359 68.9701 109.315 68.5197 109.649L64.567 118.039Z" fill="#333333"/>
<path d="M62.8317 60.9612L62.7773 60.4955C62.7851 60.4955 63.2122 60.4411 63.6704 60.2704C64.0742 60.1229 64.5868 59.8513 64.7498 59.4011L65.1847 59.5641C64.7654 60.7128 62.9094 60.9534 62.8317 60.9612Z" fill="#E9A786"/>
<path d="M38.6945 45.1204C38.6945 45.1204 36.6755 43.6302 36.6289 43.8941C36.3804 45.4464 38.1121 47.3635 38.1121 47.3635L38.6945 45.1204Z" fill="#EEBC93"/>
</svg>
