<svg width="17" height="15" viewBox="0 0 17 15" fill="none" xmlns="http://www.w3.org/2000/svg">
<path fill-rule="evenodd" clip-rule="evenodd" d="M5.43603 14.0828C6.70671 14.0947 7.96695 13.8425 9.14312 13.3407C10.3193 12.839 11.3878 12.0978 12.2863 11.1605C13.1848 10.2232 13.8953 9.10849 14.3762 7.88159C14.8571 6.65468 15.0988 5.34012 15.0872 4.01469V3.53577C15.7294 3.02571 16.2882 2.41046 16.7417 1.71394C16.1253 1.99344 15.4761 2.18675 14.8111 2.28886C15.4947 1.84104 16.013 1.16511 16.2816 0.371024C15.6175 0.756729 14.9065 1.047 14.1679 1.23394C13.8568 0.868717 13.4744 0.577154 13.0463 0.378832C12.6182 0.180509 12.1544 0.080017 11.6861 0.0841042C10.7883 0.0982978 9.93108 0.476626 9.29617 1.13889C8.66126 1.80116 8.29855 2.6953 8.28495 3.63177C8.26407 3.89131 8.29542 4.15253 8.37698 4.39869C7.02426 4.33059 5.70111 3.9617 4.49621 3.31673C3.2913 2.67177 2.23247 1.76562 1.39066 0.659023C1.08816 1.21424 0.929891 1.84224 0.931526 2.48086C0.943658 3.0604 1.08242 3.62942 1.33724 4.14458C1.59207 4.65973 1.95623 5.10744 2.402 5.45361C1.84957 5.44196 1.31015 5.27662 0.839495 4.97469C0.838635 5.79591 1.11429 6.59137 1.61835 7.22222C2.1224 7.85307 2.82285 8.27925 3.59742 8.42635C3.29808 8.5106 2.98752 8.54303 2.67811 8.52235C2.45963 8.53765 2.2405 8.50495 2.0349 8.42635C2.25964 9.13692 2.6893 9.75773 3.26513 10.2039C3.84097 10.6501 4.53487 10.8999 5.25196 10.9191C4.04363 11.9036 2.55677 12.4429 1.02356 12.4529C0.744621 12.4685 0.465127 12.4361 0.196289 12.3569C1.71748 13.5092 3.55632 14.1148 5.43603 14.0828Z" fill="#1EAD5E"/>
</svg>
